<svg width="28" height="28" viewBox="0 0 28 28" fill="none" xmlns="http://www.w3.org/2000/svg">
<circle cx="14" cy="14" r="11" fill="#49D2BB"/>
<path d="M13.9427 18.0002L13.9427 19.0711C13.9427 19.1639 14.0182 19.2152 14.0692 19.1584L18.4888 14.2805C18.5263 14.2393 18.5567 14.1864 18.5776 14.1261C18.5985 14.0657 18.6094 13.9993 18.6094 13.9321C18.6094 13.8649 18.5985 13.7986 18.5776 13.7382C18.5567 13.6778 18.5263 13.625 18.4888 13.5837L14.0692 8.7059C14.0172 8.6491 13.9427 8.70036 13.9427 8.79318L13.9427 9.86406C13.9427 9.93194 13.9653 9.99705 14.0025 10.0386L17.5319 13.9314L14.0025 17.8256C13.9653 17.8672 13.9427 17.9323 13.9427 18.0002Z" fill="#111111"/>
<rect x="8.75" y="13.5625" width="8.75" height="0.875" rx="0.2" fill="#111111"/>
</svg>
