<svg width="86" height="76" viewBox="0 0 86 76" fill="none" xmlns="http://www.w3.org/2000/svg">
<path d="M7.44444 3H28.0576C29.0973 3 30.1041 3.36452 30.9028 4.03013L35.7153 8.87382C36.1146 9.20663 36.618 9.38889 37.1379 9.38889H78.5556C81.0102 9.38889 83 11.3787 83 13.8333V68.2778C83 70.7324 81.0102 72.7222 78.5556 72.7222H7.44444C4.98985 72.7222 3 70.7324 3 68.2778V7.44444C3 4.98985 4.98985 3 7.44444 3Z" stroke="white" stroke-width="6"/>
<path fill-rule="evenodd" clip-rule="evenodd" d="M47.375 24.7065C48.625 25.1232 49.25 26.1649 49.25 27.4149L41.3333 56.5815C40.9167 57.4149 40.0833 58.0399 39.25 58.0399H38.625C37.375 57.6232 36.75 56.5815 36.9583 55.3315L44.875 26.1649C45.0833 25.1232 46.3333 24.4982 47.375 24.7065ZM58.2083 31.5815L66.5417 39.9149C67.375 40.7482 67.375 41.9982 66.5417 42.8315L58.2083 51.1649C57.7917 51.5815 57.1667 51.7899 56.75 51.7899C56.3333 51.7899 55.7083 51.5815 55.2917 51.1649C54.4583 50.3315 54.4583 49.0815 55.2917 48.2482L62.1667 41.3732L55.2917 34.4982C54.4583 33.6649 54.4583 32.4149 55.2917 31.5815C56.125 30.7482 57.375 30.7482 58.2083 31.5815ZM30.7083 31.5815C31.5417 32.4149 31.5417 33.6649 30.7083 34.4982L23.8333 41.3732L30.7083 48.2482C31.5417 49.0815 31.5417 50.3315 30.7083 51.1649C30.2917 51.5815 29.875 51.7899 29.25 51.7899C28.625 51.7899 28.2083 51.5815 27.7917 51.1649L19.4583 42.8315C18.625 41.9982 18.625 40.7482 19.4583 39.9149L27.7917 31.5815C28.625 30.7482 29.875 30.7482 30.7083 31.5815Z" fill="white" stroke="white"/>
</svg>
