<svg width="260" height="40" viewBox="0 0 260 40" fill="none" xmlns="http://www.w3.org/2000/svg">
<path d="M47.8604 12.632H51.8817V14.2246C52.3381 13.6366 52.9357 13.1735 53.619 12.8781C54.395 12.546 55.2326 12.3819 56.0767 12.3968C57.3192 12.3683 58.5451 12.6907 59.6129 13.327C60.6296 13.9597 61.44 14.8755 61.9438 15.9619C62.5193 17.2087 62.8017 18.5706 62.7691 19.9434C62.7984 21.3117 62.4954 22.6667 61.8859 23.8923C61.3267 24.9864 60.4682 25.8989 59.4102 26.5236C58.294 27.1654 57.0239 27.4904 55.7364 27.4647C54.9658 27.4741 54.2003 27.3366 53.4815 27.0593C52.8615 26.8277 52.3128 26.4386 51.8889 25.93V33.1328H47.8604V12.632ZM52.6345 22.8607C52.9592 23.2281 53.3613 23.5184 53.8119 23.7113C54.2629 23.9042 54.7508 23.9943 55.2406 23.9755C55.7256 23.9929 56.208 23.902 56.6532 23.7091C57.0988 23.5162 57.4951 23.2263 57.814 22.8607C58.497 22.0395 58.8485 20.9923 58.7985 19.9253C58.847 18.8466 58.4923 17.7885 57.8031 16.9573C57.4839 16.5922 57.0872 16.303 56.642 16.1107C56.1968 15.9185 55.7143 15.8281 55.2297 15.8461C54.74 15.8265 54.2524 15.9161 53.8014 16.1083C53.3508 16.3005 52.9483 16.5905 52.6237 16.9573C51.9421 17.7917 51.5954 18.8495 51.65 19.9253C51.6001 20.9923 51.9515 22.0395 52.6345 22.8607Z" fill="#ABB0BC"/>
<path d="M67.9377 26.4764C66.7871 25.8564 65.8348 24.9244 65.1905 23.7871C64.5444 22.6017 64.206 21.2732 64.206 19.9232C64.206 18.5732 64.5444 17.2448 65.1905 16.0594C65.8366 14.9237 66.7885 13.992 67.9377 13.3702C69.1618 12.7329 70.5213 12.4001 71.901 12.4001C73.2808 12.4001 74.6406 12.7329 75.8644 13.3702C77.0139 13.993 77.9666 14.9244 78.6152 16.0594C79.2591 17.2455 79.5961 18.5737 79.5961 19.9232C79.5961 21.2728 79.2591 22.601 78.6152 23.7871C77.9687 24.9236 77.0154 25.8556 75.8644 26.4764C74.6406 27.1134 73.2808 27.4464 71.901 27.4464C70.5213 27.4464 69.1618 27.1134 67.9377 26.4764ZM69.2697 22.8569C69.6081 23.2156 70.016 23.5015 70.4688 23.6966C70.9216 23.8921 71.4099 23.9931 71.9029 23.9931C72.3962 23.9931 72.8841 23.8921 73.3369 23.6966C73.7897 23.5015 74.1976 23.2156 74.536 22.8569C75.2302 22.0422 75.5886 20.9941 75.5386 19.9251C75.5875 18.8483 75.2266 17.793 74.5288 16.9715C74.1889 16.6156 73.7803 16.3322 73.3275 16.1386C72.8751 15.945 72.3879 15.8452 71.8956 15.8452C71.4034 15.8452 70.9162 15.945 70.4637 16.1386C70.011 16.3322 69.6023 16.6156 69.2624 16.9715C68.5621 17.7917 68.1998 18.8476 68.249 19.9251C68.2052 20.9931 68.5704 22.0375 69.2697 22.846V22.8569Z" fill="#ABB0BC"/>
<path d="M82.0284 6.29761H86.0351V27.2145H82.0284V6.29761Z" fill="#ABB0BC"/>
<path d="M93.2234 27.0992L87.9281 12.6213H92.0362L95.1019 22.032L98.1423 12.6213H102.276L96.9841 27.1463L94.9282 33.104H91.0807L93.2234 27.0992Z" fill="#ABB0BC"/>
<path d="M104.578 25.4052C103.35 24.049 102.737 22.2222 102.739 19.9251C102.706 18.5524 102.989 17.1905 103.564 15.9437C104.08 14.8551 104.908 13.9443 105.942 13.3268C107.041 12.6912 108.293 12.3695 109.562 12.3966C110.369 12.3867 111.171 12.5394 111.918 12.8454C112.57 13.1053 113.143 13.5293 113.583 14.076V12.6283H117.633V28.08C117.661 28.7623 117.542 29.4427 117.282 30.0747C117.022 30.7063 116.628 31.2742 116.128 31.7393C115.124 32.6561 113.797 33.1133 112.146 33.1107H104.799V29.9585H111.509C111.795 29.9668 112.078 29.9133 112.341 29.8007C112.604 29.6881 112.838 29.5195 113.029 29.307C113.433 28.8495 113.645 28.2548 113.623 27.6457V25.7346C113.217 26.3036 112.653 26.7412 112.001 26.9942C111.249 27.2993 110.443 27.452 109.631 27.443C107.485 27.4452 105.801 26.7661 104.578 25.4052ZM107.672 22.8716C107.997 23.2324 108.398 23.5173 108.847 23.7048C109.295 23.8926 109.779 23.9788 110.264 23.9574C110.751 23.9777 111.236 23.8912 111.686 23.7033C112.136 23.5158 112.538 23.2317 112.866 22.8716C113.554 22.0471 113.906 20.9937 113.851 19.9215C113.903 18.8443 113.552 17.7863 112.866 16.9535C112.542 16.587 112.14 16.2971 111.69 16.1049C111.24 15.9128 110.753 15.8231 110.264 15.8424C109.776 15.8216 109.29 15.9107 108.842 16.103C108.393 16.2953 107.993 16.586 107.672 16.9535C106.995 17.7901 106.65 18.8466 106.702 19.9215C106.643 20.9985 106.989 22.059 107.672 22.8933V22.8716Z" fill="#ABB0BC"/>
<path d="M123.801 26.4764C122.65 25.8564 121.698 24.9244 121.054 23.7871C120.408 22.6017 120.069 21.2732 120.069 19.9232C120.069 18.5732 120.408 17.2448 121.054 16.0594C121.7 14.9237 122.652 13.992 123.801 13.3702C125.025 12.7329 126.384 12.4001 127.764 12.4001C129.144 12.4001 130.504 12.7329 131.727 13.3702C132.877 13.992 133.829 14.9237 134.475 16.0594C135.121 17.2448 135.459 18.5732 135.459 19.9232C135.459 21.2732 135.121 22.6017 134.475 23.7871C133.83 24.9244 132.878 25.8564 131.727 26.4764C130.504 27.1134 129.144 27.4464 127.764 27.4464C126.384 27.4464 125.025 27.1134 123.801 26.4764ZM125.133 22.8569C125.471 23.2149 125.879 23.5005 126.332 23.6955C126.784 23.8903 127.272 23.9909 127.764 23.9909C128.257 23.9909 128.744 23.8903 129.197 23.6955C129.649 23.5005 130.057 23.2149 130.396 22.8569C131.092 22.0472 131.455 21.0029 131.409 19.9359C131.458 18.8585 131.096 17.8026 130.396 16.9824C130.056 16.6265 129.647 16.3432 129.195 16.1497C128.743 15.9561 128.256 15.8564 127.764 15.8564C127.272 15.8564 126.785 15.9561 126.333 16.1497C125.881 16.3432 125.472 16.6265 125.133 16.9824C124.432 17.8026 124.07 18.8585 124.119 19.9359C124.074 20.9983 124.434 22.0382 125.126 22.846L125.133 22.8569Z" fill="#ABB0BC"/>
<path d="M137.656 12.6317H141.71V14.6586C142.119 13.9406 142.733 13.3609 143.473 12.9937C144.295 12.5868 145.202 12.382 146.119 12.3965C147.117 12.3757 148.103 12.6259 148.971 13.1203C149.786 13.601 150.448 14.3041 150.878 15.1473C151.344 16.07 151.577 17.0926 151.559 18.1261V27.2109H147.523V19.0273C147.55 18.2301 147.27 17.453 146.741 16.8557C146.486 16.5758 146.172 16.3549 145.823 16.208C145.474 16.0611 145.096 15.9919 144.718 16.0051C144.312 15.9918 143.908 16.0661 143.533 16.2228C143.158 16.3796 142.822 16.6152 142.546 16.9136C141.977 17.5536 141.677 18.3888 141.71 19.2445V27.229H137.656V12.6317Z" fill="#ABB0BC"/>
<path d="M176.942 6.96753V27.2366H174.455V17.8694H163.753V27.2149H161.262V6.96753H163.753V15.6543H174.455V6.96753H176.942Z" fill="#ABB0BC"/>
<path d="M180.978 16.0161C181.516 14.9173 182.356 13.9946 183.399 13.3558C184.509 12.6983 185.78 12.366 187.069 12.3967C188.333 12.3658 189.582 12.6705 190.689 13.2798C191.693 13.8521 192.511 14.7016 193.045 15.7266C193.605 16.8072 193.889 18.0097 193.87 19.2266C193.875 19.5642 193.856 19.9017 193.812 20.2365H182.411C182.454 21.6122 182.988 22.9268 183.917 23.9428C184.35 24.4137 184.878 24.7862 185.467 25.0359C186.056 25.2856 186.691 25.4065 187.33 25.3906C188.339 25.4391 189.341 25.1872 190.207 24.6667C190.947 24.1723 191.466 23.4108 191.655 22.5421H193.997C193.894 23.2548 193.648 23.9396 193.275 24.556C192.902 25.172 192.409 25.707 191.825 26.129C190.51 27.0498 188.931 27.5174 187.326 27.461C186.005 27.4845 184.705 27.1276 183.58 26.433C182.504 25.7555 181.629 24.8017 181.047 23.6714C180.436 22.4871 180.125 21.1708 180.142 19.8383C180.115 18.5162 180.402 17.2065 180.978 16.0161ZM191.496 18.4014C191.454 17.2891 190.982 16.2366 190.179 15.466C189.307 14.7688 188.226 14.3853 187.11 14.3774C185.993 14.3695 184.907 14.7377 184.025 15.4226C183.187 16.2063 182.654 17.2617 182.52 18.4014H191.496Z" fill="#ABB0BC"/>
<path d="M200.157 16.3057C199.59 17.3892 199.307 18.884 199.307 20.7903V27.2148H196.99V12.6319H199.325V15.5854C199.548 14.7109 200.044 13.93 200.74 13.3558C201.483 12.8441 202.373 12.5898 203.274 12.6319H205.116V14.6878H203.093C201.705 14.6878 200.727 15.2271 200.157 16.3057Z" fill="#ABB0BC"/>
<path d="M207.581 12.6319H209.894V15.4406C210.171 14.5496 210.736 13.7757 211.501 13.24C212.317 12.6683 213.295 12.3727 214.292 12.3967C215.391 12.3652 216.477 12.6477 217.422 13.211C217.84 13.4621 218.203 13.7936 218.492 14.1863C218.78 14.5789 218.987 15.025 219.102 15.4986C219.397 14.5769 220.012 13.7912 220.836 13.2834C221.717 12.6972 222.753 12.3884 223.811 12.3967C225.389 12.3967 226.628 12.8986 227.528 13.9024C228.428 14.9061 228.876 16.2852 228.871 18.0394V27.2113H226.558V18.6511C226.61 17.5688 226.299 16.5 225.675 15.6144C225.395 15.2412 225.03 14.9411 224.61 14.7394C224.189 14.5378 223.726 14.4406 223.261 14.4561C222.732 14.4299 222.203 14.52 221.713 14.7201C221.223 14.9202 220.782 15.2255 220.423 15.6144C219.705 16.4587 219.334 17.5439 219.384 18.6511V27.2149H217.06V18.6511C217.113 17.5688 216.802 16.5 216.177 15.6144C215.904 15.2419 215.544 14.9418 215.128 14.7399C214.712 14.5381 214.254 14.4407 213.792 14.4561C213.259 14.4286 212.727 14.518 212.232 14.7181C211.738 14.9182 211.293 15.2241 210.929 15.6144C210.208 16.4574 209.836 17.5432 209.887 18.6511V27.2149H207.574L207.581 12.6319Z" fill="#ABB0BC"/>
<path d="M232.704 16.0161C233.241 14.9209 234.08 14.0018 235.122 13.3666C236.231 12.7047 237.504 12.3685 238.795 12.3966C240.059 12.3662 241.308 12.6709 242.415 13.2798C243.419 13.852 244.237 14.7015 244.771 15.7265C245.331 16.8072 245.615 18.0096 245.596 19.2266C245.601 19.5641 245.582 19.9016 245.539 20.2364H234.137C234.179 21.6115 234.712 22.9264 235.639 23.9428C236.073 24.4133 236.602 24.7858 237.191 25.0352C237.781 25.2849 238.416 25.4061 239.056 25.3906C240.072 25.4423 241.08 25.1904 241.952 24.6667C242.691 24.1723 243.21 23.4107 243.399 22.5421H245.741C245.638 23.2547 245.392 23.9395 245.019 24.5556C244.646 25.1716 244.153 25.7069 243.57 26.129C242.256 27.0498 240.678 27.5174 239.074 27.4609C237.753 27.4845 236.453 27.1276 235.328 26.433C234.251 25.7562 233.376 24.8024 232.794 23.6713C232.182 22.4925 231.868 21.1811 231.882 19.8527C231.849 18.5269 232.131 17.212 232.704 16.0161ZM243.222 18.4013C243.18 17.289 242.708 16.2365 241.905 15.4659C241.048 14.7146 239.933 14.3253 238.795 14.3801C237.688 14.3361 236.603 14.7079 235.755 15.4225C234.918 16.2066 234.386 17.262 234.253 18.4013H243.222Z" fill="#ABB0BC"/>
<path d="M247.464 25.1587L256.513 14.6877H247.877V12.6318H259.191V14.6877L250.222 25.1587H259.593V27.2146H247.464V25.1587Z" fill="#ABB0BC"/>
<path d="M33.2993 7.87954L20.993 0.770877C20.1116 0.265742 19.1133 0 18.0974 0C17.0815 0 16.0833 0.265742 15.2018 0.770877L2.89559 7.87954C2.01504 8.38794 1.28383 9.11918 0.775547 9.9998C0.267263 10.8804 -0.000217037 11.8794 1.32135e-07 12.8961V27.1425C0.00734768 28.152 0.278447 29.1419 0.786333 30.0142C1.29426 30.8865 2.02137 31.6108 2.89559 32.1157L15.2018 39.2243C16.0822 39.7325 17.0809 40 18.0974 40C19.114 40 20.1126 39.7325 20.993 39.2243L33.2993 32.1157C34.1799 31.6071 34.911 30.876 35.4192 29.9954C35.9277 29.1148 36.1952 28.1158 36.1948 27.0991V12.8527C36.1876 11.8433 35.9165 10.8533 35.4083 9.98098C34.9005 9.10865 34.1734 8.38421 33.2993 7.87954ZM2.89559 12.8961C2.89483 12.3871 3.02828 11.8869 3.28244 11.4459C3.53663 11.0049 3.90256 10.6387 4.34338 10.3842L16.6496 3.2828C17.0892 3.02687 17.5888 2.89204 18.0974 2.89204C18.6061 2.89204 19.1056 3.02687 19.5452 3.2828L31.8515 10.3842C32.2858 10.635 32.6477 10.9944 32.9015 11.4271C33.1556 11.8598 33.2924 12.3511 33.2993 12.8527V14.3005C33.2953 15.4275 32.8454 16.5072 32.048 17.3035C31.2503 18.0998 30.1698 18.5479 29.0427 18.5498H7.1521C5.61769 18.5461 4.12375 19.0416 2.89559 19.9614V12.8961ZM33.2993 27.0991C33.3 27.608 33.1664 28.1082 32.9123 28.549C32.6582 28.9903 32.2923 29.3565 31.8515 29.611L19.5452 36.7124C19.105 36.9665 18.6057 37.1004 18.0974 37.1004C17.5891 37.1004 17.0898 36.9665 16.6496 36.7124L4.34338 29.611C3.9089 29.3602 3.54702 29.0008 3.29322 28.5679C3.03942 28.1353 2.90239 27.6442 2.89559 27.1425V25.6947C2.89942 24.5676 3.34932 23.4879 4.14695 22.6916C4.94458 21.8953 6.02503 21.4473 7.1521 21.4454H29.0427C30.577 21.4491 32.0712 20.9536 33.2993 20.0338V27.0991Z" fill="#ABB0BC"/>
<path d="M11.3652 12.1724H14.1739V16.3783H17.0695V12.1724C17.0695 11.4045 16.7644 10.668 16.2214 10.1249C15.6784 9.58191 14.9419 9.27686 14.1739 9.27686H11.3652C10.5972 9.27686 9.86075 9.58191 9.31772 10.1249C8.77469 10.668 8.4696 11.4045 8.4696 12.1724V16.3783H11.3652V12.1724Z" fill="#ABB0BC"/>
<path d="M14.1739 27.823H11.3652V23.6172H8.4696V27.823C8.4696 28.5911 8.77469 29.3276 9.31772 29.8706C9.86075 30.4135 10.5972 30.7186 11.3652 30.7186H14.1739C14.9419 30.7186 15.6784 30.4135 16.2214 29.8706C16.7644 29.3276 17.0695 28.5911 17.0695 27.823V23.6172H14.1739V27.823Z" fill="#ABB0BC"/>
<path d="M22.7738 12.1724H25.5898V16.3783H28.4853V12.1724C28.4853 11.4045 28.1802 10.668 27.6373 10.1249C27.094 9.58191 26.3578 9.27686 25.5898 9.27686H22.7738C22.0058 9.27686 21.2693 9.58191 20.7263 10.1249C20.1833 10.668 19.8782 11.4045 19.8782 12.1724V16.3783H22.7738V12.1724Z" fill="#ABB0BC"/>
<path d="M25.5898 27.823H22.7738V23.6172H19.8782V27.823C19.8782 28.5911 20.1833 29.3276 20.7263 29.8706C21.2693 30.4135 22.0058 30.7186 22.7738 30.7186H25.5898C26.3578 30.7186 27.094 30.4135 27.6373 29.8706C28.1802 29.3276 28.4853 28.5911 28.4853 27.823V23.6172H25.5898V27.823Z" fill="#ABB0BC"/>
</svg>
