<svg width="185" height="48" viewBox="0 0 185 48" fill="none" xmlns="http://www.w3.org/2000/svg">
<path fill-rule="evenodd" clip-rule="evenodd" d="M35.0903 10.32C38.3805 10.6033 41.4587 12.0696 43.7606 14.45C46.0625 16.8304 47.4336 19.9654 47.6226 23.28C47.5039 18.9109 46.0007 14.6939 43.3321 11.2436C40.6634 7.79329 36.9687 5.28981 32.7862 4.09792C28.6037 2.90602 24.1519 3.08797 20.0794 4.61726C16.0069 6.14655 12.5265 8.94328 10.1452 12.6C10.4269 9.29209 11.8853 6.19717 14.253 3.88286C16.6206 1.56854 19.7387 0.189983 23.0355 0C18.7305 0.196419 14.5962 1.74992 11.2183 4.44038C7.84043 7.13085 5.39033 10.8218 4.21517 14.9903C3.04 19.1588 3.19938 23.5934 4.67071 27.6658C6.14204 31.7381 8.85071 35.2417 12.4129 37.68C9.14415 37.3695 6.09439 35.8913 3.81695 33.5134C1.53952 31.1356 0.185297 28.0158 0 24.72C0.106345 29.0755 1.58878 33.284 4.23264 36.7359C6.8765 40.1879 10.5446 42.7042 14.7057 43.9205C18.8668 45.1369 23.3049 44.99 27.3775 43.5013C31.4501 42.0126 34.9456 39.2593 37.3581 35.64C37.0496 38.8946 35.5919 41.9305 33.2492 44.1978C30.9065 46.4652 27.8336 47.814 24.5871 48C28.9228 47.8565 33.1003 46.3279 36.5134 43.6358C39.9265 40.9437 42.3976 37.2283 43.5683 33.0286C44.7389 28.8289 44.5482 24.3634 43.0237 20.2801C41.4993 16.1967 38.7204 12.708 35.0903 10.32ZM23.7516 32.64C22.6392 32.647 21.5368 32.4273 20.5112 31.9942C19.4855 31.5611 18.5577 30.9235 17.7839 30.12C16.4028 28.7201 15.5474 26.8819 15.3636 24.9188C15.1798 22.9557 15.6789 20.9893 16.7758 19.3548C17.8727 17.7203 19.4995 16.5189 21.3789 15.9554C23.2582 15.392 25.2738 15.5013 27.082 16.2649C28.8901 17.0284 30.3789 18.3988 31.2945 20.1425C32.2101 21.8862 32.4958 23.8952 32.1029 25.827C31.71 27.7588 30.6629 29.4937 29.14 30.7361C27.6171 31.9785 25.7127 32.6514 23.7516 32.64ZM67.4355 21V29.88C67.4355 31.44 68.0323 31.8 69.5839 31.8C70.3163 31.8192 71.0456 31.697 71.7323 31.44V34.92C70.8248 35.3037 69.8521 35.5075 68.8677 35.52C65.2871 35.52 63.1387 33.24 63.1387 29.52V21H60.1548V17.28H63.1387V11.88H67.4355V17.28H71.7323V21H67.4355ZM91.9032 26.28C91.9032 32.28 88.9194 35.52 83.5484 35.52C78.1774 35.52 75.0742 32.28 75.0742 26.28C75.0742 20.28 78.0581 17.04 83.5484 17.04C89.0387 17.04 91.9032 20.28 91.9032 26.28ZM87.6065 26.28C87.6065 21.48 86.0548 20.52 83.5484 20.52C81.0419 20.52 79.371 21.48 79.371 26.28C79.371 31.08 80.9226 31.92 83.5484 31.92C86.1742 31.92 87.6065 30.96 87.6065 26.28ZM105.032 16.92V20.76C103.498 20.7035 101.965 20.9063 100.497 21.36V35.28H96.2V18.84C98.9991 17.6515 101.995 17.0003 105.032 16.92ZM125.203 24.48V35.28H120.906V24.12C120.906 22.44 120.668 20.76 116.729 20.76C115.605 20.7477 114.483 20.8685 113.387 21.12V35.28H109.09V18.96C111.633 17.6266 114.458 16.927 117.326 16.92C122.219 16.92 125.203 19.8 125.203 24.48ZM144.539 24.6V29.52C144.539 32.4 142.629 35.52 137.019 35.52C131.41 35.52 129.381 32.4 129.381 29.4C129.381 26.4 129.977 23.76 137.139 23.76C138.179 23.716 139.221 23.7966 140.242 24C140.242 21.96 139.287 20.52 136.423 20.52C134.626 20.4818 132.84 20.8083 131.171 21.48V18C132.917 17.2952 134.78 16.9287 136.661 16.92C141.794 16.92 144.539 19.68 144.539 24.6ZM140.242 26.64H137.735C134.752 26.64 133.677 27.48 133.677 28.92C133.677 30.36 134.752 31.8 137.019 31.8C139.287 31.8 140.242 30.72 140.242 29.04V26.64ZM156.832 16.92L159.816 17.28V10.44H164.113V29.52C164.113 32.4 162.084 35.52 156.474 35.52C154.087 35.52 148.477 34.56 148.477 26.04C148.477 20.16 151.461 16.92 156.832 16.92ZM156.474 31.8C158.384 31.8 159.816 31.32 159.816 29.88V20.64L156.952 20.4C154.445 20.4 152.774 21.6 152.774 25.8C152.774 30 153.729 31.8 156.474 31.8ZM185 26.28C185 32.28 182.016 35.52 176.526 35.52C171.035 35.52 168.052 32.28 168.052 26.28C168.052 20.28 171.035 17.04 176.526 17.04C182.016 17.04 185 20.28 185 26.28ZM180.703 26.28C180.703 21.48 179.032 20.52 176.526 20.52C174.019 20.52 172.348 21.48 172.348 26.28C172.348 31.08 174.019 31.92 176.526 31.92C179.032 31.92 180.703 30.96 180.703 26.28Z" fill="#ABB0BC"/>
</svg>
