<svg width="144" height="48" viewBox="0 0 144 48" fill="none" xmlns="http://www.w3.org/2000/svg">
<g clip-path="url(#clip0_94_630)">
<path d="M0.0767348 37.3398V35.5373L14.6122 13.3057H3.05176e-05V11.158H17.4631V12.9606L2.9148 35.1921H17.5909V37.3398H0.0767348Z" fill="#ABB0BC"/>
<path d="M24.7342 37.3398V11.158H27.1248V25.2589H27.3549L40.139 11.158H43.2839L32.0978 23.2645L43.2327 37.3398H40.318L30.6148 24.9265L27.1248 28.8384V37.3398H24.7342Z" fill="#ABB0BC"/>
<path d="M69.3284 24.2489C69.3284 26.9762 68.8426 29.3498 67.871 31.3697C66.8994 33.381 65.5613 34.9407 63.8568 36.0486C62.1607 37.1481 60.209 37.6978 58.0017 37.6978C55.7943 37.6978 53.8383 37.1481 52.1338 36.0486C50.4377 34.9407 49.1039 33.381 48.1323 31.3697C47.1693 29.3498 46.6877 26.9762 46.6877 24.2489C46.6877 21.5216 47.1693 19.1523 48.1323 17.141C49.1039 15.1211 50.442 13.5614 52.1465 12.462C53.8511 11.354 55.8028 10.8 58.0017 10.8C60.209 10.8 62.1607 11.354 63.8568 12.462C65.5613 13.5614 66.8994 15.1211 67.871 17.141C68.8426 19.1523 69.3284 21.5216 69.3284 24.2489ZM67.0017 24.2489C67.0017 21.9052 66.6096 19.8981 65.8255 18.2276C65.0414 16.5486 63.9718 15.266 62.6167 14.3796C61.2616 13.4932 59.7232 13.05 58.0017 13.05C56.2886 13.05 54.7545 13.4932 53.3994 14.3796C52.0443 15.266 50.9704 16.5444 50.1778 18.2148C49.3937 19.8853 49.0017 21.8966 49.0017 24.2489C49.0017 26.5927 49.3937 28.5998 50.1778 30.2702C50.9619 31.9407 52.0315 33.2233 53.3866 34.1182C54.7417 35.0046 56.2801 35.4478 58.0017 35.4478C59.7232 35.4478 61.2616 35.0046 62.6167 34.1182C63.9803 33.2319 65.0542 31.9535 65.8383 30.283C66.6224 28.604 67.0102 26.5927 67.0017 24.2489Z" fill="#ABB0BC"/>
<path d="M76.478 37.3398V11.158H84.9283C86.7862 11.158 88.3373 11.516 89.5817 12.2319C90.8345 12.9393 91.7763 13.9023 92.4069 15.1211C93.0462 16.3398 93.3658 17.712 93.3658 19.2375C93.3658 20.7631 93.0504 22.1395 92.4197 23.3668C91.789 24.5856 90.8515 25.5529 89.6072 26.2688C88.3629 26.9762 86.816 27.3299 84.9666 27.3299H78.3189V25.1822H84.9027C86.2748 25.1822 87.4126 24.9265 88.316 24.4151C89.2194 23.8952 89.8927 23.1878 90.3359 22.2929C90.7876 21.3981 91.0135 20.3796 91.0135 19.2375C91.0135 18.0955 90.7876 17.077 90.3359 16.1822C89.8927 15.2873 89.2152 14.5841 88.3033 14.0728C87.3998 13.5614 86.2535 13.3057 84.8643 13.3057H78.8686V37.3398H76.478Z" fill="#ABB0BC"/>
<path d="M100.346 37.3398V11.158H108.796C110.654 11.158 112.205 11.4947 113.45 12.1679C114.703 12.8327 115.644 13.7574 116.275 14.9421C116.914 16.1182 117.234 17.4691 117.234 18.9947C117.234 20.5202 116.914 21.8668 116.275 23.0344C115.644 24.202 114.707 25.114 113.462 25.7702C112.218 26.4265 110.676 26.7546 108.835 26.7546H101.637V24.5685H108.771C110.134 24.5685 111.268 24.3427 112.171 23.891C113.083 23.4393 113.761 22.7958 114.204 21.9606C114.656 21.1253 114.881 20.1367 114.881 18.9947C114.881 17.8526 114.656 16.8554 114.204 16.0032C113.752 15.1424 113.07 14.4776 112.158 14.0089C111.255 13.5401 110.113 13.3057 108.732 13.3057H102.737V37.3398H100.346ZM111.89 25.5273L118.333 37.3398H115.572L109.193 25.5273H111.89Z" fill="#ABB0BC"/>
<path d="M141.875 11.158H144.266V28.4932C144.266 30.2745 143.848 31.8682 143.013 33.2745C142.178 34.6722 141.014 35.7759 139.523 36.5856C138.04 37.3867 136.314 37.7873 134.345 37.7873C132.385 37.7873 130.659 37.3824 129.168 36.5728C127.676 35.7631 126.513 34.6594 125.678 33.2617C124.843 31.864 124.425 30.2745 124.425 28.4932V11.158H126.816V28.327C126.816 29.7162 127.127 30.9563 127.749 32.0472C128.371 33.1296 129.245 33.9819 130.37 34.604C131.503 35.2262 132.828 35.5373 134.345 35.5373C135.862 35.5373 137.188 35.2262 138.321 34.604C139.455 33.9819 140.328 33.1296 140.942 32.0472C141.564 30.9563 141.875 29.7162 141.875 28.327V11.158Z" fill="#ABB0BC"/>
</g>
<defs>
<clipPath id="clip0_94_630">
<rect width="144" height="48" fill="white"/>
</clipPath>
</defs>
</svg>
