<svg width="206" height="48" viewBox="0 0 206 48" fill="none" xmlns="http://www.w3.org/2000/svg">
<mask id="mask0_2_187" style="mask-type:alpha" maskUnits="userSpaceOnUse" x="0" y="0" width="206" height="48">
<rect width="206" height="48" fill="#C4C4C4"/>
</mask>
<g mask="url(#mask0_2_187)">
<g opacity="0.8">
<path d="M0 36.4513V12.4897H5.71561C7.11276 12.4897 8.28128 12.6176 9.22118 12.8736C10.1611 13.1296 10.9613 13.5008 11.6217 13.9872C12.2822 14.448 12.8792 15.0368 13.4126 15.7536C13.9461 16.4704 14.3779 17.2896 14.7082 18.2112C15.0638 19.1073 15.3305 20.0801 15.5083 21.1297C15.6862 22.1793 15.7751 23.3313 15.7751 24.5857C15.7243 26.4289 15.4829 28.0801 15.0511 29.5393C14.6447 30.9985 14.0223 32.2401 13.184 33.2641C12.3711 34.2881 11.3169 35.0817 10.0214 35.6449C8.72583 36.1825 7.13816 36.4513 5.25836 36.4513H0ZM3.08643 33.9169H5.14405C6.92224 33.9169 8.35749 33.5585 9.4498 32.8417C10.5421 32.0993 11.3423 31.0369 11.8504 29.6545C12.3838 28.2721 12.6378 26.6209 12.6124 24.7009C12.6124 22.7297 12.3711 21.0273 11.8885 19.5937C11.4312 18.1601 10.6945 17.0592 9.67843 16.2912C8.66232 15.5233 7.29057 15.1393 5.56319 15.1393H3.08643V33.9169Z" fill="white"/>
<path d="M25.0344 36.8353C23.0529 36.8353 21.5288 36.3873 20.4619 35.4913C19.395 34.5697 18.8615 33.3921 18.8615 31.9585C18.8615 31.0113 19.0774 30.1537 19.5093 29.3857C19.9665 28.5921 20.6016 27.9265 21.4145 27.3889C22.2274 26.8513 23.1927 26.4417 24.3104 26.1601C25.4281 25.8529 26.6601 25.6993 28.0065 25.6993C28.3621 25.6993 28.7304 25.6993 29.1115 25.6993C29.5179 25.6993 29.9371 25.7249 30.3689 25.7761C30.8262 25.8017 31.2834 25.84 31.7407 25.8912L31.855 28.3105C31.4485 28.2593 31.0294 28.2209 30.5975 28.1953C30.1657 28.1441 29.7339 28.1185 29.302 28.1185C28.8956 28.0929 28.5018 28.0801 28.1208 28.0801C27.1809 28.0801 26.3299 28.1569 25.5678 28.3105C24.8311 28.4641 24.2088 28.6945 23.7007 29.0017C23.1927 29.2833 22.7989 29.6544 22.5195 30.1152C22.2401 30.5505 22.1003 31.0625 22.1003 31.6513C22.1003 32.1633 22.1893 32.5857 22.3671 32.9185C22.5449 33.2513 22.7862 33.5201 23.091 33.7249C23.3959 33.9297 23.7515 34.0833 24.158 34.1856C24.5644 34.2625 25.009 34.3009 25.4916 34.3009C26.4061 34.3009 27.2063 34.1601 27.8922 33.8785C28.6034 33.5713 29.2004 33.1233 29.683 32.5345C30.1911 31.9457 30.5721 31.2289 30.8262 30.3841C31.0802 29.5137 31.2072 28.5025 31.2072 27.3505C31.2072 25.7121 31.0167 24.4321 30.6356 23.5105C30.28 22.5889 29.7339 21.9488 28.9972 21.5905C28.2605 21.2064 27.3333 21.0145 26.2156 21.0145C25.3773 21.0145 24.5644 21.168 23.7769 21.4752C23.0148 21.7568 22.2909 22.2433 21.605 22.9345L19.9284 20.8993C20.8175 20.0288 21.8209 19.3889 22.9386 18.9793C24.0564 18.5697 25.2122 18.3649 26.4061 18.3649C27.5492 18.3649 28.5907 18.5057 29.5306 18.7873C30.4705 19.0433 31.2834 19.4913 31.9693 20.1313C32.6806 20.7713 33.2267 21.6289 33.6078 22.7041C33.9888 23.7793 34.1793 25.136 34.1793 26.7744V36.4129H30.7119V33.9937C30.3816 34.5569 29.9879 35.0305 29.5306 35.4145C29.0988 35.7729 28.6288 36.0545 28.1208 36.2593C27.6381 36.4641 27.1301 36.6049 26.5966 36.6817C26.0632 36.7841 25.5424 36.8353 25.0344 36.8353Z" fill="white"/>
<path d="M40.3522 18.7488H43.7434L43.6672 23.8177L43.2481 23.3569C43.4005 22.5632 43.6545 21.8593 44.0102 21.2449C44.3912 20.6305 44.8358 20.1057 45.3438 19.6705C45.8773 19.2353 46.4615 18.9025 47.0966 18.6721C47.7317 18.4417 48.3921 18.3265 49.078 18.3265C50.0179 18.3265 50.8689 18.4928 51.631 18.8256C52.4185 19.1328 53.1297 19.6193 53.7648 20.2849L52.355 22.9345L52.2025 23.2801L51.9358 23.1265C51.8596 22.9217 51.7707 22.7296 51.6691 22.5504C51.5929 22.3456 51.3897 22.1153 51.0594 21.8593C50.6784 21.5777 50.31 21.3856 49.9544 21.2832C49.5988 21.1808 49.1923 21.1297 48.7351 21.1297C48.1254 21.1297 47.5157 21.2448 46.9061 21.4752C46.2964 21.7056 45.7376 22.064 45.2295 22.5504C44.7468 23.0368 44.3658 23.6641 44.0864 24.432C43.8069 25.1744 43.6672 26.0577 43.6672 27.0816V36.4513H40.3522V18.7488Z" fill="white"/>
<path d="M62.9098 27.8497L60.8903 29.7697V36.4129H57.5752V10.8H60.8522H61.2332V11.1072C61.0808 11.2608 60.9792 11.4272 60.9284 11.6064C60.903 11.7856 60.8903 12.0928 60.8903 12.528V26.2753L68.9683 18.6721C69.1461 18.6977 69.324 18.7232 69.5018 18.7488C69.6796 18.7744 69.8574 18.8 70.0352 18.8256C70.2385 18.8256 70.4417 18.8385 70.6449 18.8641C70.8481 18.8641 71.0259 18.8641 71.1784 18.8641H72.5501L65.3103 25.8145L73.6551 36.4129L69.6542 36.5665L62.9098 27.8497Z" fill="white"/>
<path d="M96.1746 36.4129V12.4513H110.235V15.1776H99.2229V22.1281H108.101V24.8545H99.2229V36.4129H96.1746Z" fill="white"/>
<path d="M121.933 36.7585C120.358 36.7585 118.948 36.3745 117.703 35.6065C116.484 34.8129 115.519 33.7249 114.807 32.3425C114.096 30.9601 113.741 29.3729 113.741 27.5809C113.741 25.7889 114.096 24.2017 114.807 22.8193C115.519 21.4369 116.484 20.3489 117.703 19.5553C118.948 18.7617 120.358 18.3649 121.933 18.3649C123.508 18.3649 124.905 18.7617 126.124 19.5553C127.369 20.3489 128.347 21.4369 129.058 22.8193C129.77 24.2017 130.125 25.7889 130.125 27.5809C130.125 29.3729 129.77 30.9601 129.058 32.3425C128.347 33.7249 127.369 34.8129 126.124 35.6065C124.905 36.3745 123.508 36.7585 121.933 36.7585ZM121.933 34.0705C122.873 34.0705 123.698 33.7889 124.41 33.2257C125.121 32.6625 125.68 31.8945 126.086 30.9217C126.518 29.9489 126.734 28.8225 126.734 27.5425C126.734 26.2625 126.518 25.1361 126.086 24.1633C125.68 23.1905 125.121 22.4353 124.41 21.8977C123.698 21.3345 122.873 21.0529 121.933 21.0529C121.018 21.0529 120.193 21.3345 119.456 21.8977C118.745 22.4353 118.173 23.1905 117.741 24.1633C117.335 25.1361 117.132 26.2625 117.132 27.5425C117.132 28.8225 117.335 29.9489 117.741 30.9217C118.148 31.8945 118.707 32.6625 119.418 33.2257C120.155 33.7889 120.993 34.0705 121.933 34.0705Z" fill="white"/>
<path d="M135.612 18.7488H139.004L138.927 23.8177L138.508 23.3569C138.661 22.5632 138.915 21.8593 139.27 21.2449C139.651 20.6305 140.096 20.1057 140.604 19.6705C141.137 19.2353 141.722 18.9025 142.357 18.6721C142.992 18.4417 143.652 18.3265 144.338 18.3265C145.278 18.3265 146.129 18.4928 146.891 18.8256C147.679 19.1328 148.39 19.6193 149.025 20.2849L147.615 22.9345L147.463 23.2801L147.196 23.1265C147.12 22.9217 147.031 22.7296 146.929 22.5504C146.853 22.3456 146.65 22.1153 146.32 21.8593C145.938 21.5777 145.57 21.3856 145.215 21.2832C144.859 21.1808 144.452 21.1297 143.995 21.1297C143.386 21.1297 142.776 21.2448 142.166 21.4752C141.557 21.7056 140.998 22.064 140.49 22.5504C140.007 23.0368 139.626 23.6641 139.346 24.432C139.067 25.1744 138.927 26.0577 138.927 27.0816V36.4513H135.612V18.7488Z" fill="white"/>
<path d="M160.875 36.7969C159.605 36.7969 158.437 36.6049 157.37 36.2209C156.328 35.8113 155.414 35.2225 154.626 34.4545C153.864 33.6865 153.28 32.7265 152.873 31.5745C152.467 30.4225 152.264 29.1168 152.264 27.6576C152.264 26.1728 152.467 24.8545 152.873 23.7025C153.305 22.5505 153.89 21.5777 154.626 20.7841C155.363 19.9905 156.227 19.3889 157.217 18.9793C158.208 18.5441 159.262 18.3265 160.38 18.3265C161.371 18.3265 162.311 18.5057 163.2 18.8641C164.089 19.1968 164.851 19.7088 165.486 20.4C166.146 21.0912 166.667 21.9744 167.048 23.0496C167.429 24.0992 167.62 25.3408 167.62 26.7744C167.62 27.0049 167.607 27.2609 167.582 27.5425C167.582 27.7985 167.569 28.0289 167.543 28.2337H155.388C155.439 29.2833 155.617 30.1921 155.922 30.9601C156.252 31.7025 156.671 32.3169 157.179 32.8033C157.687 33.2641 158.259 33.6096 158.894 33.84C159.554 34.0704 160.253 34.1856 160.99 34.1856C161.574 34.1856 162.12 34.1217 162.628 33.9937C163.161 33.8657 163.657 33.6609 164.114 33.3793C164.571 33.0977 164.99 32.7521 165.372 32.3425L167.124 34.0321C166.616 34.6465 166.032 35.1713 165.372 35.6065C164.736 36.0161 164.038 36.3105 163.276 36.4897C162.539 36.6945 161.739 36.7969 160.875 36.7969ZM155.503 25.7377H164.381C164.381 24.9697 164.279 24.2913 164.076 23.7025C163.873 23.1137 163.593 22.6017 163.238 22.1664C162.882 21.7312 162.438 21.4113 161.904 21.2065C161.396 20.9761 160.824 20.8609 160.189 20.8609C159.605 20.8609 159.059 20.9633 158.551 21.1681C158.043 21.3473 157.573 21.6417 157.141 22.0513C156.735 22.4609 156.379 22.9729 156.074 23.5873C155.795 24.1761 155.604 24.8929 155.503 25.7377Z" fill="white"/>
<path d="M179.241 36.7969C178.225 36.7969 177.26 36.6945 176.346 36.4897C175.431 36.3105 174.58 36.0161 173.793 35.6065C173.005 35.1713 172.268 34.6465 171.582 34.0321L173.221 31.1137L173.45 30.7681L173.678 30.9217C173.754 31.1265 173.818 31.3441 173.869 31.5745C173.945 31.7793 174.123 32.0353 174.402 32.3425C174.986 32.8801 175.66 33.3153 176.422 33.6481C177.184 33.9809 178.149 34.1473 179.318 34.1473C180.181 34.1473 180.905 34.0449 181.49 33.84C182.099 33.6096 182.556 33.3153 182.861 32.9569C183.192 32.5729 183.357 32.1249 183.357 31.6129C183.357 31.2545 183.28 30.9473 183.128 30.6913C182.976 30.4097 182.734 30.1537 182.404 29.9233C182.074 29.6929 181.629 29.4625 181.07 29.232C180.512 28.976 179.838 28.7329 179.051 28.5025C177.755 28.1185 176.612 27.6833 175.622 27.1969C174.656 26.6849 173.907 26.0833 173.373 25.3921C172.84 24.7009 172.573 23.9073 172.573 23.0113C172.573 22.0641 172.827 21.2449 173.335 20.5537C173.869 19.8625 174.618 19.3248 175.583 18.9408C176.574 18.5312 177.768 18.3265 179.165 18.3265C179.953 18.3265 180.677 18.3905 181.337 18.5185C181.998 18.6209 182.607 18.7873 183.166 19.0177C183.75 19.2481 184.284 19.5424 184.766 19.9009C185.275 20.2337 185.744 20.6304 186.176 21.0912L184.424 23.3569L184.157 23.6641L183.966 23.4721C183.941 23.2673 183.877 23.0753 183.776 22.8961C183.7 22.6913 183.509 22.448 183.204 22.1664C182.645 21.7312 182.01 21.3985 181.299 21.1681C180.613 20.9377 179.927 20.8225 179.241 20.8225C178.276 20.8225 177.438 20.9889 176.727 21.3217C176.041 21.6545 175.698 22.1664 175.698 22.8576C175.698 23.2416 175.837 23.6 176.117 23.9328C176.396 24.2656 176.879 24.5985 177.565 24.9313C178.251 25.2641 179.216 25.5969 180.461 25.9297C181.883 26.3649 183.039 26.8257 183.928 27.3121C184.817 27.7985 185.465 28.3617 185.872 29.0017C186.278 29.6417 186.481 30.3969 186.481 31.2673C186.481 32.2401 186.214 33.1617 185.681 34.0321C185.148 34.8769 184.335 35.5553 183.242 36.0673C182.175 36.5537 180.842 36.7969 179.241 36.7969Z" fill="white"/>
<path d="M200.008 36.7201C198.916 36.7201 198.001 36.5409 197.265 36.1825C196.553 35.7985 195.982 35.2225 195.55 34.4545C195.143 33.6609 194.864 32.6497 194.712 31.4209C194.585 30.1921 194.547 28.7073 194.597 26.9665L195.055 14.3713L198.446 13.9488L198.827 13.9105L198.865 14.1792C198.738 14.3584 198.624 14.5377 198.522 14.7169C198.446 14.8961 198.382 15.2033 198.332 15.6385L197.989 20.3232L198.103 20.8609L197.836 27.0816C197.76 28.9249 197.811 30.3584 197.989 31.3825C198.166 32.3808 198.471 33.0721 198.903 33.4561C199.36 33.8401 199.932 34.0321 200.618 34.0321C201.456 34.0321 202.193 33.8657 202.828 33.5329C203.488 33.2001 204.149 32.7905 204.809 32.3041L205.648 34.8001C204.784 35.4401 203.882 35.9265 202.942 36.2593C202.028 36.5665 201.05 36.7201 200.008 36.7201ZM191.13 18.7488H204.047V21.3984H191.13V18.7488Z" fill="white"/>
</g>
</g>
</svg>
