<svg width="187" height="48" viewBox="0 0 187 48" fill="none" xmlns="http://www.w3.org/2000/svg">
<mask id="mask0_2_166" style="mask-type:alpha" maskUnits="userSpaceOnUse" x="55" y="11" width="22" height="27">
<path d="M55.1554 11.1467H76.8269V37.6688H55.1554V11.1467Z" fill="white"/>
</mask>
<g mask="url(#mask0_2_166)">
<path d="M60.6213 36.8926V27.5331C60.6213 27.1045 60.9699 26.7569 61.3999 26.7569H70.5836C71.0136 26.7569 71.3622 27.1045 71.3622 27.5331V36.8926C71.3622 37.3212 71.7107 37.6688 72.1408 37.6688H76.0488C76.4789 37.6688 76.8274 37.3212 76.8274 36.8926V11.923C76.8274 11.4944 76.4789 11.1467 76.0488 11.1467H72.1408C71.7107 11.1467 71.3622 11.4944 71.3622 11.923V20.9035C71.3622 21.3323 71.0136 21.6798 70.5836 21.6798H61.3999C60.9699 21.6798 60.6213 21.3323 60.6213 20.9035V11.923C60.6213 11.4944 60.2726 11.1467 59.8427 11.1467H55.9345C55.5046 11.1467 55.1559 11.4944 55.1559 11.923V36.8926C55.1559 37.3212 55.5046 37.6688 55.9345 37.6688H59.8427C60.2726 37.6688 60.6213 37.3212 60.6213 36.8926Z" fill="#ABB0BC"/>
</g>
<path d="M97.9424 33.0116C97.9424 33.0144 97.941 33.0171 97.9383 33.0185H97.9451C97.9546 33.0033 97.9614 32.9884 97.9654 32.9734C97.96 32.9869 97.9519 32.9993 97.9424 33.0116Z" fill="#ABB0BC"/>
<path d="M85.3305 25.5075C85.1606 25.5075 85.0348 25.347 85.0784 25.1835C85.5966 23.2391 87.2007 21.7555 89.698 21.7555C92.4972 21.7555 93.8161 23.8259 94.0515 25.2032C94.0787 25.3622 93.9571 25.5075 93.7953 25.5075H85.3305ZM89.6928 17.4887C84.3437 17.3749 79.8303 21.8125 79.9445 27.5788C79.9445 33.5339 84.4203 37.6688 89.7304 37.6688C93.8208 37.6688 96.5407 35.8614 97.9448 33.0113H97.9383C97.9409 33.01 97.9422 33.0074 97.9422 33.0048C97.9513 32.9932 97.9591 32.9815 97.9643 32.9686C97.9695 32.9608 97.9734 32.953 97.9773 32.9453C97.9864 32.9298 97.9928 32.9142 97.9993 32.8987C98.0032 32.8935 98.0058 32.8871 98.0084 32.8793C98.0448 32.79 98.0642 32.693 98.0642 32.5908C98.0642 32.2234 97.8073 31.9142 97.4621 31.8352H97.4608V31.8314L94.5163 30.9581L94.4761 30.9464H94.4748C94.4086 30.927 94.3398 30.918 94.2685 30.918C93.9713 30.918 93.7117 31.0849 93.5807 31.3294H93.5781C92.9279 32.367 91.6302 33.2687 89.7304 33.2687C87.3135 33.2687 85.4789 31.5527 85.0779 29.5568C85.0457 29.3969 85.1702 29.2477 85.3336 29.2477H97.9799C98.4099 29.2477 98.7585 28.9002 98.7585 28.4715V27.4274C98.7585 21.5848 95.269 17.4887 89.6928 17.4887Z" fill="#ABB0BC"/>
<path d="M97.46 31.8369L97.4612 31.8408H97.46V31.8369Z" fill="#ABB0BC"/>
<path d="M97.9497 33.018H97.9417C97.9449 33.0164 97.9465 33.0132 97.9465 33.01L97.9497 33.018Z" fill="#ABB0BC"/>
<path d="M167.237 33.0183H167.244C167.253 33.0046 167.258 32.991 167.262 32.9773C167.254 32.991 167.246 33.0046 167.237 33.0183Z" fill="#ABB0BC"/>
<path d="M167.262 32.9773C167.258 32.991 167.253 33.0046 167.243 33.0183H167.237C167.246 33.0046 167.254 32.991 167.262 32.9773Z" fill="#ABB0BC"/>
<path d="M154.627 25.5075C154.457 25.5075 154.331 25.347 154.375 25.1835C154.893 23.2391 156.497 21.7555 158.995 21.7555C161.794 21.7555 163.113 23.8259 163.348 25.2032C163.375 25.3622 163.254 25.5075 163.092 25.5075H154.627ZM158.989 17.4887C153.64 17.3749 149.127 21.8125 149.241 27.5788C149.241 33.5339 153.717 37.6688 159.027 37.6688C163.118 37.6688 165.838 35.8614 167.242 33.0113H167.235C167.244 32.9983 167.252 32.9854 167.26 32.9725C167.261 32.9712 167.261 32.9699 167.261 32.9686C167.266 32.9608 167.27 32.953 167.274 32.9453C167.286 32.9246 167.296 32.9026 167.305 32.8793C167.342 32.79 167.361 32.693 167.361 32.5908C167.361 32.2221 167.103 31.9142 166.758 31.8352V31.8314L163.813 30.9581C163.799 30.9542 163.786 30.949 163.773 30.9464C163.769 30.9451 163.764 30.9438 163.76 30.9425C163.697 30.927 163.633 30.918 163.565 30.918C163.268 30.918 163.009 31.0849 162.877 31.3294H162.875C162.225 32.367 160.927 33.2687 159.027 33.2687C156.61 33.2687 154.776 31.5527 154.375 29.5568C154.343 29.3969 154.467 29.2477 154.63 29.2477H167.277C167.707 29.2477 168.055 28.9002 168.055 28.4715V27.4274C168.055 21.5848 164.566 17.4887 158.989 17.4887Z" fill="#ABB0BC"/>
<path d="M113.624 22.4075H113.626L113.62 22.42C113.622 22.4158 113.623 22.4117 113.624 22.4075Z" fill="#ABB0BC"/>
<path d="M114.534 18.0069C114.519 18.0001 114.504 17.9946 114.489 17.9905V17.9878C114.504 17.9933 114.519 18.0001 114.534 18.0069Z" fill="#ABB0BC"/>
<path d="M113.626 22.4075L113.62 22.42C113.622 22.4158 113.623 22.4117 113.624 22.4075H113.626Z" fill="#ABB0BC"/>
<path d="M114.534 18.0069C114.519 18.0001 114.504 17.9946 114.489 17.9905V17.9878C114.504 17.9933 114.519 18.0001 114.534 18.0069Z" fill="#ABB0BC"/>
<path d="M115.03 18.7255C115.03 18.8264 115.01 18.9235 114.975 19.0127H114.974C114.973 19.0179 114.97 19.0244 114.968 19.0308L113.626 22.4024H113.625C113.623 22.4063 113.622 22.4101 113.621 22.414C113.618 22.4218 113.615 22.4283 113.612 22.436C113.609 22.4464 113.604 22.4567 113.6 22.4684C113.479 22.7413 113.204 22.9328 112.886 22.9328C112.802 22.9328 112.721 22.9199 112.645 22.894V22.8966C112.217 22.7271 111.699 22.6482 111.1 22.6482C110.01 22.6482 109.086 23.0467 108.434 23.7983C107.781 24.55 107.402 25.6562 107.402 27.0729V36.8149C107.402 37.2436 107.053 37.5911 106.623 37.5911H102.652C102.223 37.5911 101.874 37.2436 101.874 36.8149V18.8057C101.874 18.377 102.223 18.0295 102.652 18.0295H105.854C106.177 18.0295 106.466 18.2287 106.581 18.5289L107.025 19.6896C107.099 19.8816 107.358 19.9163 107.477 19.7486C108.407 18.4424 109.907 17.4861 111.918 17.4861C112.871 17.4861 113.737 17.6569 114.487 17.9829V17.9855C114.502 17.9894 114.516 17.9945 114.53 18.001C114.533 18.001 114.535 18.0023 114.538 18.0036C114.554 18.0114 114.568 18.0178 114.584 18.0243C114.6 18.0321 114.617 18.0411 114.634 18.0502C114.637 18.0515 114.641 18.0528 114.643 18.0553C114.874 18.1899 115.03 18.4396 115.03 18.7255Z" fill="#ABB0BC"/>
<path d="M123.103 36.8149V26.5295C123.103 23.9289 124.31 22.6094 126.217 22.6094C128.086 22.6094 129.098 23.7738 129.098 26.1413V36.8149C129.098 37.2435 129.447 37.5911 129.877 37.5911H133.848C134.278 37.5911 134.627 37.2435 134.627 36.8149V26.5295C134.627 23.9289 135.833 22.6094 137.741 22.6094C139.649 22.6094 140.583 23.7738 140.583 26.1413V36.8149C140.583 37.2435 140.932 37.5911 141.362 37.5911H145.333C145.763 37.5911 146.111 37.2435 146.111 36.8149V24.7829C146.111 19.8149 143.775 17.4861 139.843 17.4861C137.316 17.4861 135.34 18.5511 134.078 19.97C133.963 20.099 133.758 20.0805 133.666 19.9349C132.636 18.3132 130.984 17.4861 128.709 17.4861C126.308 17.4861 124.304 18.538 123.15 19.8252C123.019 19.9702 122.781 19.9224 122.715 19.7396L122.277 18.5404C122.165 18.2336 121.873 18.0295 121.545 18.0295H118.353C117.923 18.0295 117.575 18.377 117.575 18.8057V36.8149C117.575 37.2435 117.923 37.5911 118.353 37.5911H122.324C122.754 37.5911 123.103 37.2435 123.103 36.8149Z" fill="#ABB0BC"/>
<path d="M187 36.789V33.6963C187 33.2675 186.651 32.92 186.221 32.92H178.092C177.999 32.92 177.909 32.8765 177.862 32.7975C177.803 32.6981 177.815 32.581 177.881 32.4993L186.628 21.6401C186.739 21.5022 186.8 21.3307 186.8 21.154V18.1588C186.8 17.7301 186.451 17.3826 186.021 17.3826H171.708C171.278 17.3826 170.93 17.7301 170.93 18.1588V21.2516C170.93 21.6802 171.278 22.0278 171.708 22.0278H179.356C179.448 22.0278 179.538 22.0714 179.585 22.1503C179.645 22.25 179.632 22.3672 179.566 22.4489L170.85 33.2319C170.72 33.3929 170.649 33.5934 170.649 33.8V36.789C170.649 37.2176 170.998 37.5652 171.428 37.5652H186.221C186.651 37.5652 187 37.2176 187 36.789Z" fill="#ABB0BC"/>
<path fill-rule="evenodd" clip-rule="evenodd" d="M17.9865 47.1577C18.92 47.7103 19.9785 48.0009 21.0559 48C22.1333 48.0009 23.1918 47.7103 24.1252 47.1577L39.0425 38.3097C39.9744 37.7549 40.7485 36.9583 41.2871 36C41.8256 35.0416 42.1101 33.9549 42.1118 32.8481V15.1521C42.1101 14.0454 41.8256 12.9586 41.2871 12.0003C40.7485 11.0419 39.9744 10.2454 39.0425 9.69053L36.1903 7.99886L36.2263 7.93478C35.3125 7.39275 34.2993 7.05087 33.2507 6.93068C32.202 6.81048 31.1405 6.91456 30.1328 7.23637C29.1252 7.55817 28.1933 8.09074 27.3958 8.80057C26.5982 9.51045 25.9524 10.3822 25.4987 11.3609L14.3587 35.3953C14.072 36.014 13.6638 36.565 13.1598 37.0137C12.6558 37.4623 12.0668 37.7989 11.43 38.0024C10.7931 38.2057 10.1222 38.2715 9.45941 38.1956C8.79651 38.1197 8.1563 37.9035 7.57866 37.561L7.29271 37.3912L7.25663 37.4555L4.47624 35.8063C3.97144 35.5058 3.55224 35.0744 3.2605 34.5553C2.96878 34.0362 2.81473 33.4475 2.81378 32.8481V15.1521C2.81473 14.5527 2.96878 13.964 3.2605 13.4449C3.55224 12.9259 3.97144 12.4945 4.47624 12.1939L19.3934 3.34584C19.8989 3.04648 20.4722 2.88912 21.0558 2.88957C21.6393 2.88909 22.2127 3.04646 22.7183 3.34584L26.8884 5.81933C27.653 5.3204 28.4803 4.92618 29.3496 4.64859C29.6189 4.56257 29.8912 4.48811 30.1655 4.42529L24.1252 0.842521C23.1915 0.290521 22.1332 0 21.0558 0C19.9785 0 18.9201 0.290521 17.9865 0.842521L3.06936 9.69053C2.13734 10.2454 1.36335 11.0418 0.824729 12.0003C0.28611 12.9586 0.00173748 14.0454 0 15.1521V32.8481C0.00173748 33.9549 0.28611 35.0416 0.824729 36C1.36335 36.9585 2.13734 37.7549 3.06936 38.3097L5.84898 39.9583L6.79532 38.2758L5.88513 39.8945L6.17143 40.0643C7.33585 40.7535 8.65634 41.1159 10.0002 41.1152C11.4446 41.1155 12.8593 40.6949 14.0804 39.9025C15.3015 39.1102 16.2789 37.9783 16.8991 36.6382L28.0391 12.6037C28.3258 11.985 28.734 11.4341 29.238 10.9853C29.7421 10.5367 30.3311 10.2001 30.968 9.99664C31.6049 9.79317 32.2758 9.72736 32.9387 9.80344C33.6016 9.87936 34.2419 10.0955 34.8194 10.4382L34.7833 10.5022L37.6356 12.1939C38.1404 12.4945 38.5596 12.9259 38.8513 13.4449C39.1429 13.964 39.2971 14.5527 39.298 15.1521V32.8481C39.2971 33.4475 39.1429 34.0362 38.8513 34.5553C38.5596 35.0744 38.1404 35.5058 37.6356 35.8063L22.7183 44.6543C22.2125 44.9534 21.6393 45.1106 21.0558 45.1106C20.4724 45.1106 19.899 44.9534 19.3934 44.6543L15.3721 42.2693C14.337 42.921 13.2021 43.3764 12.0212 43.6195L17.9865 47.1577ZM17.2712 8.86085L22.3989 11.7447L21.1873 14.3588L16.6725 11.8197L15.1806 15.4318L19.5483 17.8951L18.3363 20.5096L13.1371 17.5773C12.6944 17.3292 12.3648 16.9114 12.2202 16.4149C12.0854 15.9523 12.1127 15.4555 12.2975 15.0114L14.398 9.92615C14.5071 9.66487 14.6646 9.42804 14.8618 9.22854C15.0615 9.02727 15.2981 8.86881 15.5578 8.76241C15.8246 8.65211 16.111 8.60112 16.3984 8.61278C16.7043 8.62389 17.0033 8.70887 17.2712 8.86085ZM28.2946 18.3559L29.5063 15.7417L33.9943 18.2658C34.4367 18.5132 34.7664 18.9298 34.9119 19.4253C35.0473 19.8896 35.02 20.3879 34.8346 20.8336L32.7347 25.9173C32.5747 26.3058 32.3071 26.6376 31.9651 26.8714C31.6232 27.1052 31.2219 27.2306 30.8113 27.2324C30.7855 27.2324 30.7599 27.232 30.7343 27.2309C30.4287 27.2181 30.1301 27.1333 29.8616 26.9829L25.481 24.5173L25.4797 24.5186L25.4778 24.5203H25.4777C25.4759 24.5219 25.474 24.5237 25.4721 24.5256C25.4713 24.5262 25.4707 24.5269 25.4701 24.5275C25.459 24.5385 25.4497 24.5515 25.4426 24.5657L25.4208 24.5562L26.6583 21.8862C26.689 21.9019 26.7194 21.918 26.7494 21.9349L30.4603 24.0237L31.9518 20.4127L28.2946 18.3559ZM23.9993 27.6229L23.9962 27.6296C24.0372 27.6664 24.0681 27.7142 24.085 27.7683L23.9058 27.8246L22.7877 30.2371L26.9307 32.5692L25.4391 36.1805L21.1507 33.7689L19.9391 36.3829L24.8374 39.1376C25.1066 39.2895 25.4064 39.3751 25.7131 39.3879C25.7387 39.389 25.7643 39.3893 25.79 39.3893C26.0519 39.3888 26.3115 39.3373 26.5549 39.2376C26.813 39.1315 27.0483 38.9742 27.2472 38.7745C27.446 38.5749 27.6046 38.3369 27.7136 38.0741L29.814 32.9891C29.9986 32.5437 30.0259 32.046 29.8907 31.5822C29.7451 31.0868 29.4154 30.6702 28.9729 30.4226L23.9993 27.6229ZM12.2489 21.0167L16.8743 23.6638L15.6622 26.2791L11.6489 23.9823L10.1597 27.5879L14.0433 29.7719L12.8316 32.3859L8.11742 29.7349C7.6751 29.4871 7.34542 29.0703 7.19965 28.5749C7.06448 28.1111 7.09172 27.6134 7.27636 27.168L9.37621 22.0845C9.48458 21.8238 9.64125 21.5874 9.83753 21.3882C10.0379 21.1868 10.2747 21.0276 10.5347 20.9197C10.8037 20.8081 11.0929 20.757 11.3829 20.7696C11.6863 20.7817 11.9829 20.8662 12.2489 21.0167Z" fill="#ABB0BC"/>
</svg>
