<svg width="80" height="80" viewBox="0 0 80 80" fill="none" xmlns="http://www.w3.org/2000/svg">
<path d="M77.364 25.7184C75.3296 20.3976 72.1984 15.6192 68.2368 11.6696C61.0864 4.544 51.2544 0.1136 40.3864 0.0096C40.2576 0.0088 40.1296 0 40 0C32.8128 0 26.0736 1.9056 20.244 5.224C11.7616 10.0536 5.2224 17.892 2.0736 27.2912C0.7456 31.256 0.0128 35.4936 0.0024 39.9032C0.0024 39.936 0 39.9672 0 40C0 42.3688 0.2176 44.6856 0.6128 46.9416C1.1608 50.0672 2.0648 53.0688 3.2936 55.9C9.3952 69.9664 23.3392 79.8344 39.6112 79.9904C39.7416 79.9912 39.8696 80 40 80C47.1688 80 53.8904 78.1048 59.7096 74.8032C71.8216 67.928 80 54.9232 80 40C80 34.9664 79.0616 30.1544 77.364 25.7184ZM23.7144 14.9664C24.0856 13.044 24.5784 11.332 25.1704 9.848C29.1896 7.8672 33.66 6.6648 38.3888 6.4408C39.5736 7.4152 40.7848 8.628 41.9928 10.0584C43.4048 11.7288 44.8112 13.6976 46.172 15.9464C49.3928 21.2728 52.3464 28.1528 54.4408 36.2792C54.8376 37.8216 55.1856 39.3576 55.4936 40.8832C51.0296 43.4496 45.7136 45.8264 39.6712 47.752C35.6184 49.0432 31.5736 50.0128 27.6504 50.6544C26.888 48.4576 26.184 46.1456 25.5592 43.7192C23.4984 35.72 22.736 28.3536 22.944 22.1712C23.0328 19.5408 23.2984 17.1248 23.7144 14.9664ZM6.4 40C6.4 36.9 6.828 33.9024 7.6144 31.052C8.7592 26.9016 10.6736 23.0712 13.2048 19.7312C14.3792 18.1808 15.6872 16.7392 17.1072 15.4152C16.9808 16.2272 16.8744 17.0616 16.7856 17.9136C16.5448 20.2272 16.4448 22.6824 16.4904 25.2576C16.5984 31.3936 17.5272 38.1936 19.3616 45.316C19.9 47.4056 20.4992 49.4384 21.1496 51.4088C19.7664 51.5048 18.4 51.568 17.0744 51.568C13.7056 51.568 10.6952 51.248 8.1376 50.6616C7.0168 47.3112 6.4 43.728 6.4 40ZM11.4216 57.6688C13.204 57.8592 15.0816 57.968 17.0736 57.968C19.1456 57.968 21.288 57.852 23.4736 57.644C25.9112 63.4912 28.8176 68.5808 31.976 72.628C23.3232 70.508 15.988 65.0392 11.4216 57.6688ZM56.4248 64.1416C56.0392 66.436 55.4912 68.452 54.8128 70.1608C50.7968 72.1368 46.3312 73.3368 41.6088 73.5592C37.6912 70.34 33.5024 64.5496 30.0392 56.7296C33.8456 56.0432 37.7304 55.0872 41.6136 53.8504C47.104 52.1 52.1296 49.9832 56.5776 47.6248C57.2832 53.62 57.244 59.2704 56.4248 64.1416ZM60.6376 34.6832C58.7944 27.5328 56.2512 21.0328 53.2784 15.5184C52.0576 13.2528 50.764 11.1512 49.4152 9.2448C48.9568 8.5968 48.492 7.9736 48.0208 7.3712C49.8256 7.8136 51.5736 8.3976 53.2504 9.1184C57.5744 10.976 61.4272 13.7168 64.5888 17.1112C67.0792 19.7856 69.136 22.8664 70.6536 26.244C69.5176 29.5552 66.2584 33.4144 61.2344 37.1432C61.0456 36.324 60.8496 35.504 60.6376 34.6832ZM62.8176 64.656C63.7688 58.5656 63.6664 51.492 62.5528 44.0864C67.0168 41.1208 70.6136 37.904 73.1656 34.6208C73.4488 36.3736 73.6 38.1688 73.6 40C73.6 49.7464 69.4472 58.5184 62.8176 64.656Z" fill="white"/>
</svg>
