<svg width="75" height="86" viewBox="0 0 75 86" fill="none" xmlns="http://www.w3.org/2000/svg">
<path d="M5.12131 4.89178C3.84019 5.32936 2.98894 48.8191 3.00073 50.1233V49.9093C2.97975 51.8599 3.41125 53.7906 4.26398 55.5617C13.0863 73.3744 36.1145 82.847 36.1145 82.847C36.4388 82.943 36.7758 82.9945 37.1152 83H38.1813C38.5104 82.9944 38.837 82.9429 39.1507 82.847C39.1507 82.847 61.5121 73.3522 70.0364 55.4989C70.8417 53.7673 71.2489 51.8897 71.2308 49.9937V50.1233C71.242 48.8191 70.3907 5.32938 69.1096 4.89178C67.8285 4.45418 53.1126 3 37.1155 3C21.1184 3 6.40243 4.45419 5.12131 4.89178Z" stroke="white" stroke-width="6"/>
<path fill-rule="evenodd" clip-rule="evenodd" d="M52.0564 30.8824L37.7489 51.897C37.2084 52.6808 36.3712 53.2058 35.539 53.2058C34.7094 53.2058 33.7817 52.7498 33.1909 52.1681L22.6872 41.7052C21.9707 40.9904 21.9707 39.832 22.6872 39.1172L25.2792 36.5292C25.9957 35.8243 27.1597 35.8243 27.8711 36.5292L34.7069 43.3369L45.9799 26.7786C46.5456 25.943 47.6945 25.7311 48.5292 26.2955L51.5687 28.3437C52.4058 28.9106 52.6221 30.0518 52.0564 30.8824Z" fill="white"/>
</svg>
