<svg width="320" height="488" viewBox="0 0 320 488" fill="none" xmlns="http://www.w3.org/2000/svg">
<g clip-path="url(#clip0_79_1200)">
<path d="M0 20C0 8.95431 8.95431 0 20 0H300C311.046 0 320 8.95431 320 20V488H0V20Z" fill="url(#paint0_linear_79_1200)"/>
<rect x="16" y="16" width="288" height="163" rx="14" fill="url(#paint1_linear_79_1200)"/>
<path d="M48.14 52V38H45.4L40.82 48.72L36.24 38H33.5V52H35.92L35.94 42.58L39.96 52H41.68L45.72 42.52V52H48.14ZM59.9567 42.02H57.5567V47.12C57.5567 47.94 57.3367 48.56 56.9167 49C56.4967 49.44 55.9567 49.66 55.2767 49.66C54.6367 49.66 54.1367 49.48 53.7967 49.12C53.4367 48.76 53.2767 48.16 53.2767 47.3V42.02H50.8767V47.7C50.8767 49.12 51.1967 50.18 51.8367 50.86C52.4767 51.56 53.3767 51.9 54.5167 51.9C55.2167 51.9 55.7967 51.8 56.2767 51.56C56.7367 51.32 57.1567 50.98 57.5367 50.52L57.5567 50.58V51.64C57.5567 52.48 57.3367 53.12 56.9167 53.56C56.4967 54 55.9167 54.22 55.1967 54.22C53.9967 54.22 53.2767 53.7 53.0767 52.64L50.8367 53.1C51.0767 54.06 51.5767 54.84 52.2967 55.42C53.0167 56 53.9967 56.28 55.1967 56.28C56.6767 56.28 57.8567 55.86 58.6967 55.02C59.5367 54.18 59.9567 53.04 59.9567 51.62V42.02ZM68.0456 42.02V52H70.4456V42.02H68.0456ZM68.2056 40.24C68.4856 40.52 68.8056 40.66 69.2056 40.66C69.5856 40.66 69.9256 40.52 70.2056 40.24C70.4856 39.96 70.6456 39.64 70.6456 39.24C70.6456 38.86 70.4856 38.52 70.2056 38.24C69.9256 37.96 69.5856 37.82 69.2056 37.82C68.8056 37.82 68.4856 37.96 68.2056 38.24C67.9256 38.52 67.8056 38.86 67.8056 39.24C67.8056 39.64 67.9256 39.96 68.2056 40.24ZM74.8466 51.58C75.5866 52.06 76.4066 52.28 77.3266 52.28C78.0666 52.28 78.7066 52.14 79.2466 51.84C79.7666 51.56 80.1866 51.2 80.5066 50.78L80.8266 52H82.8066V38H80.4066V43.14C80.0866 42.74 79.6666 42.42 79.1466 42.14C78.6266 41.88 78.0066 41.74 77.3066 41.74C76.3866 41.74 75.5466 41.98 74.8266 42.44C74.0866 42.92 73.5066 43.54 73.1066 44.34C72.6866 45.14 72.4866 46.04 72.4866 47C72.4866 47.96 72.6866 48.86 73.1066 49.66C73.5266 50.46 74.1066 51.1 74.8466 51.58ZM79.6466 49.24C79.1266 49.84 78.4666 50.12 77.6666 50.12C77.1466 50.12 76.6666 50 76.2466 49.72C75.8066 49.46 75.4866 49.1 75.2466 48.62C75.0066 48.14 74.8866 47.6 74.8866 47C74.8866 46.42 75.0066 45.9 75.2466 45.42C75.4866 44.94 75.8066 44.58 76.2466 44.3C76.6666 44.04 77.1466 43.9 77.6666 43.9C78.4666 43.9 79.1266 44.2 79.6466 44.78C80.1666 45.36 80.4266 46.1 80.4266 47C80.4266 47.92 80.1666 48.66 79.6466 49.24ZM87.0717 47.8H94.5317V46.88C94.5317 45.88 94.3317 44.98 93.9517 44.2C93.5517 43.44 93.0117 42.84 92.2917 42.4C91.5717 41.96 90.7517 41.74 89.8117 41.74C88.8717 41.74 88.0117 41.98 87.2517 42.44C86.4917 42.9 85.8717 43.52 85.4317 44.32C84.9917 45.12 84.7717 46.02 84.7717 47C84.7717 48.02 84.9917 48.92 85.4317 49.72C85.8717 50.52 86.4917 51.16 87.2517 51.6C88.0117 52.06 88.8717 52.28 89.8317 52.28C90.9917 52.28 91.9317 52.02 92.6917 51.48C93.4517 50.96 93.9717 50.26 94.2917 49.4L92.2717 48.78C92.1117 49.18 91.8317 49.54 91.4117 49.84C90.9917 50.16 90.4717 50.3 89.8317 50.3C89.3117 50.3 88.8517 50.2 88.4517 49.96C88.0517 49.72 87.7317 49.42 87.4917 49.02C87.2517 48.64 87.1117 48.24 87.0717 47.8ZM92.0717 44.94C92.2717 45.3 92.3717 45.64 92.4117 45.96H87.0917C87.2117 45.34 87.4917 44.82 87.9717 44.38C88.4517 43.94 89.0717 43.72 89.8317 43.72C90.3517 43.72 90.8117 43.84 91.1917 44.08C91.5717 44.32 91.8717 44.6 92.0717 44.94ZM96.5008 42.02V52H98.9008V46.52C98.9008 45.72 99.1008 45.08 99.5208 44.64C99.9208 44.2 100.461 43.96 101.101 43.96C102.381 43.96 103.041 44.74 103.041 46.28V52H105.441V45.96C105.441 44.54 105.121 43.48 104.521 42.78C103.901 42.1 103.021 41.74 101.861 41.74C100.581 41.74 99.5608 42.24 98.8208 43.22L98.4808 42.02H96.5008ZM109.49 51.52C110.01 52.04 110.69 52.28 111.51 52.28C112.11 52.28 112.63 52.2 113.05 52.02C113.45 51.84 113.75 51.64 113.95 51.4L112.95 49.7C112.69 49.94 112.39 50.04 112.03 50.04C111.39 50.04 111.09 49.7 111.09 48.98V44.12H113.63V42.02H111.09V39.42H108.69V42.02H106.97V44.12H108.69V49.32C108.69 50.28 108.95 51 109.49 51.52ZM115.546 42.02V52H117.946V42.02H115.546ZM115.706 40.24C115.986 40.52 116.306 40.66 116.706 40.66C117.086 40.66 117.426 40.52 117.706 40.24C117.986 39.96 118.146 39.64 118.146 39.24C118.146 38.86 117.986 38.52 117.706 38.24C117.426 37.96 117.086 37.82 116.706 37.82C116.306 37.82 115.986 37.96 115.706 38.24C115.426 38.52 115.306 38.86 115.306 39.24C115.306 39.64 115.426 39.96 115.706 40.24ZM122.147 51.52C122.667 52.04 123.347 52.28 124.167 52.28C124.767 52.28 125.287 52.2 125.707 52.02C126.107 51.84 126.407 51.64 126.607 51.4L125.607 49.7C125.347 49.94 125.047 50.04 124.687 50.04C124.047 50.04 123.747 49.7 123.747 48.98V44.12H126.287V42.02H123.747V39.42H121.347V42.02H119.627V44.12H121.347V49.32C121.347 50.28 121.607 51 122.147 51.52ZM137.242 42.02H134.842V47.12C134.842 47.94 134.622 48.56 134.202 49C133.782 49.44 133.242 49.66 132.562 49.66C131.922 49.66 131.422 49.48 131.082 49.12C130.722 48.76 130.562 48.16 130.562 47.3V42.02H128.162V47.7C128.162 49.12 128.482 50.18 129.122 50.86C129.762 51.56 130.662 51.9 131.802 51.9C132.502 51.9 133.082 51.8 133.562 51.56C134.022 51.32 134.442 50.98 134.822 50.52L134.842 50.58V51.64C134.842 52.48 134.622 53.12 134.202 53.56C133.782 54 133.202 54.22 132.482 54.22C131.282 54.22 130.562 53.7 130.362 52.64L128.122 53.1C128.362 54.06 128.862 54.84 129.582 55.42C130.302 56 131.282 56.28 132.482 56.28C133.962 56.28 135.142 55.86 135.982 55.02C136.822 54.18 137.242 53.04 137.242 51.62V42.02Z" fill="white"/>
<path d="M33.722 74.93C34.086 75.112 34.506 75.196 34.982 75.196C35.92 75.196 36.606 74.916 37.026 74.328L37.166 75H38.328V70.408C38.328 69.596 38.062 68.966 37.544 68.532C37.026 68.112 36.34 67.888 35.5 67.888C33.96 67.888 33.036 68.588 32.7 69.974L33.918 70.268C33.974 69.876 34.128 69.568 34.38 69.344C34.632 69.12 34.996 69.008 35.472 69.008C36.452 69.008 36.956 69.484 36.956 70.422V70.576L35.29 70.814C34.31 70.954 33.624 71.22 33.204 71.612C32.784 72.004 32.588 72.494 32.588 73.082C32.588 73.488 32.686 73.852 32.882 74.174C33.078 74.496 33.358 74.748 33.722 74.93ZM36.48 73.67C36.158 73.936 35.766 74.062 35.318 74.062C34.884 74.062 34.548 73.978 34.296 73.782C34.044 73.586 33.918 73.334 33.918 73.012C33.918 72.676 34.03 72.41 34.282 72.242C34.534 72.074 34.898 71.948 35.402 71.864L36.956 71.626V72.536C36.956 73.04 36.788 73.418 36.48 73.67ZM40.0057 65.2V75H41.3777V65.2H40.0057ZM43.2613 68.07V75H44.6333V68.07H43.2613ZM43.3173 66.796C43.4853 66.964 43.7093 67.048 43.9613 67.048C44.1993 67.048 44.4093 66.964 44.5773 66.796C44.7453 66.628 44.8433 66.404 44.8433 66.152C44.8433 65.914 44.7453 65.704 44.5773 65.522C44.4093 65.354 44.1993 65.256 43.9613 65.256C43.7093 65.256 43.4853 65.354 43.3173 65.522C43.1353 65.704 43.0513 65.914 43.0513 66.152C43.0513 66.404 43.1353 66.628 43.3173 66.796ZM47.3392 74.93C47.7032 75.112 48.1232 75.196 48.5992 75.196C49.5372 75.196 50.2232 74.916 50.6432 74.328L50.7832 75H51.9452V70.408C51.9452 69.596 51.6792 68.966 51.1612 68.532C50.6432 68.112 49.9572 67.888 49.1172 67.888C47.5772 67.888 46.6532 68.588 46.3172 69.974L47.5352 70.268C47.5912 69.876 47.7452 69.568 47.9972 69.344C48.2492 69.12 48.6132 69.008 49.0892 69.008C50.0692 69.008 50.5732 69.484 50.5732 70.422V70.576L48.9072 70.814C47.9272 70.954 47.2412 71.22 46.8212 71.612C46.4012 72.004 46.2052 72.494 46.2052 73.082C46.2052 73.488 46.3032 73.852 46.4992 74.174C46.6952 74.496 46.9752 74.748 47.3392 74.93ZM50.0972 73.67C49.7752 73.936 49.3832 74.062 48.9352 74.062C48.5012 74.062 48.1652 73.978 47.9132 73.782C47.6612 73.586 47.5352 73.334 47.5352 73.012C47.5352 72.676 47.6472 72.41 47.8992 72.242C48.1512 72.074 48.5152 71.948 49.0192 71.864L50.5732 71.626V72.536C50.5732 73.04 50.4052 73.418 50.0972 73.67ZM54.3089 74.664C54.7849 75.028 55.4009 75.196 56.1569 75.196C56.6749 75.196 57.1509 75.112 57.5709 74.93C57.9909 74.748 58.3129 74.496 58.5509 74.16C58.7749 73.838 58.9009 73.474 58.9009 73.054C58.9009 72.41 58.6769 71.934 58.2569 71.612C57.8229 71.29 57.1929 71.052 56.3809 70.884C55.8489 70.8 55.4709 70.688 55.2189 70.548C54.9669 70.408 54.8409 70.212 54.8409 69.932C54.8409 69.694 54.9389 69.484 55.1629 69.316C55.3729 69.148 55.7089 69.05 56.1569 69.05C56.5629 69.05 56.8709 69.162 57.0949 69.386C57.3189 69.61 57.4729 69.89 57.5569 70.24L58.7749 69.89C58.6349 69.26 58.3269 68.77 57.8789 68.42C57.4309 68.07 56.8569 67.888 56.1569 67.888C55.3869 67.888 54.7569 68.084 54.2669 68.476C53.7769 68.868 53.5389 69.372 53.5389 69.988C53.5389 70.632 53.7629 71.108 54.2249 71.416C54.6729 71.724 55.3169 71.948 56.1429 72.088C56.7169 72.2 57.1089 72.326 57.3049 72.494C57.5009 72.662 57.5989 72.844 57.5989 73.068C57.5989 73.376 57.4589 73.614 57.1929 73.782C56.9269 73.95 56.5769 74.034 56.1569 74.034C55.6529 74.034 55.2889 73.922 55.0509 73.67C54.8129 73.432 54.6449 73.11 54.5329 72.718L53.3009 73.096C53.4829 73.782 53.8189 74.3 54.3089 74.664ZM60.0574 74.832C60.2394 75.014 60.4634 75.098 60.7294 75.098C60.9814 75.098 61.2054 75.014 61.3874 74.832C61.5694 74.65 61.6674 74.426 61.6674 74.16C61.6674 73.908 61.5694 73.684 61.3874 73.502C61.2054 73.32 60.9814 73.222 60.7294 73.222C60.4634 73.222 60.2394 73.32 60.0574 73.502C59.8754 73.684 59.7914 73.908 59.7914 74.16C59.7914 74.426 59.8754 74.65 60.0574 74.832ZM63.0855 68.07V75H64.4575V68.07H63.0855ZM63.1415 66.796C63.3095 66.964 63.5335 67.048 63.7855 67.048C64.0235 67.048 64.2335 66.964 64.4015 66.796C64.5695 66.628 64.6675 66.404 64.6675 66.152C64.6675 65.914 64.5695 65.704 64.4015 65.522C64.2335 65.354 64.0235 65.256 63.7855 65.256C63.5335 65.256 63.3095 65.354 63.1415 65.522C62.9595 65.704 62.8755 65.914 62.8755 66.152C62.8755 66.404 62.9595 66.628 63.1415 66.796ZM67.6254 74.678C68.1294 75.014 68.7174 75.182 69.3614 75.182C69.8934 75.182 70.3694 75.084 70.7614 74.86C71.1534 74.65 71.4614 74.384 71.6994 74.062L71.8814 75H73.0154V65.2H71.6434V68.966C71.4054 68.658 71.0974 68.392 70.7054 68.182C70.3134 67.986 69.8514 67.874 69.3474 67.874C68.6754 67.874 68.0874 68.042 67.5834 68.378C67.0794 68.714 66.6874 69.162 66.4214 69.722C66.1554 70.282 66.0294 70.884 66.0294 71.528C66.0294 72.172 66.1694 72.76 66.4494 73.32C66.7294 73.88 67.1214 74.342 67.6254 74.678ZM71.0554 73.278C70.6634 73.726 70.1454 73.95 69.5294 73.95C69.1094 73.95 68.7454 73.852 68.4234 73.642C68.1014 73.432 67.8494 73.138 67.6674 72.774C67.4854 72.41 67.4014 71.99 67.4014 71.528C67.4014 71.066 67.4854 70.646 67.6674 70.282C67.8494 69.918 68.1014 69.624 68.4234 69.414C68.7454 69.218 69.1094 69.106 69.5294 69.106C70.1454 69.106 70.6634 69.344 71.0554 69.792C71.4474 70.24 71.6434 70.828 71.6434 71.528C71.6434 72.242 71.4474 72.83 71.0554 73.278ZM75.8496 71.962H81.2396V71.416C81.2396 70.716 81.0996 70.1 80.8336 69.568C80.5536 69.036 80.1756 68.63 79.6856 68.336C79.1956 68.042 78.6216 67.888 77.9776 67.888C77.3336 67.888 76.7456 68.056 76.2136 68.378C75.6816 68.7 75.2756 69.134 74.9676 69.694C74.6596 70.254 74.5196 70.856 74.5196 71.528C74.5196 72.214 74.6596 72.83 74.9536 73.39C75.2476 73.95 75.6536 74.398 76.1856 74.72C76.7176 75.042 77.3196 75.196 77.9916 75.196C78.7756 75.196 79.4336 75.014 79.9656 74.65C80.4836 74.286 80.8476 73.81 81.0576 73.222L79.8816 72.844C79.7696 73.18 79.5456 73.46 79.2096 73.698C78.8736 73.936 78.4676 74.048 77.9916 74.048C77.5856 74.048 77.2216 73.964 76.9136 73.768C76.5916 73.572 76.3396 73.32 76.1576 72.998C75.9756 72.69 75.8776 72.34 75.8496 71.962ZM79.4056 69.596C79.7696 69.96 79.9656 70.394 80.0076 70.884H75.8636C75.9476 70.366 76.1716 69.932 76.5496 69.568C76.9136 69.218 77.4036 69.036 77.9916 69.036C78.5796 69.036 79.0416 69.232 79.4056 69.596ZM82.744 68.07V75H84.116V71.136C84.116 70.52 84.284 70.044 84.62 69.694C84.956 69.344 85.362 69.162 85.866 69.162C86.328 69.162 86.692 69.302 86.958 69.554C87.21 69.806 87.35 70.254 87.35 70.884V75H88.722V70.646C88.722 69.722 88.498 69.022 88.078 68.56C87.644 68.112 87.042 67.874 86.286 67.874C85.348 67.874 84.62 68.238 84.088 68.952L83.878 68.07H82.744ZM91.895 74.818C92.399 75.07 92.987 75.196 93.631 75.196C94.303 75.196 94.905 75.056 95.437 74.776C95.969 74.496 96.375 74.104 96.683 73.6C96.977 73.096 97.131 72.536 97.131 71.92C97.131 70.996 96.865 70.268 96.333 69.708C95.801 69.148 95.115 68.854 94.275 68.798L96.487 66.488V65.2H90.551V66.488H94.821L92.203 69.162L92.917 70.03C93.141 69.96 93.379 69.918 93.631 69.918C94.275 69.918 94.779 70.114 95.157 70.478C95.535 70.856 95.731 71.332 95.731 71.92C95.731 72.494 95.535 72.97 95.143 73.348C94.751 73.726 94.247 73.908 93.631 73.908C93.043 73.908 92.553 73.726 92.161 73.348C91.769 72.984 91.559 72.522 91.531 71.962L90.243 72.34C90.257 72.858 90.411 73.334 90.705 73.768C90.985 74.216 91.391 74.566 91.895 74.818ZM98.284 74.832C98.466 75.014 98.69 75.098 98.956 75.098C99.208 75.098 99.432 75.014 99.614 74.832C99.796 74.65 99.894 74.426 99.894 74.16C99.894 73.908 99.796 73.684 99.614 73.502C99.432 73.32 99.208 73.222 98.956 73.222C98.69 73.222 98.466 73.32 98.284 73.502C98.102 73.684 98.018 73.908 98.018 74.16C98.018 74.426 98.102 74.65 98.284 74.832ZM101.312 68.07V75H102.684V68.07H101.312ZM101.368 66.796C101.536 66.964 101.76 67.048 102.012 67.048C102.25 67.048 102.46 66.964 102.628 66.796C102.796 66.628 102.894 66.404 102.894 66.152C102.894 65.914 102.796 65.704 102.628 65.522C102.46 65.354 102.25 65.256 102.012 65.256C101.76 65.256 101.536 65.354 101.368 65.522C101.186 65.704 101.102 65.914 101.102 66.152C101.102 66.404 101.186 66.628 101.368 66.796ZM105.852 74.678C106.356 75.014 106.944 75.182 107.588 75.182C108.12 75.182 108.596 75.084 108.988 74.86C109.38 74.65 109.688 74.384 109.926 74.062L110.108 75H111.242V65.2H109.87V68.966C109.632 68.658 109.324 68.392 108.932 68.182C108.54 67.986 108.078 67.874 107.574 67.874C106.902 67.874 106.314 68.042 105.81 68.378C105.306 68.714 104.914 69.162 104.648 69.722C104.382 70.282 104.256 70.884 104.256 71.528C104.256 72.172 104.396 72.76 104.676 73.32C104.956 73.88 105.348 74.342 105.852 74.678ZM109.282 73.278C108.89 73.726 108.372 73.95 107.756 73.95C107.336 73.95 106.972 73.852 106.65 73.642C106.328 73.432 106.076 73.138 105.894 72.774C105.712 72.41 105.628 71.99 105.628 71.528C105.628 71.066 105.712 70.646 105.894 70.282C106.076 69.918 106.328 69.624 106.65 69.414C106.972 69.218 107.336 69.106 107.756 69.106C108.372 69.106 108.89 69.344 109.282 69.792C109.674 70.24 109.87 70.828 109.87 71.528C109.87 72.242 109.674 72.83 109.282 73.278Z" fill="#B4BFCE"/>
<rect x="32" y="131" width="83" height="32" rx="16" fill="#323232"/>
<path d="M59.074 151L59.088 141.2H57.478L54.104 149.124L50.716 141.2H49.12V151H50.506L50.52 143.818L53.572 151H54.608L57.688 143.79V151H59.074ZM61.931 150.93C62.295 151.112 62.715 151.196 63.191 151.196C64.129 151.196 64.815 150.916 65.235 150.328L65.375 151H66.537V146.408C66.537 145.596 66.271 144.966 65.753 144.532C65.235 144.112 64.549 143.888 63.709 143.888C62.169 143.888 61.245 144.588 60.909 145.974L62.127 146.268C62.183 145.876 62.337 145.568 62.589 145.344C62.841 145.12 63.205 145.008 63.681 145.008C64.661 145.008 65.165 145.484 65.165 146.422V146.576L63.499 146.814C62.519 146.954 61.833 147.22 61.413 147.612C60.993 148.004 60.797 148.494 60.797 149.082C60.797 149.488 60.895 149.852 61.091 150.174C61.287 150.496 61.567 150.748 61.931 150.93ZM64.689 149.67C64.367 149.936 63.975 150.062 63.527 150.062C63.093 150.062 62.757 149.978 62.505 149.782C62.253 149.586 62.127 149.334 62.127 149.012C62.127 148.676 62.239 148.41 62.491 148.242C62.743 148.074 63.107 147.948 63.611 147.864L65.165 147.626V148.536C65.165 149.04 64.997 149.418 64.689 149.67ZM68.2147 144.07V151H69.5867V147.136C69.5867 146.52 69.7547 146.044 70.0907 145.694C70.4267 145.344 70.8327 145.162 71.3367 145.162C71.7987 145.162 72.1627 145.302 72.4287 145.554C72.6807 145.806 72.8207 146.254 72.8207 146.884V151H74.1927V146.646C74.1927 145.722 73.9687 145.022 73.5487 144.56C73.1147 144.112 72.5127 143.874 71.7567 143.874C70.8187 143.874 70.0907 144.238 69.5587 144.952L69.3487 144.07H68.2147ZM76.8197 150.93C77.1837 151.112 77.6037 151.196 78.0797 151.196C79.0177 151.196 79.7037 150.916 80.1237 150.328L80.2637 151H81.4257V146.408C81.4257 145.596 81.1597 144.966 80.6417 144.532C80.1237 144.112 79.4377 143.888 78.5977 143.888C77.0577 143.888 76.1337 144.588 75.7977 145.974L77.0157 146.268C77.0717 145.876 77.2257 145.568 77.4777 145.344C77.7297 145.12 78.0937 145.008 78.5697 145.008C79.5497 145.008 80.0537 145.484 80.0537 146.422V146.576L78.3877 146.814C77.4077 146.954 76.7217 147.22 76.3017 147.612C75.8817 148.004 75.6857 148.494 75.6857 149.082C75.6857 149.488 75.7837 149.852 75.9797 150.174C76.1757 150.496 76.4557 150.748 76.8197 150.93ZM79.5777 149.67C79.2557 149.936 78.8637 150.062 78.4157 150.062C77.9817 150.062 77.6457 149.978 77.3937 149.782C77.1417 149.586 77.0157 149.334 77.0157 149.012C77.0157 148.676 77.1277 148.41 77.3797 148.242C77.6317 148.074 77.9957 147.948 78.4997 147.864L80.0537 147.626V148.536C80.0537 149.04 79.8857 149.418 79.5777 149.67ZM84.1534 153.45C84.6714 153.856 85.3574 154.052 86.2254 154.052C86.9814 154.052 87.6254 153.912 88.1434 153.632C88.6614 153.352 89.0534 152.974 89.3054 152.498C89.5574 152.022 89.6974 151.476 89.6974 150.874V144.07H88.5494L88.3254 144.98C88.1014 144.672 87.8074 144.406 87.4294 144.196C87.0514 143.986 86.5894 143.874 86.0574 143.874C85.4134 143.874 84.8394 144.042 84.3354 144.378C83.8314 144.714 83.4534 145.148 83.1874 145.694C82.9074 146.24 82.7814 146.828 82.7814 147.458C82.7814 148.102 82.9074 148.69 83.1734 149.222C83.4394 149.768 83.8174 150.202 84.3214 150.524C84.8114 150.846 85.3994 151 86.0714 151C86.5894 151 87.0514 150.902 87.4434 150.678C87.8354 150.454 88.1294 150.188 88.3254 149.866V150.902C88.3254 151.532 88.1434 152.022 87.7794 152.358C87.4154 152.708 86.8974 152.876 86.2254 152.876C85.2174 152.876 84.6014 152.428 84.3774 151.518L83.0894 151.826C83.2854 152.512 83.6354 153.058 84.1534 153.45ZM87.7374 149.138C87.3454 149.558 86.8554 149.768 86.2534 149.768C85.6234 149.768 85.1194 149.558 84.7274 149.138C84.3354 148.718 84.1534 148.158 84.1534 147.458C84.1534 146.758 84.3354 146.198 84.7274 145.764C85.1194 145.33 85.6234 145.106 86.2394 145.106C86.8554 145.106 87.3454 145.33 87.7374 145.764C88.1294 146.198 88.3254 146.758 88.3254 147.458C88.3254 148.158 88.1294 148.718 87.7374 149.138ZM92.5196 147.962H97.9096V147.416C97.9096 146.716 97.7696 146.1 97.5036 145.568C97.2236 145.036 96.8456 144.63 96.3556 144.336C95.8656 144.042 95.2916 143.888 94.6476 143.888C94.0036 143.888 93.4156 144.056 92.8836 144.378C92.3516 144.7 91.9456 145.134 91.6376 145.694C91.3296 146.254 91.1896 146.856 91.1896 147.528C91.1896 148.214 91.3296 148.83 91.6236 149.39C91.9176 149.95 92.3236 150.398 92.8556 150.72C93.3876 151.042 93.9896 151.196 94.6616 151.196C95.4456 151.196 96.1036 151.014 96.6356 150.65C97.1536 150.286 97.5176 149.81 97.7276 149.222L96.5516 148.844C96.4396 149.18 96.2156 149.46 95.8796 149.698C95.5436 149.936 95.1376 150.048 94.6616 150.048C94.2556 150.048 93.8916 149.964 93.5836 149.768C93.2616 149.572 93.0096 149.32 92.8276 148.998C92.6456 148.69 92.5476 148.34 92.5196 147.962ZM96.0756 145.596C96.4396 145.96 96.6356 146.394 96.6776 146.884H92.5336C92.6176 146.366 92.8416 145.932 93.2196 145.568C93.5836 145.218 94.0736 145.036 94.6616 145.036C95.2496 145.036 95.7116 145.232 96.0756 145.596Z" fill="white"/>
<mask id="mask0_79_1200" style="mask-type:alpha" maskUnits="userSpaceOnUse" x="248" y="32" width="40" height="40">
<path d="M268 72C279.046 72 288 63.0457 288 52C288 40.9543 279.046 32 268 32C256.954 32 248 40.9543 248 52C248 63.0457 256.954 72 268 72Z" fill="white"/>
</mask>
<g mask="url(#mask0_79_1200)">
<path d="M268 72C279.046 72 288 63.0457 288 52C288 40.9543 279.046 32 268 32C256.954 32 248 40.9543 248 52C248 63.0457 256.954 72 268 72Z" fill="#292929"/>
<path d="M268 56.9546C273.473 56.9546 277.865 59.3806 278 64.7888C278 65.323 277.595 65.7904 276.986 65.7904C276.684 65.7904 276.403 65.6652 276.214 65.45L272.72 67.4449L268.084 68.1903L261.733 66.7368L259.924 65.2146C259.756 65.5488 259.402 65.7904 259.014 65.7904C258.473 65.7904 258 65.323 258 64.7888C258.135 59.3806 262.527 56.9546 268 56.9546ZM268 43C270.973 43 273.068 45.3369 273.068 48.6753C273.068 52.1473 270.77 55.0184 268 55.0184C265.23 55.0184 262.932 52.1473 262.932 48.6753C262.932 45.3369 265.027 43 268 43Z" fill="#8A919E"/>
</g>
<path opacity="0.5" d="M282 52C282 59.732 275.732 66 268 66C260.268 66 254 59.732 254 52C254 44.268 260.268 38 268 38C275.732 38 282 44.268 282 52Z" stroke="#8A919E" stroke-width="2" stroke-linecap="round" stroke-linejoin="round"/>
<path d="M285.5 52C285.5 61.665 277.665 69.5 268 69.5C258.335 69.5 250.5 61.665 250.5 52C250.5 42.335 258.335 34.5 268 34.5C277.665 34.5 285.5 42.335 285.5 52Z" stroke="#292929" stroke-width="5" stroke-linecap="round" stroke-linejoin="round"/>
<rect x="16" y="195" width="288" height="163" rx="14" fill="url(#paint2_linear_79_1200)"/>
<path d="M268 251C279.046 251 288 242.046 288 231C288 219.954 279.046 211 268 211C256.954 211 248 219.954 248 231C248 242.046 256.954 251 268 251Z" fill="#292929"/>
<path d="M282 231C282 238.732 275.732 245 268 245C260.268 245 254 238.732 254 231C254 223.268 260.268 217 268 217C275.732 217 282 223.268 282 231Z" stroke="#595D63" stroke-width="2" stroke-linecap="round" stroke-linejoin="round"/>
<path opacity="0.5" d="M267.938 224C270.112 224 271.875 225.79 271.875 227.997C271.872 229.38 271.167 230.659 270.015 231.385L269.902 231.453V235.977C269.912 236.696 269.54 237.365 268.928 237.728C268.316 238.091 267.559 238.091 266.947 237.728C266.364 237.383 265.999 236.759 265.974 236.079L265.973 235.977V231.457C264.753 230.745 264.002 229.426 264 227.997C264 225.79 265.763 224 267.938 224Z" fill="white"/>
<path d="M48.14 231V217H45.4L40.82 227.72L36.24 217H33.5V231H35.92L35.94 221.58L39.96 231H41.68L45.72 221.52V231H48.14ZM59.9567 221.02H57.5567V226.12C57.5567 226.94 57.3367 227.56 56.9167 228C56.4967 228.44 55.9567 228.66 55.2767 228.66C54.6367 228.66 54.1367 228.48 53.7967 228.12C53.4367 227.76 53.2767 227.16 53.2767 226.3V221.02H50.8767V226.7C50.8767 228.12 51.1967 229.18 51.8367 229.86C52.4767 230.56 53.3767 230.9 54.5167 230.9C55.2167 230.9 55.7967 230.8 56.2767 230.56C56.7367 230.32 57.1567 229.98 57.5367 229.52L57.5567 229.58V230.64C57.5567 231.48 57.3367 232.12 56.9167 232.56C56.4967 233 55.9167 233.22 55.1967 233.22C53.9967 233.22 53.2767 232.7 53.0767 231.64L50.8367 232.1C51.0767 233.06 51.5767 233.84 52.2967 234.42C53.0167 235 53.9967 235.28 55.1967 235.28C56.6767 235.28 57.8567 234.86 58.6967 234.02C59.5367 233.18 59.9567 232.04 59.9567 230.62V221.02ZM69.8856 230.58C70.6256 231.06 71.4456 231.28 72.3656 231.28C73.1056 231.28 73.7456 231.14 74.2856 230.84C74.8056 230.56 75.2256 230.2 75.5456 229.78L75.8656 231H77.8456V217H75.4456V222.14C75.1256 221.74 74.7056 221.42 74.1856 221.14C73.6656 220.88 73.0456 220.74 72.3456 220.74C71.4256 220.74 70.5856 220.98 69.8656 221.44C69.1256 221.92 68.5456 222.54 68.1456 223.34C67.7256 224.14 67.5256 225.04 67.5256 226C67.5256 226.96 67.7256 227.86 68.1456 228.66C68.5656 229.46 69.1456 230.1 69.8856 230.58ZM74.6856 228.24C74.1656 228.84 73.5056 229.12 72.7056 229.12C72.1856 229.12 71.7056 229 71.2856 228.72C70.8456 228.46 70.5256 228.1 70.2856 227.62C70.0456 227.14 69.9256 226.6 69.9256 226C69.9256 225.42 70.0456 224.9 70.2856 224.42C70.5256 223.94 70.8456 223.58 71.2856 223.3C71.7056 223.04 72.1856 222.9 72.7056 222.9C73.5056 222.9 74.1656 223.2 74.6856 223.78C75.2056 224.36 75.4656 225.1 75.4656 226C75.4656 226.92 75.2056 227.66 74.6856 228.24ZM81.4708 230.9C81.9908 231.16 82.5508 231.28 83.1908 231.28C84.4708 231.28 85.4108 230.9 85.9708 230.1L86.2308 231H88.2508V224.44C88.2508 223.22 87.8508 222.3 87.0708 221.68C86.2708 221.06 85.2908 220.74 84.0908 220.74C82.9108 220.74 81.9908 221 81.3308 221.5C80.6508 222 80.1908 222.76 79.9108 223.76L82.0308 224.28C82.1108 223.76 82.2908 223.36 82.6108 223.08C82.9308 222.8 83.3908 222.66 84.0108 222.66C85.2308 222.66 85.8508 223.28 85.8508 224.48V224.6L83.7108 224.9C82.2308 225.1 81.2108 225.5 80.6308 226.08C80.0508 226.66 79.7708 227.36 79.7708 228.2C79.7708 228.82 79.9108 229.36 80.2308 229.82C80.5308 230.3 80.9508 230.66 81.4708 230.9ZM85.2708 228.86C84.8708 229.18 84.3908 229.34 83.8308 229.34C83.2708 229.34 82.8508 229.24 82.5308 229C82.2108 228.76 82.0708 228.46 82.0708 228.06C82.0708 227.66 82.2108 227.34 82.4908 227.12C82.7708 226.9 83.2308 226.74 83.8708 226.64L85.8508 226.34V227.5C85.8508 228.08 85.6508 228.54 85.2708 228.86ZM92.1661 230.52C92.6861 231.04 93.3661 231.28 94.1861 231.28C94.7861 231.28 95.3061 231.2 95.7261 231.02C96.1261 230.84 96.4261 230.64 96.6261 230.4L95.6261 228.7C95.3661 228.94 95.0661 229.04 94.7061 229.04C94.0661 229.04 93.7661 228.7 93.7661 227.98V223.12H96.3061V221.02H93.7661V218.42H91.3661V221.02H89.6461V223.12H91.3661V228.32C91.3661 229.28 91.6261 230 92.1661 230.52ZM99.2833 230.9C99.8033 231.16 100.363 231.28 101.003 231.28C102.283 231.28 103.223 230.9 103.783 230.1L104.043 231H106.063V224.44C106.063 223.22 105.663 222.3 104.883 221.68C104.083 221.06 103.103 220.74 101.903 220.74C100.723 220.74 99.8033 221 99.1433 221.5C98.4633 222 98.0033 222.76 97.7233 223.76L99.8433 224.28C99.9233 223.76 100.103 223.36 100.423 223.08C100.743 222.8 101.203 222.66 101.823 222.66C103.043 222.66 103.663 223.28 103.663 224.48V224.6L101.523 224.9C100.043 225.1 99.0233 225.5 98.4433 226.08C97.8633 226.66 97.5833 227.36 97.5833 228.2C97.5833 228.82 97.7233 229.36 98.0433 229.82C98.3433 230.3 98.7633 230.66 99.2833 230.9ZM103.083 228.86C102.683 229.18 102.203 229.34 101.643 229.34C101.083 229.34 100.663 229.24 100.343 229C100.023 228.76 99.8833 228.46 99.8833 228.06C99.8833 227.66 100.023 227.34 100.303 227.12C100.583 226.9 101.043 226.74 101.683 226.64L103.663 226.34V227.5C103.663 228.08 103.463 228.54 103.083 228.86Z" fill="white"/>
<path d="M34.268 253.818C34.772 254.07 35.36 254.196 36.004 254.196C36.676 254.196 37.278 254.056 37.81 253.776C38.342 253.496 38.748 253.104 39.056 252.6C39.35 252.096 39.504 251.536 39.504 250.92C39.504 249.996 39.238 249.268 38.706 248.708C38.174 248.148 37.488 247.854 36.648 247.798L38.86 245.488V244.2H32.924V245.488H37.194L34.576 248.162L35.29 249.03C35.514 248.96 35.752 248.918 36.004 248.918C36.648 248.918 37.152 249.114 37.53 249.478C37.908 249.856 38.104 250.332 38.104 250.92C38.104 251.494 37.908 251.97 37.516 252.348C37.124 252.726 36.62 252.908 36.004 252.908C35.416 252.908 34.926 252.726 34.534 252.348C34.142 251.984 33.932 251.522 33.904 250.962L32.616 251.34C32.63 251.858 32.784 252.334 33.078 252.768C33.358 253.216 33.764 253.566 34.268 253.818ZM46.2989 253.706C46.8309 254.042 47.4609 254.196 48.1749 254.196C48.9029 254.196 49.5329 254 50.0649 253.608C50.5969 253.216 50.9749 252.698 51.2269 252.054L49.9809 251.634C49.8409 252.04 49.6029 252.362 49.2949 252.586C48.9729 252.824 48.5949 252.936 48.1749 252.936C47.7549 252.936 47.3769 252.838 47.0549 252.628C46.7189 252.432 46.4669 252.138 46.2849 251.774C46.0889 251.41 46.0049 251.004 46.0049 250.542C46.0049 250.094 46.0889 249.674 46.2849 249.31C46.4669 248.946 46.7189 248.652 47.0549 248.442C47.3769 248.246 47.7549 248.134 48.1749 248.134C48.6089 248.134 48.9869 248.26 49.3089 248.484C49.6169 248.722 49.8409 249.044 49.9809 249.45L51.2409 249.03C51.0169 248.386 50.6529 247.854 50.1209 247.462C49.5889 247.07 48.9309 246.874 48.1749 246.874C47.4749 246.874 46.8449 247.042 46.3129 247.378C45.7809 247.714 45.3609 248.148 45.0669 248.708C44.7729 249.268 44.6329 249.884 44.6329 250.542C44.6329 251.2 44.7729 251.802 45.0669 252.362C45.3469 252.922 45.7669 253.37 46.2989 253.706ZM52.7616 244.2V254H54.1336V244.2H52.7616ZM56.7591 253.93C57.1231 254.112 57.5431 254.196 58.0191 254.196C58.9571 254.196 59.6431 253.916 60.0631 253.328L60.2031 254H61.3651V249.408C61.3651 248.596 61.0991 247.966 60.5811 247.532C60.0631 247.112 59.3771 246.888 58.5371 246.888C56.9971 246.888 56.0731 247.588 55.7371 248.974L56.9551 249.268C57.0111 248.876 57.1651 248.568 57.4171 248.344C57.6691 248.12 58.0331 248.008 58.5091 248.008C59.4891 248.008 59.9931 248.484 59.9931 249.422V249.576L58.3271 249.814C57.3471 249.954 56.6611 250.22 56.2411 250.612C55.8211 251.004 55.6251 251.494 55.6251 252.082C55.6251 252.488 55.7231 252.852 55.9191 253.174C56.1151 253.496 56.3951 253.748 56.7591 253.93ZM59.5171 252.67C59.1951 252.936 58.8031 253.062 58.3551 253.062C57.9211 253.062 57.5851 252.978 57.3331 252.782C57.0811 252.586 56.9551 252.334 56.9551 252.012C56.9551 251.676 57.0671 251.41 57.3191 251.242C57.5711 251.074 57.9351 250.948 58.4391 250.864L59.9931 250.626V251.536C59.9931 252.04 59.8251 252.418 59.5171 252.67ZM63.1128 247.07V254H64.4848V247.07H63.1128ZM63.1688 245.796C63.3368 245.964 63.5608 246.048 63.8128 246.048C64.0508 246.048 64.2608 245.964 64.4288 245.796C64.5968 245.628 64.6948 245.404 64.6948 245.152C64.6948 244.914 64.5968 244.704 64.4288 244.522C64.2608 244.354 64.0508 244.256 63.8128 244.256C63.5608 244.256 63.3368 244.354 63.1688 244.522C62.9868 244.704 62.9028 244.914 62.9028 245.152C62.9028 245.404 62.9868 245.628 63.1688 245.796ZM66.3788 247.07V254H67.7508V250.08C67.7508 249.478 67.9048 249.002 68.2128 248.666C68.5208 248.33 68.8988 248.162 69.3608 248.162C70.2568 248.162 70.7048 248.722 70.7048 249.828V254H72.0768V250.08C72.0768 249.478 72.2168 249.002 72.5248 248.666C72.8328 248.33 73.2108 248.162 73.6728 248.162C74.1068 248.162 74.4428 248.288 74.6808 248.54C74.9048 248.792 75.0308 249.226 75.0308 249.828V254H76.4028V249.394C76.4028 248.554 76.1928 247.924 75.7728 247.504C75.3528 247.084 74.8208 246.874 74.1488 246.874C73.6448 246.874 73.1968 246.986 72.8048 247.182C72.4128 247.392 72.0908 247.672 71.8388 248.008C71.6708 247.672 71.4328 247.406 71.1108 247.196C70.7748 246.986 70.3688 246.874 69.8928 246.874C69.4168 246.874 68.9828 246.972 68.6188 247.168C68.2548 247.364 67.9468 247.616 67.7088 247.952L67.5128 247.07H66.3788ZM78.9046 253.664C79.3806 254.028 79.9966 254.196 80.7526 254.196C81.2706 254.196 81.7466 254.112 82.1666 253.93C82.5866 253.748 82.9086 253.496 83.1466 253.16C83.3706 252.838 83.4966 252.474 83.4966 252.054C83.4966 251.41 83.2726 250.934 82.8526 250.612C82.4186 250.29 81.7886 250.052 80.9766 249.884C80.4446 249.8 80.0666 249.688 79.8146 249.548C79.5626 249.408 79.4366 249.212 79.4366 248.932C79.4366 248.694 79.5346 248.484 79.7586 248.316C79.9686 248.148 80.3046 248.05 80.7526 248.05C81.1586 248.05 81.4666 248.162 81.6906 248.386C81.9146 248.61 82.0686 248.89 82.1526 249.24L83.3706 248.89C83.2306 248.26 82.9226 247.77 82.4746 247.42C82.0266 247.07 81.4526 246.888 80.7526 246.888C79.9826 246.888 79.3526 247.084 78.8626 247.476C78.3726 247.868 78.1346 248.372 78.1346 248.988C78.1346 249.632 78.3586 250.108 78.8206 250.416C79.2686 250.724 79.9126 250.948 80.7386 251.088C81.3126 251.2 81.7046 251.326 81.9006 251.494C82.0966 251.662 82.1946 251.844 82.1946 252.068C82.1946 252.376 82.0546 252.614 81.7886 252.782C81.5226 252.95 81.1726 253.034 80.7526 253.034C80.2486 253.034 79.8846 252.922 79.6466 252.67C79.4086 252.432 79.2406 252.11 79.1286 251.718L77.8966 252.096C78.0786 252.782 78.4146 253.3 78.9046 253.664Z" fill="#B4BFCE"/>
<rect x="32" y="310" width="83" height="32" rx="16" fill="#323232"/>
<path d="M53.1908 329.23C53.8768 329.874 54.7728 330.196 55.8928 330.196C56.9988 330.196 57.8948 329.888 58.5808 329.244C59.2528 328.6 59.6028 327.634 59.6028 326.332V320.2H58.2028V326.248C58.2028 327.158 57.9928 327.83 57.5868 328.264C57.1808 328.698 56.6208 328.908 55.8928 328.908C55.1508 328.908 54.5768 328.698 54.1708 328.264C53.7648 327.844 53.5688 327.172 53.5688 326.248V320.2H52.1688V326.318C52.1688 327.606 52.5048 328.586 53.1908 329.23ZM61.5848 323.07V330H62.9568V326.136C62.9568 325.52 63.1248 325.044 63.4608 324.694C63.7968 324.344 64.2028 324.162 64.7068 324.162C65.1688 324.162 65.5328 324.302 65.7988 324.554C66.0508 324.806 66.1908 325.254 66.1908 325.884V330H67.5628V325.646C67.5628 324.722 67.3388 324.022 66.9188 323.56C66.4848 323.112 65.8828 322.874 65.1268 322.874C64.1888 322.874 63.4608 323.238 62.9288 323.952L62.7188 323.07H61.5848ZM69.3778 320.2V330H70.7498V320.2H69.3778ZM73.9353 329.692C74.4813 330.028 75.1113 330.196 75.8113 330.196C76.5113 330.196 77.1273 330.028 77.6733 329.692C78.2053 329.356 78.6253 328.908 78.9333 328.348C79.2273 327.788 79.3813 327.186 79.3813 326.542C79.3813 325.898 79.2273 325.282 78.9333 324.722C78.6253 324.162 78.2053 323.714 77.6733 323.378C77.1273 323.042 76.5113 322.874 75.8113 322.874C75.1113 322.874 74.4953 323.042 73.9493 323.378C73.4033 323.714 72.9833 324.162 72.6893 324.722C72.3813 325.282 72.2413 325.898 72.2413 326.542C72.2413 327.186 72.3813 327.788 72.6753 328.348C72.9693 328.908 73.3893 329.356 73.9353 329.692ZM76.9313 328.628C76.5953 328.838 76.2313 328.936 75.8113 328.936C75.3913 328.936 75.0133 328.838 74.6773 328.628C74.3413 328.432 74.0753 328.138 73.8933 327.774C73.6973 327.41 73.6133 327.004 73.6133 326.542C73.6133 326.094 73.6973 325.674 73.8933 325.31C74.0753 324.946 74.3413 324.666 74.6773 324.456C75.0133 324.246 75.3913 324.134 75.8113 324.134C76.2313 324.134 76.5953 324.246 76.9313 324.456C77.2673 324.666 77.5193 324.946 77.7153 325.31C77.9113 325.674 78.0093 326.094 78.0093 326.542C78.0093 326.99 77.9113 327.41 77.7153 327.774C77.5193 328.138 77.2673 328.432 76.9313 328.628ZM82.2198 329.706C82.7518 330.042 83.3818 330.196 84.0958 330.196C84.8238 330.196 85.4538 330 85.9858 329.608C86.5178 329.216 86.8958 328.698 87.1478 328.054L85.9018 327.634C85.7618 328.04 85.5238 328.362 85.2158 328.586C84.8938 328.824 84.5158 328.936 84.0958 328.936C83.6758 328.936 83.2978 328.838 82.9758 328.628C82.6398 328.432 82.3878 328.138 82.2058 327.774C82.0098 327.41 81.9258 327.004 81.9258 326.542C81.9258 326.094 82.0098 325.674 82.2058 325.31C82.3878 324.946 82.6398 324.652 82.9758 324.442C83.2978 324.246 83.6758 324.134 84.0958 324.134C84.5298 324.134 84.9078 324.26 85.2298 324.484C85.5378 324.722 85.7618 325.044 85.9018 325.45L87.1618 325.03C86.9378 324.386 86.5738 323.854 86.0418 323.462C85.5098 323.07 84.8518 322.874 84.0958 322.874C83.3958 322.874 82.7658 323.042 82.2338 323.378C81.7018 323.714 81.2818 324.148 80.9878 324.708C80.6938 325.268 80.5538 325.884 80.5538 326.542C80.5538 327.2 80.6938 327.802 80.9878 328.362C81.2678 328.922 81.6878 329.37 82.2198 329.706ZM90.8385 326.766L93.1205 330H94.6885L91.7485 325.814L94.3665 323.07H92.6865L90.0545 325.814V320.2H88.6825V330H90.0545V327.592L90.8385 326.766Z" fill="white"/>
<g filter="url(#filter0_dd_79_1200)">
<rect x="50" y="402" width="221" height="52" rx="26" fill="#0C58F3"/>
</g>
<path d="M106.168 421.8V433H108.12V428.936H110.264C110.92 428.936 111.528 428.808 112.104 428.536C112.664 428.28 113.112 427.88 113.464 427.336C113.816 426.792 113.992 426.136 113.992 425.352C113.992 424.168 113.624 423.288 112.904 422.696C112.168 422.104 111.256 421.8 110.168 421.8H106.168ZM110.024 427.176H108.12V423.56H110.008C110.664 423.56 111.16 423.736 111.512 424.056C111.864 424.376 112.04 424.808 112.04 425.352C112.04 425.896 111.864 426.344 111.528 426.68C111.192 427.016 110.696 427.176 110.024 427.176ZM115.382 425.016V433H117.302V428.648C117.302 428.008 117.462 427.512 117.782 427.144C118.102 426.776 118.502 426.584 118.982 426.584C119.19 426.584 119.382 426.616 119.542 426.664C119.702 426.728 119.846 426.792 119.942 426.856L120.63 425.176C120.47 425.08 120.278 424.984 120.054 424.904C119.814 424.84 119.542 424.792 119.254 424.792C118.774 424.792 118.374 424.904 118.038 425.128C117.686 425.352 117.43 425.624 117.238 425.944L116.966 425.016H115.382ZM121.758 425.016V433H123.678V425.016H121.758ZM121.886 423.592C122.11 423.816 122.366 423.928 122.686 423.928C122.99 423.928 123.262 423.816 123.486 423.592C123.71 423.368 123.838 423.112 123.838 422.792C123.838 422.488 123.71 422.216 123.486 421.992C123.262 421.768 122.99 421.656 122.686 421.656C122.366 421.656 122.11 421.768 121.886 421.992C121.662 422.216 121.566 422.488 121.566 422.792C121.566 423.112 121.662 423.368 121.886 423.592ZM132.991 425.016H131.023L128.959 430.824L126.895 425.016H124.927L127.951 433H129.967L132.991 425.016ZM134.999 432.92C135.414 433.128 135.863 433.224 136.375 433.224C137.399 433.224 138.151 432.92 138.599 432.28L138.807 433H140.423V427.752C140.423 426.776 140.103 426.04 139.479 425.544C138.839 425.048 138.055 424.792 137.095 424.792C136.151 424.792 135.414 425 134.887 425.4C134.343 425.8 133.975 426.408 133.751 427.208L135.447 427.624C135.511 427.208 135.655 426.888 135.911 426.664C136.167 426.44 136.535 426.328 137.031 426.328C138.007 426.328 138.503 426.824 138.503 427.784V427.88L136.791 428.12C135.607 428.28 134.791 428.6 134.327 429.064C133.863 429.528 133.639 430.088 133.639 430.76C133.639 431.256 133.751 431.688 134.007 432.056C134.247 432.44 134.583 432.728 134.999 432.92ZM138.039 431.288C137.719 431.544 137.335 431.672 136.887 431.672C136.439 431.672 136.103 431.592 135.847 431.4C135.591 431.208 135.479 430.968 135.479 430.648C135.479 430.328 135.591 430.072 135.815 429.896C136.039 429.72 136.407 429.592 136.919 429.512L138.503 429.272V430.2C138.503 430.664 138.343 431.032 138.039 431.288ZM143.555 432.616C143.971 433.032 144.515 433.224 145.171 433.224C145.651 433.224 146.067 433.16 146.403 433.016C146.723 432.872 146.963 432.712 147.123 432.52L146.323 431.16C146.115 431.352 145.875 431.432 145.587 431.432C145.075 431.432 144.835 431.16 144.835 430.584V426.696H146.867V425.016H144.835V422.936H142.915V425.016H141.539V426.696H142.915V430.856C142.915 431.624 143.123 432.2 143.555 432.616ZM149.432 429.64H155.4V428.904C155.4 428.104 155.24 427.384 154.936 426.76C154.616 426.152 154.184 425.672 153.608 425.32C153.032 424.968 152.376 424.792 151.624 424.792C150.872 424.792 150.184 424.984 149.576 425.352C148.968 425.72 148.472 426.216 148.12 426.856C147.768 427.496 147.592 428.216 147.592 429C147.592 429.816 147.768 430.536 148.12 431.176C148.472 431.816 148.968 432.328 149.576 432.68C150.184 433.048 150.872 433.224 151.64 433.224C152.568 433.224 153.32 433.016 153.928 432.584C154.536 432.168 154.952 431.608 155.208 430.92L153.592 430.424C153.464 430.744 153.24 431.032 152.904 431.272C152.568 431.528 152.152 431.64 151.64 431.64C151.224 431.64 150.856 431.56 150.536 431.368C150.216 431.176 149.96 430.936 149.768 430.616C149.576 430.312 149.464 429.992 149.432 429.64ZM153.432 427.352C153.592 427.64 153.672 427.912 153.704 428.168H149.448C149.544 427.672 149.768 427.256 150.152 426.904C150.536 426.552 151.032 426.376 151.64 426.376C152.056 426.376 152.424 426.472 152.728 426.664C153.032 426.856 153.272 427.08 153.432 427.352ZM164.004 432.488C164.852 432.968 165.812 433.208 166.9 433.208C168.116 433.208 169.14 432.936 169.972 432.36C170.788 431.8 171.396 431 171.812 429.944L169.972 429.336C169.748 429.96 169.396 430.456 168.9 430.84C168.388 431.224 167.732 431.416 166.932 431.416C166.228 431.416 165.604 431.256 165.044 430.92C164.484 430.584 164.052 430.104 163.732 429.496C163.412 428.888 163.252 428.2 163.252 427.4C163.252 426.648 163.396 425.96 163.716 425.352C164.02 424.744 164.452 424.248 165.012 423.896C165.556 423.544 166.18 423.368 166.884 423.368C167.7 423.368 168.372 423.576 168.884 423.976C169.396 424.392 169.764 424.952 169.988 425.656L171.86 425.048C171.476 423.928 170.852 423.064 169.988 422.456C169.108 421.864 168.068 421.56 166.868 421.56C165.78 421.56 164.82 421.816 163.988 422.312C163.14 422.824 162.484 423.512 162.004 424.392C161.524 425.288 161.3 426.28 161.3 427.384C161.3 428.552 161.54 429.576 162.02 430.456C162.5 431.336 163.156 432.008 164.004 432.488ZM175.124 432.664C175.748 433.048 176.452 433.224 177.252 433.224C178.036 433.224 178.74 433.048 179.38 432.664C180.004 432.296 180.5 431.784 180.868 431.144C181.22 430.504 181.412 429.784 181.412 429C181.412 428.232 181.22 427.512 180.868 426.872C180.5 426.232 180.004 425.736 179.38 425.352C178.74 424.984 178.036 424.792 177.252 424.792C176.468 424.792 175.764 424.984 175.124 425.352C174.484 425.736 173.988 426.232 173.636 426.872C173.284 427.512 173.108 428.232 173.108 429C173.108 429.784 173.284 430.504 173.636 431.144C173.988 431.784 174.484 432.296 175.124 432.664ZM178.852 430.76C178.42 431.224 177.892 431.448 177.252 431.448C176.596 431.448 176.068 431.224 175.652 430.76C175.236 430.312 175.028 429.72 175.028 429C175.028 428.296 175.236 427.72 175.652 427.256C176.068 426.808 176.596 426.568 177.252 426.568C177.892 426.568 178.42 426.808 178.852 427.256C179.268 427.72 179.492 428.296 179.492 429C179.492 429.704 179.268 430.296 178.852 430.76ZM182.976 425.016V433H184.896V428.616C184.896 427.976 185.056 427.464 185.392 427.112C185.712 426.76 186.144 426.568 186.656 426.568C187.68 426.568 188.208 427.192 188.208 428.424V433H190.128V428.168C190.128 427.032 189.872 426.184 189.392 425.624C188.896 425.08 188.192 424.792 187.264 424.792C186.24 424.792 185.424 425.192 184.832 425.976L184.56 425.016H182.976ZM192.054 425.016V433H193.974V428.616C193.974 427.976 194.134 427.464 194.47 427.112C194.79 426.76 195.222 426.568 195.734 426.568C196.758 426.568 197.286 427.192 197.286 428.424V433H199.206V428.168C199.206 427.032 198.95 426.184 198.47 425.624C197.974 425.08 197.27 424.792 196.342 424.792C195.318 424.792 194.502 425.192 193.91 425.976L193.638 425.016H192.054ZM202.62 429.64H208.588V428.904C208.588 428.104 208.428 427.384 208.124 426.76C207.804 426.152 207.372 425.672 206.796 425.32C206.22 424.968 205.564 424.792 204.812 424.792C204.06 424.792 203.372 424.984 202.764 425.352C202.156 425.72 201.66 426.216 201.308 426.856C200.956 427.496 200.78 428.216 200.78 429C200.78 429.816 200.956 430.536 201.308 431.176C201.66 431.816 202.156 432.328 202.764 432.68C203.372 433.048 204.06 433.224 204.828 433.224C205.756 433.224 206.508 433.016 207.116 432.584C207.724 432.168 208.14 431.608 208.396 430.92L206.78 430.424C206.652 430.744 206.428 431.032 206.092 431.272C205.756 431.528 205.34 431.64 204.828 431.64C204.412 431.64 204.044 431.56 203.724 431.368C203.404 431.176 203.148 430.936 202.956 430.616C202.764 430.312 202.652 429.992 202.62 429.64ZM206.62 427.352C206.78 427.64 206.86 427.912 206.892 428.168H202.636C202.732 427.672 202.956 427.256 203.34 426.904C203.724 426.552 204.22 426.376 204.828 426.376C205.244 426.376 205.612 426.472 205.916 426.664C206.22 426.856 206.46 427.08 206.62 427.352ZM211.811 432.68C212.435 433.048 213.139 433.224 213.939 433.224C214.771 433.224 215.507 433.016 216.131 432.568C216.755 432.12 217.203 431.528 217.491 430.776L215.747 430.184C215.587 430.6 215.363 430.904 215.043 431.128C214.723 431.352 214.355 431.448 213.939 431.448C213.283 431.448 212.755 431.224 212.339 430.76C211.923 430.312 211.731 429.72 211.731 429C211.731 428.296 211.923 427.704 212.339 427.256C212.755 426.808 213.283 426.568 213.939 426.568C214.387 426.568 214.771 426.696 215.091 426.92C215.411 427.16 215.635 427.48 215.795 427.896L217.539 427.304C217.283 426.552 216.851 425.944 216.211 425.48C215.571 425.032 214.803 424.792 213.939 424.792C213.139 424.792 212.435 424.984 211.811 425.352C211.171 425.72 210.691 426.232 210.339 426.872C209.987 427.512 209.811 428.232 209.811 429C209.811 429.8 209.987 430.52 210.339 431.16C210.691 431.8 211.171 432.312 211.811 432.68ZM220.336 432.616C220.752 433.032 221.296 433.224 221.952 433.224C222.432 433.224 222.848 433.16 223.184 433.016C223.504 432.872 223.744 432.712 223.904 432.52L223.104 431.16C222.896 431.352 222.656 431.432 222.368 431.432C221.856 431.432 221.616 431.16 221.616 430.584V426.696H223.648V425.016H221.616V422.936H219.696V425.016H218.32V426.696H219.696V430.856C219.696 431.624 219.904 432.2 220.336 432.616ZM225.18 425.016V433H227.1V425.016H225.18ZM225.308 423.592C225.532 423.816 225.788 423.928 226.108 423.928C226.412 423.928 226.684 423.816 226.908 423.592C227.132 423.368 227.26 423.112 227.26 422.792C227.26 422.488 227.132 422.216 226.908 421.992C226.684 421.768 226.412 421.656 226.108 421.656C225.788 421.656 225.532 421.768 225.308 421.992C225.084 422.216 224.988 422.488 224.988 422.792C224.988 423.112 225.084 423.368 225.308 423.592ZM230.749 432.664C231.373 433.048 232.077 433.224 232.877 433.224C233.661 433.224 234.365 433.048 235.005 432.664C235.629 432.296 236.125 431.784 236.493 431.144C236.845 430.504 237.037 429.784 237.037 429C237.037 428.232 236.845 427.512 236.493 426.872C236.125 426.232 235.629 425.736 235.005 425.352C234.365 424.984 233.661 424.792 232.877 424.792C232.093 424.792 231.389 424.984 230.749 425.352C230.109 425.736 229.613 426.232 229.261 426.872C228.909 427.512 228.733 428.232 228.733 429C228.733 429.784 228.909 430.504 229.261 431.144C229.613 431.784 230.109 432.296 230.749 432.664ZM234.477 430.76C234.045 431.224 233.517 431.448 232.877 431.448C232.221 431.448 231.693 431.224 231.277 430.76C230.861 430.312 230.653 429.72 230.653 429C230.653 428.296 230.861 427.72 231.277 427.256C231.693 426.808 232.221 426.568 232.877 426.568C233.517 426.568 234.045 426.808 234.477 427.256C234.893 427.72 235.117 428.296 235.117 429C235.117 429.704 234.893 430.296 234.477 430.76ZM238.601 425.016V433H240.521V428.616C240.521 427.976 240.681 427.464 241.017 427.112C241.337 426.76 241.769 426.568 242.281 426.568C243.305 426.568 243.833 427.192 243.833 428.424V433H245.753V428.168C245.753 427.032 245.497 426.184 245.017 425.624C244.521 425.08 243.817 424.792 242.889 424.792C241.865 424.792 241.049 425.192 240.457 425.976L240.185 425.016H238.601Z" fill="white"/>
<path d="M89.6431 436.984H86.4304C85.9784 436.984 85.6232 436.629 85.6232 436.177C85.6232 435.725 85.9784 435.37 86.4304 435.37H89.6431C90.0467 435.37 90.3857 435.031 90.3857 434.627V431.414C90.3857 430.962 90.7408 430.607 91.1928 430.607C91.6448 430.607 92 430.962 92 431.414V434.627C91.9839 435.919 90.9345 436.984 89.6431 436.984ZM74.8234 425.377C74.3714 425.377 74.0163 425.022 74.0163 424.57V421.357C74.0163 420.065 75.0656 419 76.3732 419H79.5859C80.0379 419 80.393 419.355 80.393 419.807C80.393 420.259 80.0379 420.614 79.5859 420.614H76.3572C75.9536 420.614 75.6146 420.953 75.6146 421.357V424.57C75.6307 425.022 75.2594 425.377 74.8236 425.377H74.8234ZM91.1766 425.377C90.7245 425.377 90.3694 425.022 90.3694 424.57V421.357C90.3694 420.953 90.0304 420.614 89.6268 420.614H86.4141C85.9621 420.614 85.607 420.259 85.607 419.807C85.607 419.355 85.9621 419 86.4141 419H89.6268C90.9183 419 91.9837 420.049 91.9837 421.357V424.57C91.9837 425.022 91.6286 425.377 91.1766 425.377ZM79.5856 436.984H76.3569C75.0655 436.984 74 435.935 74 434.627V431.414C74 430.962 74.3552 430.607 74.8072 430.607C75.2592 430.607 75.6143 430.962 75.6143 431.414V434.627C75.6143 435.031 75.9533 435.37 76.3569 435.37H79.5696C80.0216 435.37 80.3768 435.725 80.3768 436.177C80.3768 436.629 80.0216 436.984 79.5857 436.984H79.5856Z" fill="white" stroke="white" stroke-width="0.4"/>
<path opacity="0.6" d="M87.3954 428.864H78.5747C78.1969 428.864 77.9 428.508 77.9 428.056C77.9 427.604 78.1969 427.249 78.5747 427.249H87.3954C87.7732 427.249 88.07 427.604 88.07 428.056C88.07 428.508 87.7597 428.864 87.3954 428.864Z" fill="white" stroke="white" stroke-width="0.6"/>
</g>
<defs>
<filter id="filter0_dd_79_1200" x="22" y="383" width="277" height="108" filterUnits="userSpaceOnUse" color-interpolation-filters="sRGB">
<feFlood flood-opacity="0" result="BackgroundImageFix"/>
<feColorMatrix in="SourceAlpha" type="matrix" values="0 0 0 0 0 0 0 0 0 0 0 0 0 0 0 0 0 0 127 0" result="hardAlpha"/>
<feOffset dx="13" dy="18"/>
<feGaussianBlur stdDeviation="7"/>
<feColorMatrix type="matrix" values="0 0 0 0 0.117812 0 0 0 0 0.201006 0 0 0 0 0.3625 0 0 0 0.02 0"/>
<feBlend mode="normal" in2="BackgroundImageFix" result="effect1_dropShadow_79_1200"/>
<feColorMatrix in="SourceAlpha" type="matrix" values="0 0 0 0 0 0 0 0 0 0 0 0 0 0 0 0 0 0 127 0" result="hardAlpha"/>
<feOffset dy="9"/>
<feGaussianBlur stdDeviation="14"/>
<feColorMatrix type="matrix" values="0 0 0 0 0.0767708 0 0 0 0 0.132275 0 0 0 0 0.275 0 0 0 0.05 0"/>
<feBlend mode="normal" in2="effect1_dropShadow_79_1200" result="effect2_dropShadow_79_1200"/>
<feBlend mode="normal" in="SourceGraphic" in2="effect2_dropShadow_79_1200" result="shape"/>
</filter>
<linearGradient id="paint0_linear_79_1200" x1="160" y1="690" x2="160" y2="251" gradientUnits="userSpaceOnUse">
<stop offset="0.321337" stop-color="#787878"/>
<stop offset="1" stop-color="white"/>
</linearGradient>
<linearGradient id="paint1_linear_79_1200" x1="74.5" y1="16" x2="278.5" y2="187" gradientUnits="userSpaceOnUse">
<stop stop-color="#292929"/>
<stop offset="1" stop-color="#111111"/>
</linearGradient>
<linearGradient id="paint2_linear_79_1200" x1="74.5" y1="195" x2="278.5" y2="366" gradientUnits="userSpaceOnUse">
<stop stop-color="#292929"/>
<stop offset="1" stop-color="#111111"/>
</linearGradient>
<clipPath id="clip0_79_1200">
<rect width="320" height="488" fill="white"/>
</clipPath>
</defs>
</svg>
