<svg width="99" height="114" viewBox="0 0 99 114" fill="none" xmlns="http://www.w3.org/2000/svg">
<path d="M98.8719 102.53C98.6895 100.961 98.0321 99.4849 96.9877 98.2998C95.9432 97.1147 94.5616 96.277 93.0278 95.8989C92.8904 95.864 92.7554 95.8151 92.5179 95.7406C92.648 95.647 92.7731 95.5468 92.8928 95.4402C94.2432 94.0945 95.589 92.7417 96.9417 91.4006C97.0233 91.3291 97.0881 91.2405 97.1316 91.1411C97.1751 91.0417 97.1961 90.934 97.1932 90.8255C97.1815 89.3005 97.1932 87.7754 97.1932 86.2481C97.1932 86.1316 97.1815 86.0152 97.1745 85.8965H80.0591V91.1375H90.5528L84.4014 96.928C84.4072 96.9633 84.4173 96.9977 84.4317 97.0305C85.3234 98.0945 86.2128 99.1632 87.1162 100.22C87.1605 100.262 87.2139 100.292 87.2722 100.309C87.3304 100.326 87.3919 100.329 87.4515 100.318C88.2471 100.088 89.0865 100.053 89.8986 100.216C92.9975 100.76 94.1664 104.127 92.7577 106.602C92.1198 107.727 91.0976 108.332 89.838 108.595C89.2306 108.736 88.6005 108.75 87.9876 108.635C87.3747 108.52 86.7922 108.28 86.2771 107.928C85.762 107.577 85.3254 107.122 84.9949 106.593C84.6644 106.065 84.4473 105.473 84.3572 104.856C84.3269 104.656 84.3129 104.451 84.2896 104.237C84.2012 104.251 84.1523 104.253 84.1057 104.265C82.5038 104.73 80.9019 105.196 79.2977 105.662C79.0649 105.727 79.0649 105.859 79.0649 106.046C79.1451 107.798 79.8391 109.466 81.0253 110.758C82.6039 112.532 84.6249 113.499 86.9579 113.82C89.7309 114.202 92.3805 113.853 94.788 112.316C96.6547 111.149 98.0194 109.329 98.6158 107.21C99.0698 105.669 99.0744 104.106 98.8719 102.53Z" fill="white"/>
<path d="M74.7389 97.3727C74.1708 95.687 73.151 94.3855 71.4956 93.6474C70.3136 93.153 69.0316 92.9447 67.754 93.0397C66.1772 93.0708 64.6635 93.6645 63.4862 94.7138L62.3919 95.6963C62.173 95.1119 61.9262 94.5089 61.7259 93.8965C61.703 93.7945 61.6421 93.7051 61.5556 93.6463C61.4692 93.5875 61.3636 93.5637 61.2603 93.5799C59.982 93.5799 58.6991 93.5915 57.4232 93.5799C57.1229 93.5799 57.0181 93.673 57.0181 93.9827C57.0181 100.33 57.0181 106.677 57.0181 113.026C57.0181 113.329 57.1042 113.426 57.4139 113.424C58.9879 113.41 60.5641 113.424 62.1381 113.424C62.6387 113.424 62.6387 113.424 62.6387 112.924C62.6387 109.578 62.6387 106.232 62.6387 102.884C62.6015 102.048 62.7288 101.212 63.0135 100.425C63.6305 98.9187 64.7947 98.2551 66.357 98.2249C68.1148 98.1899 69.3116 99.1795 69.6166 100.909C69.7322 101.575 69.7922 102.248 69.7959 102.923C69.8145 106.269 69.7959 109.615 69.7959 112.961V113.396C69.9076 113.41 69.9682 113.424 70.0287 113.424C71.7144 113.424 73.4001 113.424 75.0858 113.424C75.3792 113.424 75.3908 113.282 75.3908 113.061C75.3908 109.147 75.3908 105.235 75.3699 101.324C75.3734 99.9814 75.1603 98.6473 74.7389 97.3727Z" fill="white"/>
<path d="M0.291039 113.406H5.84174V93.6033H0.291039V113.406Z" fill="white"/>
<path d="M2.99887 85.0001C2.19828 85.0242 1.43829 85.358 0.878918 85.9313C0.319551 86.5046 0.00446198 87.2725 5.26203e-10 88.0734C-1.49782e-05 88.8816 0.319756 89.657 0.889484 90.2302C1.45921 90.8034 2.23261 91.1279 3.04078 91.1329C3.44346 91.1301 3.84166 91.0481 4.21264 90.8914C4.58362 90.7348 4.92011 90.5066 5.20291 90.2199C5.4857 89.9332 5.70926 89.5936 5.86082 89.2206C6.01238 88.8475 6.08897 88.4482 6.08622 88.0455C6.08346 87.6428 6.00142 87.2446 5.84478 86.8736C5.68814 86.5027 5.45996 86.1662 5.17327 85.8834C4.88659 85.6006 4.54701 85.377 4.17392 85.2255C3.80084 85.0739 3.40155 84.9973 2.99887 85.0001Z" fill="white"/>
<path d="M24.913 95.4565C24.6801 95.2237 24.5241 95.0537 24.3449 94.8954C22.9316 93.6381 21.2598 93.077 19.3832 93.0328C15.1923 92.942 11.8302 95.3611 10.3028 99.126C9.18622 101.793 9.14451 104.789 10.1864 107.487C11.4972 110.958 13.9652 113.161 17.6579 113.82C20.2191 114.286 22.5474 113.736 24.4985 111.92C24.7174 111.717 24.92 111.499 25.1505 111.266C25.3833 111.906 25.5952 112.504 25.7814 113.114C25.8583 113.364 25.9793 113.422 26.2261 113.419C27.2459 113.406 28.2681 113.419 29.2879 113.419H30.473V85.8965H24.913V95.4565ZM23.1644 107.764C21.3018 109.492 18.0421 109.194 16.3774 107.263C14.7126 105.333 14.6288 101.859 16.2912 99.8803C17.5113 98.4321 19.0573 97.8198 20.9176 98.1481C22.6638 98.4554 23.8559 99.5148 24.4776 101.142C24.4939 101.182 24.5078 101.221 24.5218 101.261L24.5498 101.347C24.7643 102.045 24.8872 102.769 24.9153 103.499C24.913 105.17 24.4077 106.611 23.1644 107.764Z" fill="white"/>
<path d="M51.1903 96.1527C50.2511 95.0042 49.0174 94.1326 47.621 93.6312C45.8496 93.0105 43.9442 92.8754 42.1029 93.24C40.1112 93.5792 38.283 94.5546 36.8921 96.02C34.8898 98.0969 34.026 100.656 34.0143 103.501C33.9668 105.743 34.6374 107.942 35.9282 109.776C37.4067 111.857 39.4207 113.126 41.8817 113.701C43.3031 114.018 44.7729 114.053 46.2077 113.804C49.4511 113.282 51.6723 111.464 52.9738 108.474C53.0716 108.241 53.0437 108.162 52.7899 108.088C51.4464 107.699 50.1077 107.291 48.7689 106.879C48.7261 106.856 48.6787 106.843 48.6301 106.841C48.5816 106.838 48.5331 106.847 48.4884 106.866C48.4437 106.885 48.4038 106.914 48.3717 106.951C48.3397 106.987 48.3163 107.03 48.3032 107.077C47.9406 107.781 47.3839 108.367 46.699 108.765C45.0692 109.729 42.4848 109.697 40.8619 108.162C40.0377 107.385 39.444 106.479 39.3113 105.275C39.444 105.275 39.5604 105.247 39.6768 105.247C43.5395 105.247 52.5687 105.247 53.2206 105.247C53.4302 105.247 53.5419 105.184 53.5303 104.949C53.4674 103.71 53.4791 102.465 53.3417 101.235C53.1444 99.3654 52.3955 97.5962 51.1903 96.1527ZM39.3858 101.364C39.6931 99.3961 41.3509 97.438 44.3171 97.4799C47.0343 97.5218 48.5547 99.7104 48.6571 101.364H39.3858Z" fill="white"/>
<path d="M34.3318 64.391L34.548 40.6631L44.9175 46.7146V70.5193C44.7967 70.4587 44.6758 70.3939 44.555 70.3292L44.5361 70.319L34.3318 64.391Z" fill="#808080"/>
<path fill-rule="evenodd" clip-rule="evenodd" d="M70.4096 11.0806L76.9429 14.8523C79.4402 16.3566 81 19.1056 81 22.0204V49.2829C81 52.2704 79.3935 55.0533 76.8064 56.5449L70.4096 60.2229V11.0806Z" fill="white"/>
<path fill-rule="evenodd" clip-rule="evenodd" d="M53.0474 1.05694C51.8029 0.366506 50.4051 0 49.0031 0C47.6051 0 46.2074 0.366506 44.967 1.05279L21.0759 14.8437C18.5657 16.3523 17.0059 19.1055 17.0059 22.0203V49.2828C17.0059 52.266 18.6126 55.0533 21.1993 56.5448L27.5964 60.2228V23.1157L52.6638 8.64288V9.39727C52.6638 30.1255 52.6638 41.2289 52.6638 70.4424C52.8471 70.3486 63.0882 64.7017 63.0882 64.7017V11.6942C63.0882 8.70684 61.4813 5.92391 58.8944 4.4322L53.0474 1.05694Z" fill="white"/>
<path d="M17.0059 49.2707V22.0083C17.0059 20.4542 17.4493 18.9461 18.2437 17.648C19.0381 16.3499 18.2575 17.6255 18.2575 17.6255L27.5964 23.1037V60.2108L21.1993 56.5328C18.6126 55.0412 17.0059 52.254 17.0059 49.2707Z" fill="url(#paint0_radial_69_6583)"/>
<path fill-rule="evenodd" clip-rule="evenodd" d="M52.6637 5.79188C52.6637 3.22889 52.3686 1.82828 50.0883 0.699919C47.808 -0.428444 46.2072 0.366641 44.9669 1.05293L21.0757 14.8438C19.9116 15.5434 18.9519 16.5107 18.2574 17.6376C18.2574 17.6376 17.0057 19.3317 17.0057 22.6647C17.0057 25.9978 17.0057 35.9969 17.0057 35.9969C17.0057 35.9969 16.8426 35.3303 18.2574 31.3306C19.6721 27.331 27.6714 23.0917 27.6714 23.0917L52.6637 8.64302" fill="url(#paint1_linear_69_6583)"/>
<path d="M34.3375 58.469V32.5398C34.3375 30.9857 34.7809 29.4776 35.5753 28.1795C36.3697 26.8814 35.5891 28.157 35.5891 28.157L44.928 33.6352V69.409L38.5309 65.731C35.9442 64.2395 34.3375 61.4523 34.3375 58.469Z" fill="url(#paint2_radial_69_6583)"/>
<path d="M35.5892 28.169C36.2837 27.042 37.2434 26.0747 38.4075 25.3751L52.6577 17.1494V29.1978L45.0032 33.6231C45.0032 33.6231 37.0038 37.8623 35.5891 41.862C34.572 44.7375 34.3705 45.8903 34.3375 46.3111V46.5282C34.3375 46.5282 34.3246 46.4756 34.3375 46.3111V33.1961C34.3375 29.863 35.5892 28.169 35.5892 28.169Z" fill="url(#paint3_linear_69_6583)"/>
<defs>
<radialGradient id="paint0_radial_69_6583" cx="0" cy="0" r="1" gradientUnits="userSpaceOnUse" gradientTransform="translate(27.6659 15.332) rotate(85.5588) scale(68.8673 36.562)">
<stop offset="0.260417" stop-color="#434343"/>
<stop offset="1" stop-color="#BCBCBC"/>
</radialGradient>
<linearGradient id="paint1_linear_69_6583" x1="24.3327" y1="-9.3324" x2="40.3313" y2="18.6651" gradientUnits="userSpaceOnUse">
<stop offset="0.026092" stop-color="#CFCFCF"/>
<stop offset="0.700032" stop-color="#585858"/>
</linearGradient>
<radialGradient id="paint2_radial_69_6583" cx="0" cy="0" r="1" gradientUnits="userSpaceOnUse" gradientTransform="translate(44.9975 25.8635) rotate(85.5588) scale(68.8673 36.562)">
<stop offset="0.260417" stop-color="#434343"/>
<stop offset="1" stop-color="#BCBCBC"/>
</radialGradient>
<linearGradient id="paint3_linear_69_6583" x1="69.6677" y1="19.1973" x2="34.3375" y2="49.1946" gradientUnits="userSpaceOnUse">
<stop offset="0.026092" stop-color="#656565"/>
<stop offset="0.700032" stop-color="#585858"/>
</linearGradient>
</defs>
</svg>
