<svg width="186" height="38" viewBox="0 0 186 38" fill="none" xmlns="http://www.w3.org/2000/svg">
<path fill-rule="evenodd" clip-rule="evenodd" d="M17.1119 30.7791C17.187 30.7868 17.2565 30.8136 17.3156 30.8546L17.3667 30.8895C19.6207 32.4129 22.3321 33.3015 25.2491 33.3015C31.8414 33.3015 37.3829 28.7636 38.9708 22.6157C39.155 21.7694 39.9024 21.1357 40.7966 21.1357L40.789 21.1355H43.4739L43.5168 21.138C43.738 21.1606 43.9106 21.349 43.9106 21.5781L43.9141 21.5782L43.909 21.6159C43.9075 21.6341 43.9049 21.6519 43.9012 21.6694L43.9141 21.5782C42.6667 30.8521 34.7855 38 25.2491 38C19.6073 38 14.5448 35.4982 11.0925 31.5345C11.0116 31.4541 10.9615 31.3426 10.9615 31.2192C10.9615 30.9749 11.1579 30.7768 11.4001 30.7768L11.3957 30.7771L11.396 30.7768H17.0676L17.1119 30.7791ZM6.55859 21.3799L11.2659 21.38C11.5456 23.0642 12.117 24.6485 12.9261 26.0784L7.76293 26.0786C7.17236 24.5957 6.76182 23.0203 6.55859 21.3799ZM25.2491 0C30.8158 0 35.8185 2.4356 39.267 6.30793L39.2884 6.3316C39.3509 6.40808 39.3885 6.50611 39.3885 6.61301C39.3885 6.85733 39.1922 7.0554 38.9499 7.0554L38.9519 7.05509L38.9499 7.0554L33.1859 7.05474L33.1786 7.0554C33.0846 7.0554 32.9975 7.02556 32.9261 6.97475L32.8758 6.9416C30.6737 5.5216 28.0567 4.69851 25.2491 4.69851C18.7388 4.69851 13.2533 9.12428 11.5885 15.1557L11.5826 15.1558C11.4166 16.0248 10.6586 16.6813 9.74859 16.6813L9.7545 16.6809L7.05305 16.6813C6.81082 16.6813 6.61446 16.4832 6.61446 16.2389C6.61446 16.2387 6.61446 16.2386 6.61446 16.2385L6.60977 16.2385C7.93561 7.05387 15.7757 0 25.2491 0ZM42.6675 11.7534C43.272 13.2302 43.6974 14.8007 43.9161 16.4372L39.2009 16.4374C38.8992 14.7555 38.3059 13.1759 37.4758 11.7538L42.6675 11.7534Z" fill="white"/>
<path d="M15.6834 21.3795L15.6835 21.379L15.7159 21.3772C15.8488 21.359 15.9512 21.2441 15.9512 21.1051C15.9512 21.084 15.9489 21.0634 15.9444 21.0436C15.8034 20.385 15.7289 19.7013 15.7289 18.9999C15.7289 13.6964 19.9914 9.39697 25.2494 9.39697C27.5849 9.39697 29.724 10.2452 31.3804 11.6529C31.4529 11.7069 31.5424 11.7386 31.6393 11.7386H50.0533L50.0531 11.7386L50.0603 11.7386C50.2874 11.7386 50.4741 11.9127 50.4966 12.1358L50.4989 12.181L50.4988 12.1886L50.4983 14.5334L50.4989 14.5531C50.4989 15.5676 49.7039 16.3948 48.7081 16.4355L48.6311 16.4371L29.6344 16.437L29.5898 16.4348C29.4622 16.4218 29.3508 16.3535 29.2793 16.2542L29.2787 16.2538C28.4046 14.9515 26.9261 14.0955 25.2494 14.0955C22.564 14.0955 20.3871 16.2913 20.3871 18.9999C20.3871 21.7086 22.564 23.9044 25.2494 23.9044C27.0732 23.9044 28.6625 22.8916 29.4946 21.3931C29.5636 21.2409 29.7159 21.1356 29.8925 21.1356L33.9463 21.1357L33.9461 21.1365L33.9684 21.1356C34.1955 21.1356 34.3823 21.3097 34.4047 21.5328L34.407 21.578C34.407 21.6351 34.3963 21.6896 34.3768 21.7397L34.3852 21.7097L34.3485 21.8344C33.1496 25.7544 29.5293 28.6029 25.2494 28.6029C22.8266 28.6029 20.6152 27.6901 18.9347 26.1868L18.9333 26.1868C18.8566 26.12 18.7569 26.0796 18.6478 26.0796L18.6477 26.0779L0.445189 26.0781L0.444844 26.0775L0.438595 26.0782C0.211505 26.0782 0.0247248 25.9041 0.00226441 25.6811L0 25.6358L0 23.2561L0.00155795 23.186C0.0419344 22.1816 0.862035 21.3797 1.86781 21.3797L15.6834 21.3795Z" fill="url(#paint0_linear_2_107)"/>
<path d="M70.9744 31.9623C73.5633 31.9623 75.7835 31.2683 77.635 29.8804C79.4865 28.4925 80.8383 26.6584 81.6903 24.3783L77.3155 22.8912C76.8239 24.3122 76.0211 25.4357 74.9069 26.2619C73.7927 27.088 72.4819 27.5011 70.9744 27.5011C69.4998 27.5011 68.189 27.1376 67.042 26.4106C65.895 25.6836 64.9938 24.6757 64.3384 23.3869C63.683 22.0981 63.3553 20.6441 63.3553 19.0248C63.3553 17.4056 63.683 15.9433 64.3384 14.638C64.9938 13.3327 65.895 12.3165 67.042 11.5895C68.189 10.8625 69.4998 10.499 70.9744 10.499C72.5146 10.499 73.8418 10.9121 74.956 11.7382C76.0702 12.5644 76.8567 13.7045 77.3155 15.1585H82.3097C81.5629 11.3594 79.675 9.50765 77.8071 8.11973C75.9391 6.7318 73.6616 6.03784 70.9744 6.03784C68.5167 6.03784 66.3456 6.62441 64.4613 7.79753C62.577 8.97066 61.1188 10.5486 60.0865 12.5313C59.0542 14.5141 58.5381 16.6786 58.5381 19.0248C58.5381 21.3381 59.046 23.486 60.0619 25.4688C61.0778 27.4515 62.5279 29.0295 64.4122 30.2026C66.2965 31.3757 68.4839 31.9623 70.9744 31.9623Z" fill="white"/>
<path d="M70.9744 6.03795C73.5633 6.03795 75.7835 6.73192 77.635 8.11984C79.4865 9.50777 80.8383 11.3418 81.6903 13.622L77.3155 15.109C76.8239 13.6881 76.0211 12.5645 74.9069 11.7384C73.7927 10.9122 72.4819 10.4991 70.9744 10.4991C69.4998 10.4991 68.189 10.8626 67.042 11.5897C65.895 12.3167 64.9938 13.3246 64.3384 14.6133C63.683 15.9021 63.3553 17.3561 63.3553 18.9754C63.3553 20.5946 63.683 22.0569 64.3384 23.3622C64.9938 24.6675 65.895 25.6837 67.042 26.4107C68.189 27.1377 69.4998 27.5012 70.9744 27.5012C72.5146 27.5012 73.8418 27.0881 74.956 26.262C76.0702 25.4359 76.8567 24.2958 77.3155 22.8418H82.3097C81.5629 26.6408 79.675 28.4926 77.8071 29.8805C75.9391 31.2684 73.6616 31.9624 70.9744 31.9624C68.5167 31.9624 66.3456 31.3758 64.4613 30.2027C62.577 29.0296 61.1188 27.4516 60.0865 25.4689C59.0542 23.4861 58.5381 21.3216 58.5381 18.9754C58.5381 16.6622 59.046 14.5142 60.0619 12.5315C61.0778 10.5487 62.5279 8.97077 64.4122 7.79765C66.2965 6.62452 68.4839 6.03795 70.9744 6.03795Z" fill="white"/>
<path d="M88.7538 31.2682V6.73169H83.9365V31.2682H88.7538Z" fill="white"/>
<path d="M102.772 6.03784C103.722 6.03784 104.574 6.16176 105.328 6.40961C106.019 6.63677 106.985 7.06673 107.538 7.52787C106.362 8.5312 105.405 9.74231 104.667 11.1606C104.525 11.0963 104.311 11.0162 104.025 10.9204C103.485 10.7386 102.854 10.6477 102.133 10.6477C100.527 10.6477 99.1917 11.2839 98.1267 12.5561C97.0617 13.8284 96.5292 15.5385 96.5292 17.6865V31.2683H91.7119V6.7318H96.4308V9.80506C97.0207 8.7476 97.8645 7.85536 98.9624 7.12835C100.06 6.40135 101.33 6.03784 102.772 6.03784Z" fill="white"/>
<path d="M116.912 6.03784C119.599 6.03784 121.877 6.7318 123.745 8.11973C124.501 8.68187 125.166 9.31991 125.74 10.0338C125.05 10.7942 124.457 11.6432 123.961 12.5809C123.605 13.2527 123.31 13.9435 123.075 14.6532C122.603 13.4378 121.875 12.4662 120.894 11.7382C119.779 10.9121 118.452 10.499 116.912 10.499C115.437 10.499 114.126 10.8625 112.979 11.5895C111.833 12.3165 110.931 13.3327 110.276 14.638C109.621 15.9433 109.293 17.4056 109.293 19.0248C109.293 20.6441 109.621 22.0981 110.276 23.3869C110.931 24.6757 111.833 25.6836 112.979 26.4106C114.126 27.1376 115.437 27.5011 116.912 27.5011C118.419 27.5011 119.73 27.088 120.844 26.2619C121.83 25.5309 122.572 24.5671 123.071 23.3705C123.301 24.0701 123.589 24.7531 123.936 25.4192C124.41 26.3295 124.977 27.1562 125.637 27.8993C125.037 28.6381 124.349 29.2985 123.572 29.8804C121.721 31.2683 119.501 31.9623 116.912 31.9623C114.421 31.9623 112.234 31.3757 110.35 30.2026C108.465 29.0295 107.015 27.4515 105.999 25.4688C104.984 23.486 104.476 21.3381 104.476 19.0248C104.476 16.6786 104.992 14.5141 106.024 12.5313C107.056 10.5486 108.515 8.97066 110.399 7.79753C112.283 6.62441 114.454 6.03784 116.912 6.03784Z" fill="white"/>
<path d="M136.959 6.03784C139.417 6.03784 141.596 6.63267 143.497 7.82232C145.398 9.01197 146.872 10.5982 147.921 12.5809C148.97 14.5637 149.494 16.7116 149.494 19.0248C149.494 21.305 148.97 23.4365 147.921 25.4192C146.872 27.402 145.398 28.9882 143.497 30.1778C141.596 31.3675 139.417 31.9623 136.959 31.9623C134.502 31.9623 132.314 31.3675 130.397 30.1778C128.48 28.9882 127.005 27.402 125.973 25.4192C124.941 23.4365 124.425 21.305 124.425 19.0248C124.425 16.7116 124.949 14.5637 125.998 12.5809C127.046 10.5982 128.529 9.01197 130.446 7.82232C132.363 6.63267 134.534 6.03784 136.959 6.03784ZM136.959 10.499C135.485 10.499 134.158 10.8708 132.978 11.6143C131.798 12.3579 130.88 13.374 130.225 14.6628C129.57 15.9516 129.242 17.4056 129.242 19.0248C129.242 20.6441 129.57 22.0981 130.225 23.3869C130.88 24.6757 131.798 25.6836 132.978 26.4106C134.158 27.1376 135.485 27.5011 136.959 27.5011C138.434 27.5011 139.753 27.1376 140.916 26.4106C142.08 25.6836 142.997 24.6674 143.669 23.3621C144.341 22.0568 144.677 20.611 144.677 19.0248C144.677 17.4056 144.341 15.9516 143.669 14.6628C142.997 13.374 142.08 12.3579 140.916 11.6143C139.753 10.8708 138.434 10.499 136.959 10.499Z" fill="white"/>
<path d="M155.622 31.2683V17.3891C155.622 15.2411 156.163 13.5723 157.244 12.3826C158.325 11.193 159.669 10.5982 161.275 10.5982C164.421 10.5982 165.994 12.5644 165.994 16.4968V31.2683H170.811V17.3891C170.811 15.2411 171.344 13.5723 172.409 12.3826C173.474 11.193 174.809 10.5982 176.415 10.5982C177.955 10.5982 179.135 11.0443 179.954 11.9365C180.773 12.8288 181.183 14.3489 181.183 16.4968V31.2683H186V14.9602C186 11.9861 185.271 9.7555 183.813 8.26843C182.354 6.78137 180.445 6.03784 178.086 6.03784C176.316 6.03784 174.743 6.40135 173.367 7.12835C171.991 7.85536 170.86 8.83021 169.975 10.0529C169.418 8.86326 168.566 7.89667 167.419 7.15314C166.272 6.40961 164.847 6.03784 163.143 6.03784C161.471 6.03784 159.989 6.37656 158.694 7.054C157.4 7.73144 156.326 8.66498 155.474 9.85463V6.7318H150.805V31.2683H155.622Z" fill="white"/>
<defs>
<linearGradient id="paint0_linear_2_107" x1="17.5" y1="1.5" x2="15.8795" y2="33.7875" gradientUnits="userSpaceOnUse">
<stop stop-color="#C6C6C6"/>
<stop offset="1" stop-color="#4E4E4E"/>
</linearGradient>
</defs>
</svg>
