<svg width="139" height="48" viewBox="0 0 139 48" fill="none" xmlns="http://www.w3.org/2000/svg">
<path d="M138.889 27.5189C138.738 26.2193 138.193 24.9968 137.328 24.0153C136.463 23.0337 135.319 22.3399 134.048 22.0268C133.935 21.9979 133.823 21.9574 133.626 21.8957C133.734 21.8182 133.838 21.7352 133.937 21.6469C135.055 20.5323 136.17 19.4119 137.29 18.3012C137.358 18.2419 137.411 18.1686 137.447 18.0862C137.483 18.0039 137.501 17.9147 137.498 17.8248C137.489 16.5617 137.498 15.2986 137.498 14.0336C137.498 13.9372 137.489 13.8408 137.483 13.7424H123.307V18.0832H131.999L126.904 22.8792C126.909 22.9084 126.917 22.9369 126.929 22.964C127.667 23.8453 128.404 24.7304 129.152 25.6059C129.189 25.6403 129.233 25.6655 129.281 25.6796C129.33 25.6936 129.381 25.6961 129.43 25.6869C130.089 25.4962 130.784 25.4671 131.457 25.6021C134.023 26.0533 134.991 28.8418 133.825 30.8916C133.296 31.8231 132.45 32.3244 131.407 32.5423C130.904 32.6593 130.382 32.6706 129.874 32.5755C129.366 32.4804 128.884 32.281 128.457 31.9899C128.031 31.6988 127.669 31.3224 127.395 30.8844C127.122 30.4464 126.942 29.9564 126.867 29.4453C126.842 29.2795 126.83 29.1098 126.811 28.9324C126.738 28.944 126.697 28.9459 126.659 28.9555C125.332 29.3412 124.005 29.7269 122.677 30.1126C122.484 30.1666 122.484 30.2765 122.484 30.4308C122.55 31.882 123.125 33.2636 124.108 34.3338C125.415 35.8033 127.089 36.6035 129.021 36.8697C131.318 37.1859 133.512 36.8967 135.506 35.6239C137.052 34.6577 138.183 33.1499 138.677 31.395C139.053 30.1184 139.057 28.8244 138.889 27.5189Z" fill="white"/>
<path d="M118.901 23.2477C118.431 21.8515 117.586 20.7735 116.215 20.1622C115.236 19.7527 114.174 19.5803 113.116 19.6589C111.81 19.6846 110.556 20.1764 109.581 21.0454L108.675 21.8592C108.494 21.3752 108.289 20.8757 108.123 20.3686C108.104 20.2841 108.054 20.21 107.982 20.1613C107.911 20.1126 107.823 20.0929 107.738 20.1063C106.679 20.1063 105.616 20.1159 104.56 20.1063C104.311 20.1063 104.224 20.1834 104.224 20.4399C104.224 25.6967 104.224 30.9542 104.224 36.2123C104.224 36.4629 104.295 36.5439 104.552 36.542C105.856 36.5304 107.161 36.542 108.465 36.542C108.879 36.542 108.879 36.542 108.879 36.1274C108.879 33.3563 108.879 30.5852 108.879 27.8122C108.848 27.1196 108.954 26.4277 109.19 25.7758C109.701 24.5281 110.665 23.9785 111.959 23.9535C113.415 23.9245 114.406 24.7441 114.659 26.1769C114.754 26.7278 114.804 27.2858 114.807 27.845C114.823 30.6161 114.807 33.3872 114.807 36.1583V36.5189C114.9 36.5304 114.95 36.542 115 36.542C116.396 36.542 117.792 36.542 119.188 36.542C119.431 36.542 119.441 36.4244 119.441 36.2412C119.441 32.9996 119.441 29.7598 119.424 26.5201C119.427 25.4083 119.25 24.3033 118.901 23.2477Z" fill="white"/>
<path d="M57.2412 36.5265H61.8385V20.1255H57.2412V36.5265Z" fill="white"/>
<path d="M59.4838 13.0001C58.8207 13.02 58.1912 13.2965 57.728 13.7713C57.2647 14.2461 57.0037 14.8822 57 15.5455C57 16.2149 57.2648 16.8571 57.7367 17.3319C58.2086 17.8066 58.8491 18.0754 59.5185 18.0795C59.852 18.0772 60.1818 18.0092 60.4891 17.8795C60.7963 17.7497 61.075 17.5608 61.3092 17.3233C61.5435 17.0859 61.7286 16.8046 61.8541 16.4956C61.9797 16.1866 62.0431 15.8559 62.0408 15.5224C62.0385 15.1889 61.9706 14.8591 61.8409 14.5518C61.7111 14.2446 61.5221 13.9659 61.2847 13.7316C61.0472 13.4974 60.766 13.3123 60.457 13.1867C60.148 13.0612 59.8173 12.9978 59.4838 13.0001V13.0001Z" fill="white"/>
<path d="M77.6336 21.6604C77.4408 21.4676 77.3116 21.3268 77.1631 21.1957C75.9926 20.1543 74.608 19.6896 73.0537 19.653C69.5826 19.5778 66.798 21.5814 65.533 24.6996C64.6082 26.9089 64.5736 29.3902 65.4366 31.6244C66.5222 34.4997 68.5663 36.3239 71.6248 36.8697C73.746 37.2553 75.6744 36.8002 77.2904 35.2961C77.4717 35.1283 77.6394 34.9471 77.8303 34.7542C78.0232 35.2845 78.1987 35.7801 78.3529 36.2854C78.4166 36.4917 78.5169 36.5399 78.7213 36.538C79.5659 36.5264 80.4125 36.538 81.2571 36.538H82.2387V13.7424H77.6336V21.6604ZM76.1854 31.8539C74.6427 33.2848 71.943 33.0379 70.5642 31.4393C69.1854 29.8407 69.1159 26.9635 70.4928 25.3244C71.5033 24.1249 72.7837 23.6177 74.3245 23.8896C75.7708 24.1442 76.7582 25.0216 77.273 26.3696C77.2865 26.4023 77.2981 26.4351 77.3097 26.4679L77.3328 26.5393C77.5105 27.1176 77.6123 27.7165 77.6356 28.3211C77.6336 29.7057 77.2152 30.8994 76.1854 31.8539Z" fill="white"/>
<path d="M99.3976 22.2372C98.6198 21.2859 97.5979 20.5641 96.4414 20.1487C94.9742 19.6347 93.3962 19.5228 91.8711 19.8248C90.2215 20.1057 88.7073 20.9136 87.5554 22.1273C85.897 23.8474 85.1815 25.9667 85.1719 28.3232C85.1325 30.1803 85.6879 32.0013 86.757 33.5202C87.9816 35.2442 89.6496 36.2952 91.6879 36.7715C92.8652 37.0339 94.0825 37.0628 95.2709 36.8563C97.9571 36.4244 99.7968 34.9183 100.875 32.4423C100.956 32.2494 100.933 32.1838 100.722 32.1221C99.6098 31.8001 98.5009 31.4626 97.3921 31.1213C97.3567 31.1022 97.3174 31.0912 97.2772 31.0894C97.237 31.0875 97.1969 31.0947 97.1598 31.1104C97.1228 31.1262 97.0897 31.1501 97.0632 31.1803C97.0366 31.2106 97.0172 31.2464 97.0064 31.2852C96.7061 31.8685 96.245 32.3537 95.6778 32.6833C94.3279 33.4817 92.1874 33.4547 90.8433 32.1838C90.1606 31.5398 89.6689 30.7896 89.559 29.7926C89.6689 29.7926 89.7653 29.7695 89.8617 29.7695C93.0609 29.7695 100.539 29.7695 101.079 29.7695C101.253 29.7695 101.345 29.7174 101.336 29.5227C101.284 28.4968 101.293 27.4651 101.179 26.4469C101.016 24.898 100.396 23.4327 99.3976 22.2372ZM89.6207 26.5529C89.8752 24.9234 91.2483 23.3017 93.705 23.3364C95.9555 23.3711 97.2147 25.1838 97.2996 26.5529H89.6207Z" fill="white"/>
<path d="M11.7969 43.8287L11.9441 27.678L19.0022 31.797V48.0001C18.92 47.9588 18.8377 47.9147 18.7555 47.8706L18.7426 47.8637L11.7969 43.8287Z" fill="#808080"/>
<path fill-rule="evenodd" clip-rule="evenodd" d="M36.3535 7.54224L40.8005 10.1095C42.5003 11.1335 43.562 13.0046 43.562 14.9886V33.5452C43.562 35.5787 42.4685 37.473 40.7076 38.4882L36.3535 40.9917V7.54224Z" fill="white"/>
<path fill-rule="evenodd" clip-rule="evenodd" d="M24.5361 0.719419C23.689 0.249468 22.7376 0 21.7833 0C20.8318 0 19.8804 0.249468 19.0361 0.7166L2.77422 10.1036C1.06561 11.1304 0.00390625 13.0045 0.00390625 14.9885V33.5451C0.00390625 35.5757 1.09753 37.4728 2.85824 38.4881L7.21253 40.9916V15.7341L24.275 5.88291V6.39639C24.275 20.5053 24.275 28.0631 24.275 47.9477C24.3998 47.8838 31.3705 44.0402 31.3705 44.0402V7.95985C31.3705 5.92644 30.2768 4.0322 28.516 3.01685L24.5361 0.719419Z" fill="white"/>
<path d="M0.00390625 33.5369V14.9803C0.00390625 13.9225 0.30571 12.896 0.84645 12.0124C1.38719 11.1289 0.855866 11.9971 0.855866 11.9971L7.21253 15.7259V40.9834L2.85824 38.4799C1.09753 37.4647 0.00390625 35.5675 0.00390625 33.5369Z" fill="url(#paint0_radial_138_1176)"/>
<path fill-rule="evenodd" clip-rule="evenodd" d="M24.275 3.94224C24.275 2.1977 24.0742 1.24436 22.522 0.476321C20.9699 -0.291716 19.8804 0.24947 19.0361 0.716602L2.77421 10.1036C1.98185 10.5798 1.32862 11.2382 0.855872 12.0052C0.855872 12.0052 0.00389853 13.1583 0.00389853 15.427C0.00389853 17.6957 0.00389853 24.5017 0.00389853 24.5017C0.00389853 24.5017 -0.107111 24.048 0.855837 21.3256C1.81879 18.6032 7.26368 15.7177 7.26368 15.7177L24.275 5.88291" fill="url(#paint1_linear_138_1176)"/>
<path d="M11.8013 39.7979V22.1488C11.8013 21.091 12.1031 20.0644 12.6438 19.1809C13.1846 18.2973 12.6532 19.1656 12.6532 19.1656L19.0099 22.8944V47.2444L14.6556 44.7409C12.8949 43.7257 11.8013 41.8285 11.8013 39.7979Z" fill="url(#paint2_radial_138_1176)"/>
<path d="M12.6527 19.1737C13.1255 18.4067 13.7787 17.7483 14.5711 17.2721L24.2707 11.6731V19.874L19.0605 22.8862C19.0605 22.8862 13.6157 25.7716 12.6527 28.4941C11.9604 30.4514 11.8232 31.236 11.8008 31.5224V31.6702C11.8008 31.6702 11.792 31.6344 11.8008 31.5224V22.5955C11.8008 20.3268 12.6527 19.1737 12.6527 19.1737Z" fill="url(#paint3_linear_138_1176)"/>
<defs>
<radialGradient id="paint0_radial_138_1176" cx="0" cy="0" r="1" gradientUnits="userSpaceOnUse" gradientTransform="translate(7.25981 10.436) rotate(85.5588) scale(46.8756 24.8865)">
<stop offset="0.260417" stop-color="#434343"/>
<stop offset="1" stop-color="#BCBCBC"/>
</radialGradient>
<linearGradient id="paint1_linear_138_1176" x1="4.9911" y1="-6.35233" x2="15.8808" y2="12.7046" gradientUnits="userSpaceOnUse">
<stop offset="0.026092" stop-color="#CFCFCF"/>
<stop offset="0.700032" stop-color="#585858"/>
</linearGradient>
<radialGradient id="paint2_radial_138_1176" cx="0" cy="0" r="1" gradientUnits="userSpaceOnUse" gradientTransform="translate(19.0572 17.6045) rotate(85.5588) scale(46.8756 24.8865)">
<stop offset="0.260417" stop-color="#434343"/>
<stop offset="1" stop-color="#BCBCBC"/>
</radialGradient>
<linearGradient id="paint3_linear_138_1176" x1="35.8488" y1="13.067" x2="11.8008" y2="33.4852" gradientUnits="userSpaceOnUse">
<stop offset="0.026092" stop-color="#656565"/>
<stop offset="0.700032" stop-color="#585858"/>
</linearGradient>
</defs>
</svg>
