<svg width="320" height="488" viewBox="0 0 320 488" fill="none" xmlns="http://www.w3.org/2000/svg">
<g clip-path="url(#clip0_94_500)">
<path d="M0 20C0 8.95431 8.95431 0 20 0H300C311.046 0 320 8.95431 320 20V488H0V20Z" fill="url(#paint0_linear_94_500)"/>
<rect x="16" y="16" width="288" height="163" rx="14" fill="url(#paint1_linear_94_500)"/>
<path d="M47.82 52H45.84V41.7L41.44 52H39.96L35.6 41.74L35.58 52H33.6V38H35.88L40.72 49.32L45.54 38H47.84L47.82 52ZM59.5214 42.1V51.82C59.5214 52.6733 59.3547 53.44 59.0214 54.12C58.6881 54.8133 58.1814 55.36 57.5014 55.76C56.8347 56.16 56.0014 56.36 55.0014 56.36C53.8414 56.36 52.9081 56.0733 52.2014 55.5C51.4947 54.94 51.0081 54.1733 50.7414 53.2L52.5814 52.8C52.8747 54.04 53.6814 54.66 55.0014 54.66C55.8414 54.66 56.4747 54.4133 56.9014 53.92C57.3414 53.4267 57.5614 52.74 57.5614 51.86V50.5C57.1614 50.9933 56.7147 51.3667 56.2214 51.62C55.7281 51.86 55.1081 51.98 54.3614 51.98C53.3081 51.98 52.4481 51.66 51.7814 51.02C51.1147 50.3667 50.7814 49.3867 50.7814 48.08V42.1H52.7414V47.64C52.7414 48.5467 52.9347 49.1933 53.3214 49.58C53.7081 49.9667 54.2547 50.16 54.9614 50.16C55.7214 50.16 56.3414 49.9133 56.8214 49.42C57.3147 48.9133 57.5614 48.2133 57.5614 47.32V42.1H59.5214ZM67.8336 42.1H69.7936V52H67.8336V42.1ZM68.8336 40.64C68.4736 40.64 68.1669 40.52 67.9136 40.28C67.6603 40.0267 67.5336 39.72 67.5336 39.36C67.5336 39.0133 67.6603 38.7133 67.9136 38.46C68.1669 38.2067 68.4736 38.08 68.8336 38.08C69.1803 38.08 69.4736 38.2067 69.7136 38.46C69.9669 38.7133 70.0936 39.0133 70.0936 39.36C70.0936 39.72 69.9669 40.0267 69.7136 40.28C69.4736 40.52 69.1803 40.64 68.8336 40.64ZM76.7992 52.26C75.8792 52.26 75.0526 52.02 74.3192 51.54C73.5992 51.0467 73.0392 50.4 72.6392 49.6C72.2392 48.8 72.0392 47.9467 72.0392 47.04C72.0392 46.1067 72.2259 45.2467 72.5992 44.46C72.9859 43.66 73.5392 43.02 74.2592 42.54C74.9792 42.06 75.8192 41.82 76.7792 41.82C77.5126 41.82 78.1592 41.9667 78.7192 42.26C79.2792 42.5533 79.7259 42.9267 80.0592 43.38V38H82.0192V52H80.3992L80.1392 50.66C79.8059 51.1133 79.3592 51.4933 78.7992 51.8C78.2392 52.1067 77.5726 52.26 76.7992 52.26ZM77.0392 50.5C77.9326 50.5 78.6592 50.18 79.2192 49.54C79.7792 48.8867 80.0592 48.0533 80.0592 47.04C80.0592 46.0267 79.7792 45.2 79.2192 44.56C78.6592 43.9067 77.9326 43.58 77.0392 43.58C76.4526 43.58 75.9259 43.7267 75.4592 44.02C75.0059 44.3133 74.6459 44.7267 74.3792 45.26C74.1259 45.78 73.9992 46.3733 73.9992 47.04C73.9992 47.6933 74.1259 48.2867 74.3792 48.82C74.6459 49.34 75.0059 49.7533 75.4592 50.06C75.9259 50.3533 76.4526 50.5 77.0392 50.5ZM86.0681 47.66C86.1081 48.1933 86.2548 48.6867 86.5081 49.14C86.7748 49.5933 87.1348 49.96 87.5881 50.24C88.0415 50.5067 88.5548 50.64 89.1281 50.64C89.8215 50.64 90.4015 50.4733 90.8681 50.14C91.3481 49.7933 91.6681 49.3867 91.8281 48.92L93.5081 49.46C93.2148 50.2867 92.6948 50.9667 91.9481 51.5C91.2015 52.02 90.2615 52.28 89.1281 52.28C88.1681 52.28 87.3081 52.0533 86.5481 51.6C85.8015 51.1333 85.2148 50.5 84.7881 49.7C84.3748 48.9 84.1681 48.0133 84.1681 47.04C84.1681 46.08 84.3815 45.2067 84.8081 44.42C85.2481 43.62 85.8415 42.9933 86.5881 42.54C87.3481 42.0733 88.1881 41.84 89.1081 41.84C90.0415 41.84 90.8548 42.0533 91.5481 42.48C92.2548 42.8933 92.8015 43.48 93.1881 44.24C93.5748 45 93.7681 45.88 93.7681 46.88V47.66H86.0681ZM92.0081 46.12C91.9548 45.4133 91.6681 44.8 91.1481 44.28C90.6415 43.7467 89.9681 43.48 89.1281 43.48C88.2881 43.48 87.6015 43.7333 87.0681 44.24C86.5348 44.7467 86.2081 45.3733 86.0881 46.12H92.0081ZM95.9172 42.1H97.5372L97.8372 43.36C98.5972 42.3333 99.6439 41.82 100.977 41.82C102.071 41.82 102.924 42.1467 103.537 42.8C104.151 43.4533 104.457 44.4467 104.457 45.78V52H102.497V46.12C102.497 45.2133 102.311 44.58 101.937 44.22C101.564 43.8467 101.044 43.66 100.377 43.66C99.6705 43.66 99.0772 43.9133 98.5972 44.42C98.1172 44.9133 97.8772 45.6 97.8772 46.48V52H95.9172V42.1ZM110.433 52.28C109.659 52.28 109.026 52.04 108.533 51.56C108.053 51.0667 107.813 50.3933 107.813 49.54V43.86H106.033V42.1H107.813V39.52H109.773V42.1H112.453V43.86H109.773V49.3C109.773 50.0733 110.119 50.46 110.813 50.46C111.199 50.46 111.519 50.3333 111.773 50.08L112.673 51.48C112.499 51.68 112.219 51.86 111.833 52.02C111.459 52.1933 110.993 52.28 110.433 52.28ZM114.494 42.1H116.454V52H114.494V42.1ZM115.494 40.64C115.134 40.64 114.827 40.52 114.574 40.28C114.32 40.0267 114.194 39.72 114.194 39.36C114.194 39.0133 114.32 38.7133 114.574 38.46C114.827 38.2067 115.134 38.08 115.494 38.08C115.84 38.08 116.134 38.2067 116.374 38.46C116.627 38.7133 116.754 39.0133 116.754 39.36C116.754 39.72 116.627 40.0267 116.374 40.28C116.134 40.52 115.84 40.64 115.494 40.64ZM122.659 52.28C121.886 52.28 121.253 52.04 120.759 51.56C120.279 51.0667 120.039 50.3933 120.039 49.54V43.86H118.259V42.1H120.039V39.52H121.999V42.1H124.679V43.86H121.999V49.3C121.999 50.0733 122.346 50.46 123.039 50.46C123.426 50.46 123.746 50.3333 123.999 50.08L124.899 51.48C124.726 51.68 124.446 51.86 124.059 52.02C123.686 52.1933 123.219 52.28 122.659 52.28ZM135.4 42.1V51.82C135.4 52.6733 135.234 53.44 134.9 54.12C134.567 54.8133 134.06 55.36 133.38 55.76C132.714 56.16 131.88 56.36 130.88 56.36C129.72 56.36 128.787 56.0733 128.08 55.5C127.374 54.94 126.887 54.1733 126.62 53.2L128.46 52.8C128.754 54.04 129.56 54.66 130.88 54.66C131.72 54.66 132.354 54.4133 132.78 53.92C133.22 53.4267 133.44 52.74 133.44 51.86V50.5C133.04 50.9933 132.594 51.3667 132.1 51.62C131.607 51.86 130.987 51.98 130.24 51.98C129.187 51.98 128.327 51.66 127.66 51.02C126.994 50.3667 126.66 49.3867 126.66 48.08V42.1H128.62V47.64C128.62 48.5467 128.814 49.1933 129.2 49.58C129.587 49.9667 130.134 50.16 130.84 50.16C131.6 50.16 132.22 49.9133 132.7 49.42C133.194 48.9133 133.44 48.2133 133.44 47.32V42.1H135.4Z" fill="white"/>
<path d="M34.982 75.196C34.506 75.196 34.086 75.1073 33.722 74.93C33.358 74.7433 33.078 74.4913 32.882 74.174C32.686 73.8473 32.588 73.4833 32.588 73.082C32.588 72.4847 32.7933 71.9947 33.204 71.612C33.624 71.22 34.3193 70.954 35.29 70.814L36.956 70.576V70.422C36.956 69.4793 36.4613 69.008 35.472 69.008C34.996 69.008 34.632 69.12 34.38 69.344C34.1373 69.5587 33.9833 69.8667 33.918 70.268L32.7 69.974C33.036 68.5833 33.9693 67.888 35.5 67.888C36.3493 67.888 37.0307 68.1027 37.544 68.532C38.0667 68.9613 38.328 69.5867 38.328 70.408V75H37.166L37.026 74.328C36.606 74.9067 35.9247 75.196 34.982 75.196ZM35.318 74.062C35.7753 74.062 36.1627 73.9313 36.48 73.67C36.7973 73.4087 36.956 73.0307 36.956 72.536V71.626L35.402 71.864C34.9073 71.9387 34.534 72.0647 34.282 72.242C34.0393 72.41 33.918 72.6667 33.918 73.012C33.918 73.3293 34.044 73.586 34.296 73.782C34.548 73.9687 34.8887 74.062 35.318 74.062ZM40.0057 65.2H41.3777V75H40.0057V65.2ZM43.2613 68.07H44.6333V75H43.2613V68.07ZM43.9613 67.048C43.7093 67.048 43.4946 66.964 43.3173 66.796C43.1399 66.6187 43.0513 66.404 43.0513 66.152C43.0513 65.9093 43.1399 65.6993 43.3173 65.522C43.4946 65.3447 43.7093 65.256 43.9613 65.256C44.2039 65.256 44.4093 65.3447 44.5773 65.522C44.7546 65.6993 44.8433 65.9093 44.8433 66.152C44.8433 66.404 44.7546 66.6187 44.5773 66.796C44.4093 66.964 44.2039 67.048 43.9613 67.048ZM48.5992 75.196C48.1232 75.196 47.7032 75.1073 47.3392 74.93C46.9752 74.7433 46.6952 74.4913 46.4992 74.174C46.3032 73.8473 46.2052 73.4833 46.2052 73.082C46.2052 72.4847 46.4105 71.9947 46.8212 71.612C47.2412 71.22 47.9365 70.954 48.9072 70.814L50.5732 70.576V70.422C50.5732 69.4793 50.0785 69.008 49.0892 69.008C48.6132 69.008 48.2492 69.12 47.9972 69.344C47.7545 69.5587 47.6005 69.8667 47.5352 70.268L46.3172 69.974C46.6532 68.5833 47.5865 67.888 49.1172 67.888C49.9665 67.888 50.6479 68.1027 51.1612 68.532C51.6839 68.9613 51.9452 69.5867 51.9452 70.408V75H50.7832L50.6432 74.328C50.2232 74.9067 49.5419 75.196 48.5992 75.196ZM48.9352 74.062C49.3925 74.062 49.7799 73.9313 50.0972 73.67C50.4145 73.4087 50.5732 73.0307 50.5732 72.536V71.626L49.0192 71.864C48.5245 71.9387 48.1512 72.0647 47.8992 72.242C47.6565 72.41 47.5352 72.6667 47.5352 73.012C47.5352 73.3293 47.6612 73.586 47.9132 73.782C48.1652 73.9687 48.5059 74.062 48.9352 74.062ZM56.1569 75.196C55.4102 75.196 54.7942 75.0187 54.3089 74.664C53.8236 74.3 53.4876 73.7773 53.3009 73.096L54.5329 72.718C54.6449 73.11 54.8176 73.4273 55.0509 73.67C55.2936 73.9127 55.6622 74.034 56.1569 74.034C56.5862 74.034 56.9316 73.95 57.1929 73.782C57.4636 73.6047 57.5989 73.3667 57.5989 73.068C57.5989 72.844 57.5009 72.6527 57.3049 72.494C57.1089 72.326 56.7216 72.1907 56.1429 72.088C55.3216 71.9387 54.6822 71.7147 54.2249 71.416C53.7676 71.108 53.5389 70.632 53.5389 69.988C53.5389 69.3627 53.7816 68.8587 54.2669 68.476C54.7616 68.084 55.3916 67.888 56.1569 67.888C56.8569 67.888 57.4309 68.0653 57.8789 68.42C58.3362 68.7653 58.6349 69.2553 58.7749 69.89L57.5569 70.24C57.4729 69.8853 57.3189 69.6007 57.0949 69.386C56.8802 69.162 56.5676 69.05 56.1569 69.05C55.7089 69.05 55.3776 69.1387 55.1629 69.316C54.9482 69.484 54.8409 69.6893 54.8409 69.932C54.8409 70.2027 54.9669 70.408 55.2189 70.548C55.4709 70.6787 55.8582 70.7907 56.3809 70.884C57.2022 71.0427 57.8276 71.2853 58.2569 71.612C58.6862 71.9293 58.9009 72.41 58.9009 73.054C58.9009 73.4647 58.7842 73.8333 58.5509 74.16C58.3176 74.4867 57.9909 74.7433 57.5709 74.93C57.1509 75.1073 56.6796 75.196 56.1569 75.196ZM60.7294 75.098C60.4681 75.098 60.2441 75.0093 60.0574 74.832C59.8801 74.6453 59.7914 74.4213 59.7914 74.16C59.7914 73.8987 59.8801 73.6793 60.0574 73.502C60.2441 73.3153 60.4681 73.222 60.7294 73.222C60.9908 73.222 61.2101 73.3153 61.3874 73.502C61.5741 73.6793 61.6674 73.8987 61.6674 74.16C61.6674 74.4213 61.5741 74.6453 61.3874 74.832C61.2101 75.0093 60.9908 75.098 60.7294 75.098ZM63.0855 68.07H64.4575V75H63.0855V68.07ZM63.7855 67.048C63.5335 67.048 63.3188 66.964 63.1415 66.796C62.9641 66.6187 62.8755 66.404 62.8755 66.152C62.8755 65.9093 62.9641 65.6993 63.1415 65.522C63.3188 65.3447 63.5335 65.256 63.7855 65.256C64.0281 65.256 64.2335 65.3447 64.4015 65.522C64.5788 65.6993 64.6675 65.9093 64.6675 66.152C64.6675 66.404 64.5788 66.6187 64.4015 66.796C64.2335 66.964 64.0281 67.048 63.7855 67.048ZM69.3614 75.182C68.7174 75.182 68.1387 75.014 67.6254 74.678C67.1214 74.3327 66.7294 73.88 66.4494 73.32C66.1694 72.76 66.0294 72.1627 66.0294 71.528C66.0294 70.8747 66.1601 70.2727 66.4214 69.722C66.6921 69.162 67.0794 68.714 67.5834 68.378C68.0874 68.042 68.6754 67.874 69.3474 67.874C69.8607 67.874 70.3134 67.9767 70.7054 68.182C71.0974 68.3873 71.4101 68.6487 71.6434 68.966V65.2H73.0154V75H71.8814L71.6994 74.062C71.4661 74.3793 71.1534 74.6453 70.7614 74.86C70.3694 75.0747 69.9027 75.182 69.3614 75.182ZM69.5294 73.95C70.1547 73.95 70.6634 73.726 71.0554 73.278C71.4474 72.8207 71.6434 72.2373 71.6434 71.528C71.6434 70.8187 71.4474 70.24 71.0554 69.792C70.6634 69.3347 70.1547 69.106 69.5294 69.106C69.1187 69.106 68.7501 69.2087 68.4234 69.414C68.1061 69.6193 67.8541 69.9087 67.6674 70.282C67.4901 70.646 67.4014 71.0613 67.4014 71.528C67.4014 71.9853 67.4901 72.4007 67.6674 72.774C67.8541 73.138 68.1061 73.4273 68.4234 73.642C68.7501 73.8473 69.1187 73.95 69.5294 73.95ZM75.8496 71.962C75.8776 72.3353 75.9803 72.6807 76.1576 72.998C76.3443 73.3153 76.5963 73.572 76.9136 73.768C77.231 73.9547 77.5903 74.048 77.9916 74.048C78.477 74.048 78.883 73.9313 79.2096 73.698C79.5456 73.4553 79.7696 73.1707 79.8816 72.844L81.0576 73.222C80.8523 73.8007 80.4883 74.2767 79.9656 74.65C79.443 75.014 78.785 75.196 77.9916 75.196C77.3196 75.196 76.7176 75.0373 76.1856 74.72C75.663 74.3933 75.2523 73.95 74.9536 73.39C74.6643 72.83 74.5196 72.2093 74.5196 71.528C74.5196 70.856 74.669 70.2447 74.9676 69.694C75.2756 69.134 75.691 68.6953 76.2136 68.378C76.7456 68.0513 77.3336 67.888 77.9776 67.888C78.631 67.888 79.2003 68.0373 79.6856 68.336C80.1803 68.6253 80.563 69.036 80.8336 69.568C81.1043 70.1 81.2396 70.716 81.2396 71.416V71.962H75.8496ZM80.0076 70.884C79.9703 70.3893 79.7696 69.96 79.4056 69.596C79.051 69.2227 78.5796 69.036 77.9916 69.036C77.4036 69.036 76.923 69.2133 76.5496 69.568C76.1763 69.9227 75.9476 70.3613 75.8636 70.884H80.0076ZM82.744 68.07H83.878L84.088 68.952C84.62 68.2333 85.3527 67.874 86.286 67.874C87.0513 67.874 87.6487 68.1027 88.078 68.56C88.5073 69.0173 88.722 69.7127 88.722 70.646V75H87.35V70.884C87.35 70.2493 87.2193 69.806 86.958 69.554C86.6967 69.2927 86.3327 69.162 85.866 69.162C85.3713 69.162 84.956 69.3393 84.62 69.694C84.284 70.0393 84.116 70.52 84.116 71.136V75H82.744V68.07ZM93.631 75.196C92.987 75.196 92.4083 75.07 91.895 74.818C91.391 74.5567 90.9943 74.2067 90.705 73.768C90.4156 73.3293 90.2616 72.8533 90.243 72.34L91.531 71.962C91.559 72.5127 91.769 72.9747 92.161 73.348C92.5623 73.7213 93.0523 73.908 93.631 73.908C94.247 73.908 94.751 73.7213 95.143 73.348C95.535 72.9653 95.731 72.4893 95.731 71.92C95.731 71.332 95.5396 70.8513 95.157 70.478C94.7836 70.1047 94.275 69.918 93.631 69.918C93.379 69.918 93.141 69.9553 92.917 70.03L92.203 69.162L94.821 66.488H90.551V65.2H96.487V66.488L94.275 68.798C95.1243 68.8447 95.8103 69.148 96.333 69.708C96.865 70.2587 97.131 70.996 97.131 71.92C97.131 72.536 96.9816 73.096 96.683 73.6C96.3843 74.0947 95.969 74.4867 95.437 74.776C94.905 75.056 94.303 75.196 93.631 75.196ZM98.956 75.098C98.6947 75.098 98.4707 75.0093 98.284 74.832C98.1067 74.6453 98.018 74.4213 98.018 74.16C98.018 73.8987 98.1067 73.6793 98.284 73.502C98.4707 73.3153 98.6947 73.222 98.956 73.222C99.2173 73.222 99.4367 73.3153 99.614 73.502C99.8007 73.6793 99.894 73.8987 99.894 74.16C99.894 74.4213 99.8007 74.6453 99.614 74.832C99.4367 75.0093 99.2173 75.098 98.956 75.098ZM101.312 68.07H102.684V75H101.312V68.07ZM102.012 67.048C101.76 67.048 101.545 66.964 101.368 66.796C101.191 66.6187 101.102 66.404 101.102 66.152C101.102 65.9093 101.191 65.6993 101.368 65.522C101.545 65.3447 101.76 65.256 102.012 65.256C102.255 65.256 102.46 65.3447 102.628 65.522C102.805 65.6993 102.894 65.9093 102.894 66.152C102.894 66.404 102.805 66.6187 102.628 66.796C102.46 66.964 102.255 67.048 102.012 67.048ZM107.588 75.182C106.944 75.182 106.365 75.014 105.852 74.678C105.348 74.3327 104.956 73.88 104.676 73.32C104.396 72.76 104.256 72.1627 104.256 71.528C104.256 70.8747 104.387 70.2727 104.648 69.722C104.919 69.162 105.306 68.714 105.81 68.378C106.314 68.042 106.902 67.874 107.574 67.874C108.087 67.874 108.54 67.9767 108.932 68.182C109.324 68.3873 109.637 68.6487 109.87 68.966V65.2H111.242V75H110.108L109.926 74.062C109.693 74.3793 109.38 74.6453 108.988 74.86C108.596 75.0747 108.129 75.182 107.588 75.182ZM107.756 73.95C108.381 73.95 108.89 73.726 109.282 73.278C109.674 72.8207 109.87 72.2373 109.87 71.528C109.87 70.8187 109.674 70.24 109.282 69.792C108.89 69.3347 108.381 69.106 107.756 69.106C107.345 69.106 106.977 69.2087 106.65 69.414C106.333 69.6193 106.081 69.9087 105.894 70.282C105.717 70.646 105.628 71.0613 105.628 71.528C105.628 71.9853 105.717 72.4007 105.894 72.774C106.081 73.138 106.333 73.4273 106.65 73.642C106.977 73.8473 107.345 73.95 107.756 73.95Z" fill="#B4BFCE"/>
<rect x="32" y="131" width="83" height="32" rx="16" fill="#1E2635"/>
<path d="M59.074 151H57.688V143.79L54.608 151H53.572L50.52 143.818L50.506 151H49.12V141.2H50.716L54.104 149.124L57.478 141.2H59.088L59.074 151ZM63.191 151.196C62.715 151.196 62.295 151.107 61.931 150.93C61.567 150.743 61.287 150.491 61.091 150.174C60.895 149.847 60.797 149.483 60.797 149.082C60.797 148.485 61.0023 147.995 61.413 147.612C61.833 147.22 62.5283 146.954 63.499 146.814L65.165 146.576V146.422C65.165 145.479 64.6703 145.008 63.681 145.008C63.205 145.008 62.841 145.12 62.589 145.344C62.3463 145.559 62.1923 145.867 62.127 146.268L60.909 145.974C61.245 144.583 62.1783 143.888 63.709 143.888C64.5583 143.888 65.2397 144.103 65.753 144.532C66.2757 144.961 66.537 145.587 66.537 146.408V151H65.375L65.235 150.328C64.815 150.907 64.1337 151.196 63.191 151.196ZM63.527 150.062C63.9843 150.062 64.3717 149.931 64.689 149.67C65.0063 149.409 65.165 149.031 65.165 148.536V147.626L63.611 147.864C63.1163 147.939 62.743 148.065 62.491 148.242C62.2483 148.41 62.127 148.667 62.127 149.012C62.127 149.329 62.253 149.586 62.505 149.782C62.757 149.969 63.0977 150.062 63.527 150.062ZM68.2147 144.07H69.3487L69.5587 144.952C70.0907 144.233 70.8234 143.874 71.7567 143.874C72.522 143.874 73.1194 144.103 73.5487 144.56C73.978 145.017 74.1927 145.713 74.1927 146.646V151H72.8207V146.884C72.8207 146.249 72.69 145.806 72.4287 145.554C72.1674 145.293 71.8034 145.162 71.3367 145.162C70.842 145.162 70.4267 145.339 70.0907 145.694C69.7547 146.039 69.5867 146.52 69.5867 147.136V151H68.2147V144.07ZM78.0797 151.196C77.6037 151.196 77.1837 151.107 76.8197 150.93C76.4557 150.743 76.1757 150.491 75.9797 150.174C75.7837 149.847 75.6857 149.483 75.6857 149.082C75.6857 148.485 75.891 147.995 76.3017 147.612C76.7217 147.22 77.417 146.954 78.3877 146.814L80.0537 146.576V146.422C80.0537 145.479 79.559 145.008 78.5697 145.008C78.0937 145.008 77.7297 145.12 77.4777 145.344C77.235 145.559 77.081 145.867 77.0157 146.268L75.7977 145.974C76.1337 144.583 77.067 143.888 78.5977 143.888C79.447 143.888 80.1283 144.103 80.6417 144.532C81.1643 144.961 81.4257 145.587 81.4257 146.408V151H80.2637L80.1237 150.328C79.7037 150.907 79.0223 151.196 78.0797 151.196ZM78.4157 150.062C78.873 150.062 79.2603 149.931 79.5777 149.67C79.895 149.409 80.0537 149.031 80.0537 148.536V147.626L78.4997 147.864C78.005 147.939 77.6317 148.065 77.3797 148.242C77.137 148.41 77.0157 148.667 77.0157 149.012C77.0157 149.329 77.1417 149.586 77.3937 149.782C77.6457 149.969 77.9863 150.062 78.4157 150.062ZM86.2254 154.052C85.3667 154.052 84.676 153.851 84.1534 153.45C83.64 153.049 83.2854 152.507 83.0894 151.826L84.3774 151.518C84.6107 152.423 85.2267 152.876 86.2254 152.876C86.9067 152.876 87.4247 152.703 87.7794 152.358C88.1434 152.013 88.3254 151.527 88.3254 150.902V149.866C88.1294 150.183 87.8354 150.454 87.4434 150.678C87.0514 150.893 86.594 151 86.0714 151C85.3994 151 84.816 150.841 84.3214 150.524C83.8267 150.197 83.444 149.763 83.1734 149.222C82.912 148.681 82.7814 148.093 82.7814 147.458C82.7814 146.823 82.9167 146.235 83.1874 145.694C83.458 145.143 83.8407 144.705 84.3354 144.378C84.8394 144.042 85.4134 143.874 86.0574 143.874C86.5987 143.874 87.056 143.981 87.4294 144.196C87.812 144.401 88.1107 144.663 88.3254 144.98L88.5494 144.07H89.6974V150.874C89.6974 151.471 89.5667 152.008 89.3054 152.484C89.0534 152.969 88.666 153.352 88.1434 153.632C87.63 153.912 86.9907 154.052 86.2254 154.052ZM86.2534 149.768C86.86 149.768 87.3547 149.558 87.7374 149.138C88.1294 148.709 88.3254 148.149 88.3254 147.458C88.3254 146.758 88.1294 146.193 87.7374 145.764C87.3547 145.325 86.8554 145.106 86.2394 145.106C85.6234 145.106 85.1194 145.325 84.7274 145.764C84.3447 146.193 84.1534 146.758 84.1534 147.458C84.1534 148.149 84.3447 148.709 84.7274 149.138C85.1194 149.558 85.628 149.768 86.2534 149.768ZM92.5196 147.962C92.5476 148.335 92.6502 148.681 92.8276 148.998C93.0142 149.315 93.2662 149.572 93.5836 149.768C93.9009 149.955 94.2602 150.048 94.6616 150.048C95.1469 150.048 95.5529 149.931 95.8796 149.698C96.2156 149.455 96.4396 149.171 96.5516 148.844L97.7276 149.222C97.5222 149.801 97.1582 150.277 96.6356 150.65C96.1129 151.014 95.4549 151.196 94.6616 151.196C93.9896 151.196 93.3876 151.037 92.8556 150.72C92.3329 150.393 91.9222 149.95 91.6236 149.39C91.3342 148.83 91.1896 148.209 91.1896 147.528C91.1896 146.856 91.3389 146.245 91.6376 145.694C91.9456 145.134 92.3609 144.695 92.8836 144.378C93.4156 144.051 94.0036 143.888 94.6476 143.888C95.3009 143.888 95.8702 144.037 96.3556 144.336C96.8502 144.625 97.2329 145.036 97.5036 145.568C97.7742 146.1 97.9096 146.716 97.9096 147.416V147.962H92.5196ZM96.6776 146.884C96.6402 146.389 96.4396 145.96 96.0756 145.596C95.7209 145.223 95.2496 145.036 94.6616 145.036C94.0736 145.036 93.5929 145.213 93.2196 145.568C92.8462 145.923 92.6176 146.361 92.5336 146.884H96.6776Z" fill="white"/>
<rect x="16" y="195" width="288" height="163" rx="14" fill="url(#paint2_linear_94_500)"/>
<path d="M47.82 231H45.84V220.7L41.44 231H39.96L35.6 220.74L35.58 231H33.6V217H35.88L40.72 228.32L45.54 217H47.84L47.82 231ZM59.5214 221.1V230.82C59.5214 231.673 59.3547 232.44 59.0214 233.12C58.6881 233.813 58.1814 234.36 57.5014 234.76C56.8347 235.16 56.0014 235.36 55.0014 235.36C53.8414 235.36 52.9081 235.073 52.2014 234.5C51.4947 233.94 51.0081 233.173 50.7414 232.2L52.5814 231.8C52.8747 233.04 53.6814 233.66 55.0014 233.66C55.8414 233.66 56.4747 233.413 56.9014 232.92C57.3414 232.427 57.5614 231.74 57.5614 230.86V229.5C57.1614 229.993 56.7147 230.367 56.2214 230.62C55.7281 230.86 55.1081 230.98 54.3614 230.98C53.3081 230.98 52.4481 230.66 51.7814 230.02C51.1147 229.367 50.7814 228.387 50.7814 227.08V221.1H52.7414V226.64C52.7414 227.547 52.9347 228.193 53.3214 228.58C53.7081 228.967 54.2547 229.16 54.9614 229.16C55.7214 229.16 56.3414 228.913 56.8214 228.42C57.3147 227.913 57.5614 227.213 57.5614 226.32V221.1H59.5214ZM72.0336 231.26C71.1136 231.26 70.2869 231.02 69.5536 230.54C68.8336 230.047 68.2736 229.4 67.8736 228.6C67.4736 227.8 67.2736 226.947 67.2736 226.04C67.2736 225.107 67.4603 224.247 67.8336 223.46C68.2203 222.66 68.7736 222.02 69.4936 221.54C70.2136 221.06 71.0536 220.82 72.0136 220.82C72.7469 220.82 73.3936 220.967 73.9536 221.26C74.5136 221.553 74.9603 221.927 75.2936 222.38V217H77.2536V231H75.6336L75.3736 229.66C75.0403 230.113 74.5936 230.493 74.0336 230.8C73.4736 231.107 72.8069 231.26 72.0336 231.26ZM72.2736 229.5C73.1669 229.5 73.8936 229.18 74.4536 228.54C75.0136 227.887 75.2936 227.053 75.2936 226.04C75.2936 225.027 75.0136 224.2 74.4536 223.56C73.8936 222.907 73.1669 222.58 72.2736 222.58C71.6869 222.58 71.1603 222.727 70.6936 223.02C70.2403 223.313 69.8803 223.727 69.6136 224.26C69.3603 224.78 69.2336 225.373 69.2336 226.04C69.2336 226.693 69.3603 227.287 69.6136 227.82C69.8803 228.34 70.2403 228.753 70.6936 229.06C71.1603 229.353 71.6869 229.5 72.2736 229.5ZM82.8225 231.28C82.1425 231.28 81.5425 231.153 81.0225 230.9C80.5025 230.633 80.1025 230.273 79.8225 229.82C79.5425 229.353 79.4025 228.833 79.4025 228.26C79.4025 227.407 79.6958 226.707 80.2825 226.16C80.8825 225.6 81.8758 225.22 83.2625 225.02L85.6425 224.68V224.46C85.6425 223.113 84.9358 222.44 83.5225 222.44C82.8425 222.44 82.3225 222.6 81.9625 222.92C81.6158 223.227 81.3958 223.667 81.3025 224.24L79.5625 223.82C80.0425 221.833 81.3758 220.84 83.5625 220.84C84.7758 220.84 85.7492 221.147 86.4825 221.76C87.2292 222.373 87.6025 223.267 87.6025 224.44V231H85.9425L85.7425 230.04C85.1425 230.867 84.1692 231.28 82.8225 231.28ZM83.3025 229.66C83.9558 229.66 84.5092 229.473 84.9625 229.1C85.4158 228.727 85.6425 228.187 85.6425 227.48V226.18L83.4225 226.52C82.7158 226.627 82.1825 226.807 81.8225 227.06C81.4758 227.3 81.3025 227.667 81.3025 228.16C81.3025 228.613 81.4825 228.98 81.8425 229.26C82.2025 229.527 82.6892 229.66 83.3025 229.66ZM93.4992 231.28C92.7259 231.28 92.0926 231.04 91.5992 230.56C91.1192 230.067 90.8792 229.393 90.8792 228.54V222.86H89.0992V221.1H90.8792V218.52H92.8392V221.1H95.5192V222.86H92.8392V228.3C92.8392 229.073 93.1859 229.46 93.8792 229.46C94.2659 229.46 94.5859 229.333 94.8392 229.08L95.7392 230.48C95.5659 230.68 95.2859 230.86 94.8992 231.02C94.5259 231.193 94.0592 231.28 93.4992 231.28ZM100.303 231.28C99.623 231.28 99.023 231.153 98.503 230.9C97.983 230.633 97.583 230.273 97.303 229.82C97.023 229.353 96.883 228.833 96.883 228.26C96.883 227.407 97.1763 226.707 97.763 226.16C98.363 225.6 99.3563 225.22 100.743 225.02L103.123 224.68V224.46C103.123 223.113 102.416 222.44 101.003 222.44C100.323 222.44 99.803 222.6 99.443 222.92C99.0963 223.227 98.8763 223.667 98.783 224.24L97.043 223.82C97.523 221.833 98.8563 220.84 101.043 220.84C102.256 220.84 103.23 221.147 103.963 221.76C104.71 222.373 105.083 223.267 105.083 224.44V231H103.423L103.223 230.04C102.623 230.867 101.65 231.28 100.303 231.28ZM100.783 229.66C101.436 229.66 101.99 229.473 102.443 229.1C102.896 228.727 103.123 228.187 103.123 227.48V226.18L100.903 226.52C100.196 226.627 99.663 226.807 99.303 227.06C98.9563 227.3 98.783 227.667 98.783 228.16C98.783 228.613 98.963 228.98 99.323 229.26C99.683 229.527 100.17 229.66 100.783 229.66Z" fill="white"/>
<path d="M36.004 254.196C35.36 254.196 34.7813 254.07 34.268 253.818C33.764 253.557 33.3673 253.207 33.078 252.768C32.7887 252.329 32.6347 251.853 32.616 251.34L33.904 250.962C33.932 251.513 34.142 251.975 34.534 252.348C34.9353 252.721 35.4253 252.908 36.004 252.908C36.62 252.908 37.124 252.721 37.516 252.348C37.908 251.965 38.104 251.489 38.104 250.92C38.104 250.332 37.9127 249.851 37.53 249.478C37.1567 249.105 36.648 248.918 36.004 248.918C35.752 248.918 35.514 248.955 35.29 249.03L34.576 248.162L37.194 245.488H32.924V244.2H38.86V245.488L36.648 247.798C37.4973 247.845 38.1833 248.148 38.706 248.708C39.238 249.259 39.504 249.996 39.504 250.92C39.504 251.536 39.3547 252.096 39.056 252.6C38.7573 253.095 38.342 253.487 37.81 253.776C37.278 254.056 36.676 254.196 36.004 254.196ZM48.1749 254.196C47.4656 254.196 46.8403 254.033 46.2989 253.706C45.7669 253.37 45.3563 252.922 45.0669 252.362C44.7776 251.802 44.6329 251.195 44.6329 250.542C44.6329 249.879 44.7776 249.268 45.0669 248.708C45.3656 248.148 45.7809 247.705 46.3129 247.378C46.8543 247.042 47.4749 246.874 48.1749 246.874C48.9403 246.874 49.5889 247.07 50.1209 247.462C50.6529 247.854 51.0263 248.377 51.2409 249.03L49.9809 249.45C49.8503 249.039 49.6263 248.717 49.3089 248.484C48.9916 248.251 48.6136 248.134 48.1749 248.134C47.7549 248.134 47.3816 248.237 47.0549 248.442C46.7283 248.647 46.4716 248.937 46.2849 249.31C46.0983 249.674 46.0049 250.085 46.0049 250.542C46.0049 250.999 46.0983 251.41 46.2849 251.774C46.4716 252.138 46.7283 252.423 47.0549 252.628C47.3816 252.833 47.7549 252.936 48.1749 252.936C48.6043 252.936 48.9776 252.819 49.2949 252.586C49.6123 252.353 49.8409 252.035 49.9809 251.634L51.2269 252.054C50.9843 252.698 50.5969 253.216 50.0649 253.608C49.5423 254 48.9123 254.196 48.1749 254.196ZM52.7616 244.2H54.1336V254H52.7616V244.2ZM58.0191 254.196C57.5431 254.196 57.1231 254.107 56.7591 253.93C56.3951 253.743 56.1151 253.491 55.9191 253.174C55.7231 252.847 55.6251 252.483 55.6251 252.082C55.6251 251.485 55.8304 250.995 56.2411 250.612C56.6611 250.22 57.3564 249.954 58.3271 249.814L59.9931 249.576V249.422C59.9931 248.479 59.4984 248.008 58.5091 248.008C58.0331 248.008 57.6691 248.12 57.4171 248.344C57.1744 248.559 57.0204 248.867 56.9551 249.268L55.7371 248.974C56.0731 247.583 57.0064 246.888 58.5371 246.888C59.3864 246.888 60.0678 247.103 60.5811 247.532C61.1038 247.961 61.3651 248.587 61.3651 249.408V254H60.2031L60.0631 253.328C59.6431 253.907 58.9618 254.196 58.0191 254.196ZM58.3551 253.062C58.8124 253.062 59.1998 252.931 59.5171 252.67C59.8344 252.409 59.9931 252.031 59.9931 251.536V250.626L58.4391 250.864C57.9444 250.939 57.5711 251.065 57.3191 251.242C57.0764 251.41 56.9551 251.667 56.9551 252.012C56.9551 252.329 57.0811 252.586 57.3331 252.782C57.5851 252.969 57.9258 253.062 58.3551 253.062ZM63.1128 247.07H64.4848V254H63.1128V247.07ZM63.8128 246.048C63.5608 246.048 63.3461 245.964 63.1688 245.796C62.9915 245.619 62.9028 245.404 62.9028 245.152C62.9028 244.909 62.9915 244.699 63.1688 244.522C63.3461 244.345 63.5608 244.256 63.8128 244.256C64.0555 244.256 64.2608 244.345 64.4288 244.522C64.6061 244.699 64.6948 244.909 64.6948 245.152C64.6948 245.404 64.6061 245.619 64.4288 245.796C64.2608 245.964 64.0555 246.048 63.8128 246.048ZM66.3788 247.07H67.5128L67.7088 247.952C67.9514 247.616 68.2548 247.355 68.6188 247.168C68.9921 246.972 69.4168 246.874 69.8928 246.874C70.3781 246.874 70.7841 246.981 71.1108 247.196C71.4374 247.401 71.6801 247.672 71.8388 248.008C72.0908 247.663 72.4128 247.387 72.8048 247.182C73.1968 246.977 73.6448 246.874 74.1488 246.874C74.8208 246.874 75.3621 247.084 75.7728 247.504C76.1928 247.924 76.4028 248.554 76.4028 249.394V254H75.0308V249.828C75.0308 249.221 74.9141 248.792 74.6808 248.54C74.4474 248.288 74.1114 248.162 73.6728 248.162C73.2154 248.162 72.8328 248.33 72.5248 248.666C72.2261 249.002 72.0768 249.473 72.0768 250.08V254H70.7048V249.828C70.7048 248.717 70.2568 248.162 69.3608 248.162C68.9034 248.162 68.5208 248.33 68.2128 248.666C67.9048 249.002 67.7508 249.473 67.7508 250.08V254H66.3788V247.07ZM80.7526 254.196C80.0059 254.196 79.3899 254.019 78.9046 253.664C78.4193 253.3 78.0833 252.777 77.8966 252.096L79.1286 251.718C79.2406 252.11 79.4133 252.427 79.6466 252.67C79.8893 252.913 80.2579 253.034 80.7526 253.034C81.1819 253.034 81.5273 252.95 81.7886 252.782C82.0593 252.605 82.1946 252.367 82.1946 252.068C82.1946 251.844 82.0966 251.653 81.9006 251.494C81.7046 251.326 81.3173 251.191 80.7386 251.088C79.9173 250.939 79.2779 250.715 78.8206 250.416C78.3633 250.108 78.1346 249.632 78.1346 248.988C78.1346 248.363 78.3773 247.859 78.8626 247.476C79.3573 247.084 79.9873 246.888 80.7526 246.888C81.4526 246.888 82.0266 247.065 82.4746 247.42C82.9319 247.765 83.2306 248.255 83.3706 248.89L82.1526 249.24C82.0686 248.885 81.9146 248.601 81.6906 248.386C81.4759 248.162 81.1633 248.05 80.7526 248.05C80.3046 248.05 79.9733 248.139 79.7586 248.316C79.5439 248.484 79.4366 248.689 79.4366 248.932C79.4366 249.203 79.5626 249.408 79.8146 249.548C80.0666 249.679 80.4539 249.791 80.9766 249.884C81.7979 250.043 82.4233 250.285 82.8526 250.612C83.2819 250.929 83.4966 251.41 83.4966 252.054C83.4966 252.465 83.3799 252.833 83.1466 253.16C82.9133 253.487 82.5866 253.743 82.1666 253.93C81.7466 254.107 81.2753 254.196 80.7526 254.196Z" fill="#B4BFCE"/>
<rect x="32" y="310" width="83" height="32" rx="16" fill="#1E2635"/>
<path d="M55.8928 330.196C54.7822 330.196 53.8815 329.874 53.1908 329.23C52.5095 328.577 52.1688 327.606 52.1688 326.318V320.2H53.5688V326.248C53.5688 327.163 53.7695 327.835 54.1708 328.264C54.5815 328.693 55.1555 328.908 55.8928 328.908C56.6208 328.908 57.1855 328.693 57.5868 328.264C57.9975 327.825 58.2028 327.153 58.2028 326.248V320.2H59.6028V326.332C59.6028 327.629 59.2622 328.6 58.5808 329.244C57.8995 329.879 57.0035 330.196 55.8928 330.196ZM61.5848 323.07H62.7188L62.9288 323.952C63.4608 323.233 64.1935 322.874 65.1268 322.874C65.8921 322.874 66.4895 323.103 66.9188 323.56C67.3481 324.017 67.5628 324.713 67.5628 325.646V330H66.1908V325.884C66.1908 325.249 66.0601 324.806 65.7988 324.554C65.5375 324.293 65.1735 324.162 64.7068 324.162C64.2121 324.162 63.7968 324.339 63.4608 324.694C63.1248 325.039 62.9568 325.52 62.9568 326.136V330H61.5848V323.07ZM69.3778 320.2H70.7498V330H69.3778V320.2ZM75.8113 330.196C75.1113 330.196 74.486 330.028 73.9353 329.692C73.394 329.356 72.974 328.908 72.6753 328.348C72.386 327.788 72.2413 327.186 72.2413 326.542C72.2413 325.889 72.3907 325.282 72.6893 324.722C72.988 324.162 73.408 323.714 73.9493 323.378C74.5 323.042 75.1207 322.874 75.8113 322.874C76.5113 322.874 77.132 323.042 77.6733 323.378C78.2147 323.714 78.6347 324.162 78.9333 324.722C79.232 325.282 79.3813 325.889 79.3813 326.542C79.3813 327.186 79.232 327.788 78.9333 328.348C78.6347 328.908 78.2147 329.356 77.6733 329.692C77.132 330.028 76.5113 330.196 75.8113 330.196ZM75.8113 328.936C76.2313 328.936 76.6047 328.833 76.9313 328.628C77.2673 328.423 77.5287 328.138 77.7153 327.774C77.9113 327.401 78.0093 326.99 78.0093 326.542C78.0093 326.085 77.9113 325.674 77.7153 325.31C77.5287 324.946 77.2673 324.661 76.9313 324.456C76.6047 324.241 76.2313 324.134 75.8113 324.134C75.3913 324.134 75.0133 324.241 74.6773 324.456C74.3413 324.661 74.08 324.946 73.8933 325.31C73.7067 325.674 73.6133 326.085 73.6133 326.542C73.6133 326.999 73.7067 327.41 73.8933 327.774C74.08 328.138 74.3413 328.423 74.6773 328.628C75.0133 328.833 75.3913 328.936 75.8113 328.936ZM84.0958 330.196C83.3865 330.196 82.7612 330.033 82.2198 329.706C81.6878 329.37 81.2772 328.922 80.9878 328.362C80.6985 327.802 80.5538 327.195 80.5538 326.542C80.5538 325.879 80.6985 325.268 80.9878 324.708C81.2865 324.148 81.7018 323.705 82.2338 323.378C82.7752 323.042 83.3958 322.874 84.0958 322.874C84.8612 322.874 85.5098 323.07 86.0418 323.462C86.5738 323.854 86.9472 324.377 87.1618 325.03L85.9018 325.45C85.7712 325.039 85.5472 324.717 85.2298 324.484C84.9125 324.251 84.5345 324.134 84.0958 324.134C83.6758 324.134 83.3025 324.237 82.9758 324.442C82.6492 324.647 82.3925 324.937 82.2058 325.31C82.0192 325.674 81.9258 326.085 81.9258 326.542C81.9258 326.999 82.0192 327.41 82.2058 327.774C82.3925 328.138 82.6492 328.423 82.9758 328.628C83.3025 328.833 83.6758 328.936 84.0958 328.936C84.5252 328.936 84.8985 328.819 85.2158 328.586C85.5332 328.353 85.7618 328.035 85.9018 327.634L87.1478 328.054C86.9052 328.698 86.5178 329.216 85.9858 329.608C85.4632 330 84.8332 330.196 84.0958 330.196ZM90.8385 326.766L90.0545 327.592V330H88.6825V320.2H90.0545V325.814L92.6865 323.07H94.3665L91.7485 325.814L94.6885 330H93.1205L90.8385 326.766Z" fill="white"/>
<g filter="url(#filter0_dd_94_500)">
<rect x="50" y="402" width="221" height="52" rx="26" fill="#0C58F3"/>
</g>
<path d="M106.168 421.8H110.168C111.267 421.8 112.179 422.099 112.904 422.696C113.629 423.283 113.992 424.168 113.992 425.352C113.992 426.131 113.816 426.792 113.464 427.336C113.123 427.869 112.669 428.269 112.104 428.536C111.539 428.803 110.925 428.936 110.264 428.936H108.12V433H106.168V421.8ZM110.024 427.176C110.696 427.176 111.197 427.011 111.528 426.68C111.869 426.339 112.04 425.896 112.04 425.352C112.04 424.808 111.864 424.376 111.512 424.056C111.171 423.725 110.669 423.56 110.008 423.56H108.12V427.176H110.024ZM115.382 425.016H116.966L117.238 425.944C117.43 425.613 117.697 425.341 118.038 425.128C118.379 424.904 118.785 424.792 119.254 424.792C119.553 424.792 119.819 424.829 120.054 424.904C120.289 424.979 120.481 425.069 120.63 425.176L119.942 426.856C119.846 426.781 119.713 426.717 119.542 426.664C119.382 426.611 119.195 426.584 118.982 426.584C118.502 426.584 118.102 426.771 117.782 427.144C117.462 427.507 117.302 428.008 117.302 428.648V433H115.382V425.016ZM121.758 425.016H123.678V433H121.758V425.016ZM122.686 423.928C122.377 423.928 122.11 423.816 121.886 423.592C121.673 423.368 121.566 423.101 121.566 422.792C121.566 422.483 121.673 422.216 121.886 421.992C122.11 421.768 122.377 421.656 122.686 421.656C122.996 421.656 123.262 421.768 123.486 421.992C123.721 422.216 123.838 422.483 123.838 422.792C123.838 423.101 123.721 423.368 123.486 423.592C123.262 423.816 122.996 423.928 122.686 423.928ZM132.991 425.016L129.967 433H127.951L124.927 425.016H126.895L128.959 430.824L131.023 425.016H132.991ZM136.375 433.224C135.873 433.224 135.415 433.123 134.999 432.92C134.583 432.717 134.252 432.429 134.007 432.056C133.761 431.683 133.639 431.251 133.639 430.76C133.639 430.088 133.868 429.523 134.327 429.064C134.796 428.595 135.617 428.28 136.791 428.12L138.503 427.88V427.784C138.503 426.813 138.012 426.328 137.031 426.328C136.54 426.328 136.167 426.44 135.911 426.664C135.665 426.877 135.511 427.197 135.447 427.624L133.751 427.208C133.975 426.397 134.353 425.795 134.887 425.4C135.42 424.995 136.156 424.792 137.095 424.792C138.055 424.792 138.849 425.043 139.479 425.544C140.108 426.035 140.423 426.771 140.423 427.752V433H138.807L138.599 432.28C138.151 432.909 137.409 433.224 136.375 433.224ZM136.887 431.672C137.345 431.672 137.729 431.544 138.039 431.288C138.348 431.021 138.503 430.659 138.503 430.2V429.272L136.919 429.512C136.417 429.587 136.049 429.715 135.815 429.896C135.591 430.067 135.479 430.317 135.479 430.648C135.479 430.957 135.601 431.208 135.847 431.4C136.103 431.581 136.449 431.672 136.887 431.672ZM145.171 433.224C144.52 433.224 143.981 433.021 143.555 432.616C143.128 432.2 142.915 431.613 142.915 430.856V426.696H141.539V425.016H142.915V422.936H144.835V425.016H146.867V426.696H144.835V430.584C144.835 431.149 145.085 431.432 145.587 431.432C145.875 431.432 146.12 431.341 146.323 431.16L147.123 432.52C146.973 432.701 146.733 432.861 146.403 433C146.072 433.149 145.661 433.224 145.171 433.224ZM149.432 429.64C149.464 429.981 149.576 430.307 149.768 430.616C149.96 430.925 150.216 431.176 150.536 431.368C150.867 431.549 151.235 431.64 151.64 431.64C152.152 431.64 152.574 431.517 152.904 431.272C153.246 431.027 153.475 430.744 153.592 430.424L155.208 430.92C154.963 431.603 154.536 432.157 153.928 432.584C153.331 433.011 152.568 433.224 151.64 433.224C150.883 433.224 150.195 433.043 149.576 432.68C148.968 432.317 148.483 431.816 148.12 431.176C147.768 430.536 147.592 429.811 147.592 429C147.592 428.211 147.768 427.496 148.12 426.856C148.483 426.216 148.968 425.715 149.576 425.352C150.195 424.979 150.878 424.792 151.624 424.792C152.382 424.792 153.043 424.968 153.608 425.32C154.184 425.661 154.627 426.141 154.936 426.76C155.246 427.379 155.4 428.093 155.4 428.904V429.64H149.432ZM153.704 428.168C153.683 427.901 153.592 427.629 153.432 427.352C153.272 427.075 153.038 426.845 152.728 426.664C152.43 426.472 152.067 426.376 151.64 426.376C151.032 426.376 150.536 426.552 150.152 426.904C149.779 427.245 149.544 427.667 149.448 428.168H153.704ZM166.9 433.208C165.823 433.208 164.857 432.968 164.004 432.488C163.161 432.008 162.5 431.331 162.02 430.456C161.54 429.571 161.3 428.547 161.3 427.384C161.3 426.275 161.535 425.277 162.004 424.392C162.484 423.507 163.145 422.813 163.988 422.312C164.831 421.811 165.791 421.56 166.868 421.56C168.073 421.56 169.113 421.859 169.988 422.456C170.863 423.053 171.487 423.917 171.86 425.048L169.988 425.656C169.775 424.941 169.407 424.381 168.884 423.976C168.372 423.571 167.705 423.368 166.884 423.368C166.191 423.368 165.567 423.544 165.012 423.896C164.457 424.248 164.025 424.733 163.716 425.352C163.407 425.96 163.252 426.643 163.252 427.4C163.252 428.189 163.412 428.888 163.732 429.496C164.052 430.104 164.489 430.579 165.044 430.92C165.609 431.251 166.239 431.416 166.932 431.416C167.743 431.416 168.399 431.224 168.9 430.84C169.401 430.456 169.759 429.955 169.972 429.336L171.812 429.944C171.407 430.989 170.793 431.795 169.972 432.36C169.151 432.925 168.127 433.208 166.9 433.208ZM177.252 433.224C176.463 433.224 175.753 433.037 175.124 432.664C174.495 432.291 173.999 431.784 173.636 431.144C173.284 430.493 173.108 429.779 173.108 429C173.108 428.221 173.284 427.512 173.636 426.872C173.999 426.232 174.495 425.725 175.124 425.352C175.764 424.979 176.473 424.792 177.252 424.792C178.041 424.792 178.751 424.979 179.38 425.352C180.009 425.725 180.505 426.232 180.868 426.872C181.231 427.512 181.412 428.221 181.412 429C181.412 429.779 181.231 430.493 180.868 431.144C180.505 431.784 180.009 432.291 179.38 432.664C178.751 433.037 178.041 433.224 177.252 433.224ZM177.252 431.448C177.892 431.448 178.425 431.219 178.852 430.76C179.279 430.291 179.492 429.704 179.492 429C179.492 428.296 179.279 427.715 178.852 427.256C178.425 426.797 177.892 426.568 177.252 426.568C176.601 426.568 176.068 426.797 175.652 427.256C175.236 427.715 175.028 428.296 175.028 429C175.028 429.715 175.236 430.301 175.652 430.76C176.068 431.219 176.601 431.448 177.252 431.448ZM182.976 425.016H184.56L184.832 425.976C185.429 425.187 186.24 424.792 187.264 424.792C188.192 424.792 188.901 425.069 189.392 425.624C189.882 426.179 190.128 427.027 190.128 428.168V433H188.208V428.424C188.208 427.187 187.69 426.568 186.656 426.568C186.144 426.568 185.722 426.749 185.392 427.112C185.061 427.464 184.896 427.965 184.896 428.616V433H182.976V425.016ZM192.054 425.016H193.638L193.91 425.976C194.507 425.187 195.318 424.792 196.342 424.792C197.27 424.792 197.979 425.069 198.47 425.624C198.96 426.179 199.206 427.027 199.206 428.168V433H197.286V428.424C197.286 427.187 196.768 426.568 195.734 426.568C195.222 426.568 194.8 426.749 194.47 427.112C194.139 427.464 193.974 427.965 193.974 428.616V433H192.054V425.016ZM202.62 429.64C202.652 429.981 202.764 430.307 202.956 430.616C203.148 430.925 203.404 431.176 203.724 431.368C204.055 431.549 204.423 431.64 204.828 431.64C205.34 431.64 205.761 431.517 206.092 431.272C206.433 431.027 206.663 430.744 206.78 430.424L208.396 430.92C208.151 431.603 207.724 432.157 207.116 432.584C206.519 433.011 205.756 433.224 204.828 433.224C204.071 433.224 203.383 433.043 202.764 432.68C202.156 432.317 201.671 431.816 201.308 431.176C200.956 430.536 200.78 429.811 200.78 429C200.78 428.211 200.956 427.496 201.308 426.856C201.671 426.216 202.156 425.715 202.764 425.352C203.383 424.979 204.065 424.792 204.812 424.792C205.569 424.792 206.231 424.968 206.796 425.32C207.372 425.661 207.815 426.141 208.124 426.76C208.433 427.379 208.588 428.093 208.588 428.904V429.64H202.62ZM206.892 428.168C206.871 427.901 206.78 427.629 206.62 427.352C206.46 427.075 206.225 426.845 205.916 426.664C205.617 426.472 205.255 426.376 204.828 426.376C204.22 426.376 203.724 426.552 203.34 426.904C202.967 427.245 202.732 427.667 202.636 428.168H206.892ZM213.939 433.224C213.15 433.224 212.44 433.043 211.811 432.68C211.182 432.307 210.691 431.8 210.339 431.16C209.987 430.509 209.811 429.789 209.811 429C209.811 428.221 209.987 427.512 210.339 426.872C210.691 426.221 211.182 425.715 211.811 425.352C212.44 424.979 213.15 424.792 213.939 424.792C214.814 424.792 215.571 425.021 216.211 425.48C216.851 425.939 217.294 426.547 217.539 427.304L215.795 427.896C215.646 427.48 215.411 427.155 215.091 426.92C214.771 426.685 214.387 426.568 213.939 426.568C213.288 426.568 212.755 426.797 212.339 427.256C211.934 427.704 211.731 428.285 211.731 429C211.731 429.715 211.934 430.301 212.339 430.76C212.755 431.219 213.288 431.448 213.939 431.448C214.366 431.448 214.734 431.341 215.043 431.128C215.363 430.904 215.598 430.589 215.747 430.184L217.491 430.776C217.214 431.523 216.76 432.12 216.131 432.568C215.512 433.005 214.782 433.224 213.939 433.224ZM221.952 433.224C221.301 433.224 220.763 433.021 220.336 432.616C219.909 432.2 219.696 431.613 219.696 430.856V426.696H218.32V425.016H219.696V422.936H221.616V425.016H223.648V426.696H221.616V430.584C221.616 431.149 221.867 431.432 222.368 431.432C222.656 431.432 222.901 431.341 223.104 431.16L223.904 432.52C223.755 432.701 223.515 432.861 223.184 433C222.853 433.149 222.443 433.224 221.952 433.224ZM225.18 425.016H227.1V433H225.18V425.016ZM226.108 423.928C225.799 423.928 225.532 423.816 225.308 423.592C225.095 423.368 224.988 423.101 224.988 422.792C224.988 422.483 225.095 422.216 225.308 421.992C225.532 421.768 225.799 421.656 226.108 421.656C226.418 421.656 226.684 421.768 226.908 421.992C227.143 422.216 227.26 422.483 227.26 422.792C227.26 423.101 227.143 423.368 226.908 423.592C226.684 423.816 226.418 423.928 226.108 423.928ZM232.877 433.224C232.088 433.224 231.378 433.037 230.749 432.664C230.12 432.291 229.624 431.784 229.261 431.144C228.909 430.493 228.733 429.779 228.733 429C228.733 428.221 228.909 427.512 229.261 426.872C229.624 426.232 230.12 425.725 230.749 425.352C231.389 424.979 232.098 424.792 232.877 424.792C233.666 424.792 234.376 424.979 235.005 425.352C235.634 425.725 236.13 426.232 236.493 426.872C236.856 427.512 237.037 428.221 237.037 429C237.037 429.779 236.856 430.493 236.493 431.144C236.13 431.784 235.634 432.291 235.005 432.664C234.376 433.037 233.666 433.224 232.877 433.224ZM232.877 431.448C233.517 431.448 234.05 431.219 234.477 430.76C234.904 430.291 235.117 429.704 235.117 429C235.117 428.296 234.904 427.715 234.477 427.256C234.05 426.797 233.517 426.568 232.877 426.568C232.226 426.568 231.693 426.797 231.277 427.256C230.861 427.715 230.653 428.296 230.653 429C230.653 429.715 230.861 430.301 231.277 430.76C231.693 431.219 232.226 431.448 232.877 431.448ZM238.601 425.016H240.185L240.457 425.976C241.054 425.187 241.865 424.792 242.889 424.792C243.817 424.792 244.526 425.069 245.017 425.624C245.507 426.179 245.753 427.027 245.753 428.168V433H243.833V428.424C243.833 427.187 243.315 426.568 242.281 426.568C241.769 426.568 241.347 426.749 241.017 427.112C240.686 427.464 240.521 427.965 240.521 428.616V433H238.601V425.016Z" fill="white"/>
<path d="M89.6431 436.984H86.4304C85.9784 436.984 85.6232 436.629 85.6232 436.177C85.6232 435.725 85.9784 435.37 86.4304 435.37H89.6431C90.0467 435.37 90.3857 435.031 90.3857 434.627V431.414C90.3857 430.962 90.7408 430.607 91.1928 430.607C91.6448 430.607 92 430.962 92 431.414V434.627C91.9839 435.919 90.9345 436.984 89.6431 436.984ZM74.8234 425.377C74.3714 425.377 74.0163 425.022 74.0163 424.57V421.357C74.0163 420.065 75.0656 419 76.3732 419H79.5859C80.0379 419 80.393 419.355 80.393 419.807C80.393 420.259 80.0379 420.614 79.5859 420.614H76.3572C75.9536 420.614 75.6146 420.953 75.6146 421.357V424.57C75.6307 425.022 75.2594 425.377 74.8236 425.377H74.8234ZM91.1766 425.377C90.7245 425.377 90.3694 425.022 90.3694 424.57V421.357C90.3694 420.953 90.0304 420.614 89.6268 420.614H86.4141C85.9621 420.614 85.607 420.259 85.607 419.807C85.607 419.355 85.9621 419 86.4141 419H89.6268C90.9183 419 91.9837 420.049 91.9837 421.357V424.57C91.9837 425.022 91.6286 425.377 91.1766 425.377ZM79.5856 436.984H76.3569C75.0655 436.984 74 435.935 74 434.627V431.414C74 430.962 74.3552 430.607 74.8072 430.607C75.2592 430.607 75.6143 430.962 75.6143 431.414V434.627C75.6143 435.031 75.9533 435.37 76.3569 435.37H79.5696C80.0216 435.37 80.3768 435.725 80.3768 436.177C80.3768 436.629 80.0216 436.984 79.5857 436.984H79.5856Z" fill="white" stroke="white" stroke-width="0.4"/>
<path opacity="0.6" d="M87.3957 428.864H78.575C78.1972 428.864 77.9004 428.508 77.9004 428.056C77.9004 427.604 78.1972 427.249 78.575 427.249H87.3957C87.7735 427.249 88.0704 427.604 88.0704 428.056C88.0704 428.508 87.76 428.864 87.3957 428.864Z" fill="white" stroke="white" stroke-width="0.6"/>
<circle cx="272" cy="48" r="16" fill="#3A4153"/>
<path d="M274.511 45.7369C275.898 44.3127 275.898 42.0037 274.511 40.5796C273.124 39.1554 270.876 39.1554 269.489 40.5796C268.102 42.0037 268.102 44.3127 269.489 45.7369C270.876 47.161 273.124 47.161 274.511 45.7369Z" fill="#E3E9F1"/>
<path d="M264.491 55.001H279.509C279.577 55.0015 279.643 54.9875 279.705 54.9601C279.767 54.9326 279.823 54.8922 279.869 54.8415C279.915 54.7908 279.95 54.7308 279.973 54.6653C279.995 54.5999 280.004 54.5304 279.999 54.4613C279.68 50.885 276.22 48.0688 272 48.0688C267.78 48.0688 264.32 50.885 264.001 54.4613C263.996 54.5304 264.005 54.5999 264.027 54.6653C264.05 54.7308 264.085 54.7908 264.131 54.8415C264.177 54.8922 264.233 54.9326 264.295 54.9601C264.357 54.9875 264.423 55.0015 264.491 55.001V55.001Z" fill="#E3E9F1"/>
<circle cx="272" cy="227" r="16" fill="#3A4153"/>
<path d="M271.938 220C274.112 220 275.875 221.79 275.875 223.997C275.872 225.38 275.167 226.659 274.015 227.385L273.902 227.453V231.977C273.912 232.696 273.54 233.365 272.928 233.728C272.316 234.091 271.559 234.091 270.947 233.728C270.364 233.383 269.999 232.759 269.974 232.079L269.973 231.977V227.457C268.753 226.745 268.002 225.426 268 223.997C268 221.79 269.763 220 271.938 220Z" fill="#E3E9F1"/>
</g>
<defs>
<filter id="filter0_dd_94_500" x="22" y="383" width="277" height="108" filterUnits="userSpaceOnUse" color-interpolation-filters="sRGB">
<feFlood flood-opacity="0" result="BackgroundImageFix"/>
<feColorMatrix in="SourceAlpha" type="matrix" values="0 0 0 0 0 0 0 0 0 0 0 0 0 0 0 0 0 0 127 0" result="hardAlpha"/>
<feOffset dx="13" dy="18"/>
<feGaussianBlur stdDeviation="7"/>
<feColorMatrix type="matrix" values="0 0 0 0 0.117812 0 0 0 0 0.201006 0 0 0 0 0.3625 0 0 0 0.02 0"/>
<feBlend mode="normal" in2="BackgroundImageFix" result="effect1_dropShadow_94_500"/>
<feColorMatrix in="SourceAlpha" type="matrix" values="0 0 0 0 0 0 0 0 0 0 0 0 0 0 0 0 0 0 127 0" result="hardAlpha"/>
<feOffset dy="9"/>
<feGaussianBlur stdDeviation="14"/>
<feColorMatrix type="matrix" values="0 0 0 0 0.0767708 0 0 0 0 0.132275 0 0 0 0 0.275 0 0 0 0.05 0"/>
<feBlend mode="normal" in2="effect1_dropShadow_94_500" result="effect2_dropShadow_94_500"/>
<feBlend mode="normal" in="SourceGraphic" in2="effect2_dropShadow_94_500" result="shape"/>
</filter>
<linearGradient id="paint0_linear_94_500" x1="298.435" y1="543.304" x2="67.5" y2="25.4999" gradientUnits="userSpaceOnUse">
<stop offset="0.224702" stop-color="#D9DFEA"/>
<stop offset="1" stop-color="#EEF2F9"/>
</linearGradient>
<linearGradient id="paint1_linear_94_500" x1="74.5" y1="16" x2="278.5" y2="187" gradientUnits="userSpaceOnUse">
<stop stop-color="#333B4B"/>
<stop offset="1" stop-color="#141A26"/>
</linearGradient>
<linearGradient id="paint2_linear_94_500" x1="74.5" y1="195" x2="278.5" y2="366" gradientUnits="userSpaceOnUse">
<stop stop-color="#333B4B"/>
<stop offset="1" stop-color="#141A26"/>
</linearGradient>
<clipPath id="clip0_94_500">
<rect width="320" height="488" fill="white"/>
</clipPath>
</defs>
</svg>
